<svg id="Layer_1" data-name="Layer 1" xmlns="http://www.w3.org/2000/svg" viewBox="0 0 932.08 774.44"><defs><style>.cls-1{fill:#00205b;}.cls-2{fill:#fedb00;}.cls-3{fill:#c8102e;}</style></defs><title>qhacks-tricolor-logo</title><path class="cls-1" d="M343.12,820a81.87,81.87,0,0,1-2,18.21,75.67,75.67,0,0,1-5.65,16.4,69,69,0,0,1-9.09,14.23,67.72,67.72,0,0,1-12.25,11.6l37.25,40.68H323.34a38.11,38.11,0,0,1-11-1.47,18.37,18.37,0,0,1-8.78-5.9l-18.28-20.49c-2.95.59-6,1.07-9,1.4a86,86,0,0,1-9.44.52,82.26,82.26,0,0,1-31.3-5.76,70.09,70.09,0,0,1-39.71-39.77,82.57,82.57,0,0,1,0-59.35,70.52,70.52,0,0,1,15.54-23.83,72.07,72.07,0,0,1,24.17-15.84,82.43,82.43,0,0,1,31.3-5.75,81.16,81.16,0,0,1,31.24,5.79,72,72,0,0,1,24.08,15.9,71,71,0,0,1,15.49,23.81A78.87,78.87,0,0,1,343.12,820Zm-34.93,0a63.67,63.67,0,0,0-2.83-19.64,41.39,41.39,0,0,0-8.12-14.78,35.38,35.38,0,0,0-13-9.29,45,45,0,0,0-17.45-3.22,45.72,45.72,0,0,0-17.62,3.22,35.26,35.26,0,0,0-13,9.29A41.55,41.55,0,0,0,228,800.36a70,70,0,0,0,0,39.38,42,42,0,0,0,8.13,14.78,34.84,34.84,0,0,0,13,9.24,46.4,46.4,0,0,0,17.62,3.18,45.61,45.61,0,0,0,17.45-3.18,35,35,0,0,0,13-9.24,41.79,41.79,0,0,0,8.12-14.78A64.05,64.05,0,0,0,308.19,820Z" transform="translate(-82.59 -146.68)"/><path class="cls-1" d="M487.87,893.57H453.56V831.4H393.8v62.17H359.46V746.52H393.8V808h59.76V746.52h34.31V893.57Z" transform="translate(-82.59 -146.68)"/><path class="cls-1" d="M584.37,893.57a14.78,14.78,0,0,1-6.72-1.2c-1.53-.81-2.79-2.49-3.78-5.06l-2.22-5.75q-3.95,3.33-7.57,5.86a48.92,48.92,0,0,1-7.52,4.27,37.68,37.68,0,0,1-8.28,2.64,51.33,51.33,0,0,1-9.74.85,42.71,42.71,0,0,1-13-1.87,27.63,27.63,0,0,1-10-5.53,24.37,24.37,0,0,1-6.31-9.06A33,33,0,0,1,507,866.23a26.21,26.21,0,0,1,2.83-11.43q2.82-5.89,9.79-10.7t18.78-8q11.81-3.25,29.78-3.25v-4.49q0-9.26-3.78-13.39c-2.54-2.75-6.11-4.12-10.75-4.12a28.63,28.63,0,0,0-9.08,1.21,41.21,41.21,0,0,0-6.33,2.72c-1.85,1-3.64,1.94-5.4,2.74a14.79,14.79,0,0,1-6.25,1.21,9.51,9.51,0,0,1-5.49-1.56,11.72,11.72,0,0,1-3.59-3.89l-5.65-9.79A63.92,63.92,0,0,1,533,791a74.31,74.31,0,0,1,24.77-4.07A45.5,45.5,0,0,1,574.83,790a36.67,36.67,0,0,1,12.92,8.58,37.75,37.75,0,0,1,8.12,13.06,47.11,47.11,0,0,1,2.83,16.56v65.4H584.37Zm-35.95-19.07A25.06,25.06,0,0,0,559,872.38a32.41,32.41,0,0,0,9.19-6.87V851.18a80.1,80.1,0,0,0-15.44,1.23,37.21,37.21,0,0,0-9.59,3.06,11.78,11.78,0,0,0-4.9,4.18,9.91,9.91,0,0,0-1.35,5.08c0,3.61,1,6.13,2.91,7.59S544.66,874.49,548.43,874.49Z" transform="translate(-82.59 -146.68)"/><path class="cls-1" d="M696.39,813.74a17.08,17.08,0,0,1-2.72,2.72,6,6,0,0,1-3.73,1,8,8,0,0,1-4.19-1.12c-1.23-.73-2.65-1.56-4.19-2.45a29.82,29.82,0,0,0-5.44-2.49,23.32,23.32,0,0,0-7.77-1.1,21.7,21.7,0,0,0-10,2.11,18.33,18.33,0,0,0-6.91,6.05,27.78,27.78,0,0,0-4,9.64A57.77,57.77,0,0,0,646.12,841c0,10,2,17.73,5.81,23.14a18.67,18.67,0,0,0,16,8.07,22.11,22.11,0,0,0,8.62-1.37,26.36,26.36,0,0,0,5.4-3c1.47-1.12,2.84-2.13,4.1-3.08a7.46,7.46,0,0,1,4.67-1.41,6.47,6.47,0,0,1,5.65,2.72l9.1,11.2a49,49,0,0,1-10.2,9,50.3,50.3,0,0,1-10.95,5.45,55.47,55.47,0,0,1-11.25,2.73,82.85,82.85,0,0,1-11,.76,47.39,47.39,0,0,1-18.32-3.63A44.59,44.59,0,0,1,628.43,881a50.72,50.72,0,0,1-10.5-17A63.56,63.56,0,0,1,614,841a64.25,64.25,0,0,1,3.38-21.15,47.64,47.64,0,0,1,10-17.06,46.62,46.62,0,0,1,16.33-11.36,57.47,57.47,0,0,1,22.57-4.12,54.83,54.83,0,0,1,21.59,3.93,52.07,52.07,0,0,1,16.77,11.51Z" transform="translate(-82.59 -146.68)"/><path class="cls-1" d="M750.31,742.46v84.69h4.64a10.09,10.09,0,0,0,4.5-.8,8.42,8.42,0,0,0,3-2.93l19.79-29.48a10.77,10.77,0,0,1,4.09-3.83,13.11,13.11,0,0,1,6-1.21H821l-27.06,37.25a30.16,30.16,0,0,1-4.19,4.64,34.31,34.31,0,0,1-4.9,3.63,30.66,30.66,0,0,1,7.89,9.1l29.48,50H793.91a14.38,14.38,0,0,1-6.11-1.16,9.07,9.07,0,0,1-4.19-4.07l-19.78-37a7.74,7.74,0,0,0-2.91-3.29,10.71,10.71,0,0,0-4.55-.76h-6.06v46.33H719V742.46h31.29Z" transform="translate(-82.59 -146.68)"/><path class="cls-1" d="M899.29,811.8a7.88,7.88,0,0,1-2.58,2.74,6.78,6.78,0,0,1-3.48.82,11,11,0,0,1-4.43-1l-4.8-2.08a55.82,55.82,0,0,0-5.81-2.06,25.94,25.94,0,0,0-7.37-1q-5.94,0-9.13,2.27a7.32,7.32,0,0,0-3.18,6.31,6.28,6.28,0,0,0,2.08,4.84,18.9,18.9,0,0,0,5.49,3.39,74.92,74.92,0,0,0,7.78,2.77c2.88,0.89,5.85,1.85,8.87,2.91a81.54,81.54,0,0,1,8.9,3.78,33.86,33.86,0,0,1,7.77,5.37,23.41,23.41,0,0,1,5.49,7.71A26.15,26.15,0,0,1,907,859.57a35.83,35.83,0,0,1-2.84,14.32,30.25,30.25,0,0,1-8.42,11.32,39.74,39.74,0,0,1-13.83,7.36,61.94,61.94,0,0,1-18.92,2.63,57.39,57.39,0,0,1-10.7-1,73.22,73.22,0,0,1-10.36-2.74,58.09,58.09,0,0,1-9.22-4.07,40.52,40.52,0,0,1-7.27-5.1l7.27-11.51a10.59,10.59,0,0,1,3.13-3.18,8.7,8.7,0,0,1,4.76-1.16,10,10,0,0,1,4.89,1.21c1.44,0.8,3,1.67,4.69,2.63a40.27,40.27,0,0,0,5.9,2.61,25.32,25.32,0,0,0,8.53,1.23,21.36,21.36,0,0,0,6.15-.77,10.72,10.72,0,0,0,4.05-2.07,8,8,0,0,0,2.91-6.25,6.84,6.84,0,0,0-2.1-5.15,18.74,18.74,0,0,0-5.56-3.47,70.72,70.72,0,0,0-7.82-2.74q-4.4-1.25-8.94-2.88a70.22,70.22,0,0,1-8.94-3.87,31.33,31.33,0,0,1-7.82-5.76,26.63,26.63,0,0,1-5.54-8.53,34.09,34.09,0,0,1,.44-24.88,29.22,29.22,0,0,1,7.73-10.56A38,38,0,0,1,852.06,790a55.71,55.71,0,0,1,18.16-2.67,59.89,59.89,0,0,1,11,1,56.57,56.57,0,0,1,9.93,2.82,50,50,0,0,1,8.49,4.28,42.49,42.49,0,0,1,6.74,5.4Z" transform="translate(-82.59 -146.68)"/><polygon class="cls-2" points="291.57 386.06 310.36 405.43 448.05 447.65 367.7 357.58 291.57 386.06"/><polygon class="cls-3" points="563.96 357.61 483.41 447.63 621.71 405.36 640.39 386.1 563.96 357.61"/><polygon class="cls-3" points="428.79 192.62 378.82 349.01 458.64 438.5 458.64 254.39 438.9 192.64 428.79 192.62"/><polygon class="cls-1" points="492.33 192.66 472.61 254.39 472.61 438.71 552.91 349.01 502.92 192.62 492.33 192.66"/><polygon class="cls-1" points="812.95 248.46 796.42 245.31 649.38 396.9 727.21 373.11 772.21 469.62 820.93 313.92 812.95 248.46"/><polygon class="cls-3" points="605.35 178.21 541.11 101.3 511.6 132.38 496.81 178.66 605.35 178.21"/><polygon class="cls-2" points="807.39 202.95 764.01 140.24 691.44 211.1 811.16 233.88 807.39 202.95"/><polygon class="cls-2" points="495.44 458.58 763.55 484.12 719.7 390.04 495.44 458.58"/><polygon class="cls-3" points="932.08 86.21 811.48 120.82 831.09 281.82 932.08 86.21"/><polygon class="cls-3" points="135.63 245.31 119.14 248.46 111.17 313.92 159.87 469.62 204.87 373.11 282.65 396.94 135.63 245.31"/><polygon class="cls-1" points="434.44 178.66 419.23 131.05 390.98 101.3 326.74 178.21 434.44 178.66"/><polygon class="cls-2" points="120.91 233.88 240.65 211.1 168.07 140.24 124.68 202.95 120.91 233.88"/><polygon class="cls-1" points="435.99 458.58 212.4 390.04 168.54 484.12 435.99 458.58"/><polygon class="cls-1" points="0 86.21 100.99 281.82 120.61 120.82 0 86.21"/><polygon class="cls-2" points="411.13 59.78 465.61 230.31 520.13 59.78 465.61 0 411.13 59.78"/></svg>