<?xml version="1.0" encoding="utf-8"?>
<!-- Generator: Adobe Illustrator 19.2.0, SVG Export Plug-In . SVG Version: 6.00 Build 0)  -->
<svg version="1.1" id="Слой_1" xmlns="http://www.w3.org/2000/svg" xmlns:xlink="http://www.w3.org/1999/xlink" x="0px" y="0px"
	 viewBox="0 0 1500 1100" style="enable-background:new 0 0 1500 1100;" xml:space="preserve">
<style type="text/css">
	.st0{clip-path:url(#SVGID_2_);}
	
		.st1{fill:none;stroke:#0150B9;stroke-width:3;stroke-linecap:round;stroke-linejoin:round;stroke-miterlimit:10;stroke-dasharray:1,12;}
	.st2{fill:none;stroke:#0150B9;stroke-width:3;stroke-linecap:round;stroke-linejoin:round;}
	.st3{fill:none;stroke:#0150B9;stroke-width:3;stroke-linecap:round;stroke-linejoin:round;stroke-dasharray:1.0096,12.1153;}
	.st4{fill:none;stroke:#0150B9;stroke-width:3;stroke-linecap:round;stroke-linejoin:round;stroke-dasharray:0.9926,11.9111;}
	.st5{fill:none;stroke:#0150B9;stroke-width:3;stroke-linecap:round;stroke-linejoin:round;stroke-dasharray:0.9918,11.9017;}
	.st6{fill:none;stroke:#0150B9;stroke-width:3;stroke-linecap:round;stroke-linejoin:round;stroke-miterlimit:10;}
	.st7{fill:none;stroke:#0150B9;stroke-width:3;stroke-linecap:round;stroke-linejoin:round;stroke-dasharray:1.0131,12.1577;}
	.st8{fill:none;stroke:#0150B9;stroke-width:3;stroke-linecap:round;stroke-linejoin:round;stroke-dasharray:1.0032,12.0388;}
	.st9{fill:none;stroke:#0150B9;stroke-width:3;stroke-linecap:round;stroke-linejoin:round;stroke-dasharray:0.9924,11.9087;}
	.st10{fill:none;stroke:#0150B9;stroke-width:3;stroke-linecap:round;stroke-linejoin:round;stroke-dasharray:1.0868,13.0421;}
	.st11{fill:none;stroke:#0150B9;stroke-width:3;stroke-linecap:round;stroke-linejoin:round;stroke-dasharray:0.937,11.2441;}
	.st12{fill:none;stroke:#0150B9;stroke-width:3;stroke-linecap:round;stroke-linejoin:round;stroke-dasharray:0.959,11.5078;}
	.st13{fill:#00205B;}
	.st14{fill:#0150B9;}
	.st15{fill:#FFFFFF;}
	.st16{fill:#CFCDCC;}
	.st17{fill:#03CDFD;}
	.st18{fill:#D4E9F5;}
	.st19{fill:#D5F0FD;}
	.st20{fill:none;stroke:#FFFFFF;stroke-width:2;stroke-miterlimit:10;}
	.st21{fill:#BCA200;}
	.st22{fill:#FCD901;}
	.st23{fill:#950C23;}
	.st24{fill:#C6102E;}
	.st25{fill:#E38B99;}
	.st26{fill:none;}
	.st27{fill:#FDEF96;}
</style>
<g>
	<defs>
		<polyline id="SVGID_1_" points="1500,1100 0,1100 0,0 1500,0 		"/>
	</defs>
	<clipPath id="SVGID_2_">
		<use xlink:href="#SVGID_1_"  style="overflow:visible;"/>
	</clipPath>
	<g class="st0">
		<path class="st1" d="M736.5,285.4c-0.1-5.8-4.4-11.6-13.1-16.1l0,0l-1.4-0.7l0,0c-18.4-8.8-47.6-8.7-65.7,0.3l-46.7,23.4
			c-9.2,4.6-13.7,10.6-13.7,16.6l0.1,9.1c0.7,6.7,5.3,13.3,13.6,17.4c18.3,9.2,48,9.2,66.4,0l46.7-23.4c8.1-4,12.6-10.3,13.5-16.8
			l0.2-2.6c0,0,0-0.1,0-0.1v-7c0,0,0-0.1,0-0.1L736.5,285.4L736.5,285.4z"/>
		<path class="st1" d="M79.4,981.9c0.1-5.7,4.4-11.4,12.9-15.8l0,0l1.3-0.7l0,0c18.1-8.7,46.8-8.6,64.7,0.3l46,23
			c9,4.5,13.5,10.4,13.5,16.3l-0.1,8.9c-0.7,6.6-5.2,13.1-13.4,17.2c-18,9-47.3,9-65.4,0l-46-23c-7.9-4-12.4-10.1-13.3-16.5
			l-0.2-2.6c0,0,0-0.1,0-0.1v-6.9c0,0,0-0.1,0-0.1L79.4,981.9L79.4,981.9z"/>
		<g>
			<g>
				<g>
					<line class="st2" x1="1595.9" y1="-4.5" x2="1595.5" y2="-4.3"/>
					<path class="st3" d="M1584.6,1.1"/>
				</g>
			</g>
		</g>
		<g>
			<g>
				<g>
					<line class="st2" x1="219.8" y1="412.5" x2="219.4" y2="412.7"/>
					<line class="st3" x1="208.5" y1="418.1" x2="-114.7" y2="579.8"/>
					<line class="st2" x1="-120.2" y1="582.5" x2="-120.6" y2="582.7"/>
				</g>
			</g>
		</g>
		<g>
			<g>
				<g>
					<line class="st2" x1="373.1" y1="796.9" x2="372.6" y2="797.2"/>
					<line class="st4" x1="362" y1="802.5" x2="159.6" y2="903.7"/>
					<line class="st2" x1="154.2" y1="906.4" x2="153.8" y2="906.6"/>
				</g>
			</g>
		</g>
		<g>
			<g>
				<g>
					<line class="st2" x1="941.1" y1="720.9" x2="940.6" y2="721.2"/>
					<line class="st5" x1="930" y1="726.5" x2="416.4" y2="983.4"/>
					<line class="st2" x1="411" y1="986" x2="410.6" y2="986.2"/>
				</g>
			</g>
		</g>
		<line class="st6" x1="148.8" y1="-37" x2="629.8" y2="203.5"/>
		<line class="st6" x1="191.3" y1="-52.1" x2="672.3" y2="188.5"/>
		<polyline class="st6" points="936,758.2 1243.9,912.2 1243.9,1142.2 		"/>
		<line class="st6" x1="936" y1="721.6" x2="1669.1" y2="1088.2"/>
		<path class="st6" d="M477.2,88.9"/>
		<path class="st6" d="M958.3-151.7"/>
		<path class="st6" d="M1880.3,539.6"/>
		<path class="st6" d="M1847.1,526.4"/>
		<polyline class="st6" points="-233.9,576.3 247.1,335.7 247.1,367.2 -233.9,607.8 		"/>
		<path class="st6" d="M1420.5-151.7"/>
		<g>
			<g>
				<g>
					<path class="st2" d="M974.8,31.1"/>
					<path class="st7" d="M985.7,36.5"/>
				</g>
			</g>
		</g>
		<g>
			<g>
				<g>
					<line class="st2" x1="65.2" y1="-46.8" x2="65.6" y2="-46.5"/>
					<line class="st3" x1="76.5" y1="-41.1" x2="399.7" y2="120.6"/>
					<polyline class="st2" points="405.2,123.3 405.6,123.5 405.6,124 					"/>
					<line class="st8" x1="405.6" y1="136" x2="405.6" y2="247.4"/>
					<line class="st2" x1="405.6" y1="253.4" x2="405.6" y2="253.9"/>
				</g>
			</g>
		</g>
		<g>
			<g>
				<g>
					<line class="st2" x1="1314.8" y1="-139.9" x2="1314.4" y2="-139.7"/>
					<path class="st3" d="M1303.5-134.3"/>
					<path class="st9" d="M974.4,42.7"/>
				</g>
			</g>
		</g>
		<g>
			<g>
				<g>
					<path class="st10" d="M936,421.2"/>
				</g>
			</g>
		</g>
		<line class="st1" x1="89.2" y1="413.7" x2="89.2" y2="218.2"/>
		<line class="st1" x1="149.4" y1="447.7" x2="149.4" y2="542.5"/>
		<polyline class="st6" points="936,608.2 936,758.2 622.6,912.2 622.6,560.2 		"/>
		<line class="st1" x1="148.6" y1="1046.2" x2="148.6" y2="1164.2"/>
		<polyline class="st6" points="845,802.1 845,856.6 1008.5,938.4 1008.5,970.2 611.9,1181.9 		"/>
		<ellipse class="st1" cx="403.6" cy="285.9" rx="48" ry="30"/>
		<g>
			<g>
				<g>
					<polyline class="st2" points="711,674.7 711.5,674.9 711,675.1 					"/>
					<line class="st11" x1="701" y1="680.1" x2="651.5" y2="704.9"/>
					<polyline class="st2" points="646.5,707.4 646.1,707.6 645.6,707.4 					"/>
					<line class="st12" x1="635.3" y1="702.2" x2="517.8" y2="643.5"/>
					<polyline class="st2" points="512.7,640.9 512.2,640.7 512.7,640.5 					"/>
					<line class="st11" x1="522.7" y1="635.4" x2="572.2" y2="610.7"/>
					<polyline class="st2" points="577.2,608.2 577.6,608 578.1,608.2 					"/>
					<line class="st12" x1="588.4" y1="613.3" x2="705.9" y2="672.1"/>
				</g>
			</g>
		</g>
		<line class="st1" x1="410.6" y1="986.2" x2="410.6" y2="1142.2"/>
	</g>
	<g class="st0">
		<g>
			<g>
				<path class="st13" d="M38.7,209.2L145.5,263c3.1,1.6,5.7,0.3,5.7-2.8l0.2-67c0-3.1-2.5-6.9-5.6-8.5L39,130.9
					c-3.1-1.6-5.7-0.3-5.7,2.8l-0.2,67C33.1,203.8,35.6,207.7,38.7,209.2z"/>
			</g>
			<g>
				<path class="st14" d="M36.4,210.6l106.7,53.8c3.1,1.6,5.7,0.3,5.7-2.8l0.2-67c0-3.1-2.5-6.9-5.6-8.5L36.6,132.3
					c-3.1-1.6-5.7-0.3-5.7,2.8l-0.2,67C30.7,205.2,33.3,209.1,36.4,210.6z"/>
			</g>
			<g>
				<polygon class="st15" points="36.9,203.8 142.7,257.1 142.8,195.3 37,142 				"/>
			</g>
			<g>
				<path class="st16" d="M87.1,162.7c0,1.6,1.3,3.5,2.8,4.3c1.6,0.8,2.8,0.2,2.8-1.4c0-1.6-1.3-3.5-2.8-4.3
					C88.4,160.5,87.1,161.1,87.1,162.7z"/>
			</g>
			<g>
				<polygon class="st17" points="39.6,205.2 140,255.7 140.1,200.5 39.7,149.9 				"/>
			</g>
			<g>
				<g>
					<g>
						<g>
							<polygon class="st18" points="105.4,238.3 135.4,253.4 135.4,224.1 105.4,209 							"/>
						</g>
					</g>
					<g>
						<g>
							<polygon class="st18" points="44.3,175.4 75.3,191 75.3,173.8 44.3,158.2 							"/>
						</g>
					</g>
					<g>
						<g>
							<polygon class="st18" points="44.2,207.5 102.1,236.6 102.1,207.4 44.3,178.2 							"/>
						</g>
					</g>
					<g>
						<g>
							<polygon class="st18" points="78.8,192.5 135.4,221.1 135.5,204.1 78.9,175.6 							"/>
						</g>
					</g>
				</g>
			</g>
		</g>
	</g>
	<g class="st0">
		<path class="st14" d="M79.4,919L79.4,919c0,0,0,0.1,0,0.1V919z"/>
		<path class="st14" d="M92.9,935.5l46,23c18.1,9,47.3,9,65.4,0c9-4.5,13.5-10.4,13.5-16.3l-0.1,8.9l0,0
			c-0.7,6.6-5.2,13.1-13.4,17.2c-18,9-47.3,9-65.4,0l-46-23c-7.9-4-12.4-10.1-13.3-16.5l0,0l-0.2-2.6c0,0,0-0.1,0-0.1v-6.9
			C79.4,925.1,83.9,931,92.9,935.5z"/>
		<path class="st19" d="M204.3,958.5c-18,9-47.3,9-65.4,0l-46-23c-9-4.5-13.5-10.4-13.5-16.3c0,0,0-0.1,0-0.1c0,0,0-0.1,0-0.1
			c0.1-5.7,4.4-11.4,12.9-15.8l17.3,8.7l0.7-0.3c-2.4,1.2-2.4,3.1,0,4.3l21.3,10.7c2.4,1.2,6.3,1.2,8.7,0c2.4-1.2,2.4-3.1,0-4.3
			l-21.3-10.7c-2.4-1.2-6.3-1.2-8.7,0l0.7-0.3l-17.3-8.7c18.1-8.7,46.8-8.6,64.7,0.3l46,23c9,4.5,13.5,10.4,13.5,16.3
			C217.8,948.1,213.3,954,204.3,958.5z"/>
		<path class="st17" d="M118.9,911.5l21.3,10.7c2.4,1.2,2.4,3.1,0,4.3c-2.4,1.2-6.3,1.2-8.7,0l-21.3-10.7c-2.4-1.2-2.4-3.1,0-4.3
			l0,0C112.6,910.3,116.5,910.3,118.9,911.5z"/>
		<polygon class="st17" points="110.9,911.2 110.2,911.5 110.2,911.5 109.6,911.9 92.2,903.2 92.2,903.2 93.6,902.5 93.6,902.5 		
			"/>
	</g>
	<g class="st0">
		<path class="st20" d="M380.1,732.6c1.8,0.9,3.4,1.4,5,1.5c0.5-1.2,0.8-2.6,0.8-4.3c0-7.6-6.2-16.8-13.7-20.6
			c-1.8-0.9-3.4-1.4-5-1.5c-0.5,1.2-0.8,2.6-0.8,4.3C366.4,719.5,372.5,728.8,380.1,732.6z"/>
		<path class="st14" d="M380.1,679.9c-21.5-10.7-46.7,0-46.7,21.5c0,0,0,0,0,0c1.1-20,18.1-27.8,38.8-17.4
			c21.5,10.7,38.9,36.9,38.9,58.3c0,21.1-19.7,35.9-31.1,42.7c0,0,0.1,0.1,0.1,0.1s38.9-17.4,38.9-46.9
			C419,716.8,401.6,690.7,380.1,679.9z"/>
		<path class="st17" d="M380.1,732.6c-7.6-3.8-13.7-13-13.7-20.6c0-1.7,0.3-3.1,0.8-4.3c-5.1-0.6-8.8,2.6-8.8,8.4
			c0,7.6,6.2,16.8,13.7,20.6c5.9,3,11,1.7,12.9-2.6C383.6,734,381.9,733.5,380.1,732.6z"/>
		<path class="st19" d="M411.1,742.4c0-21.5-17.4-47.6-38.9-58.3c-20.8-10.4-37.8-2.6-38.8,17.4c0,0.7-0.1,1.4-0.1,2.1
			c0,32.8,38.9,85.8,38.9,85.8s3.2-1.4,7.8-4.2C391.4,778.3,411.1,763.5,411.1,742.4z M372.2,736.7c-7.6-3.8-13.7-13-13.7-20.6
			c0-5.8,3.6-9,8.8-8.4c1.5,0.2,3.2,0.7,5,1.5c7.6,3.8,13.7,13,13.7,20.6c0,1.7-0.3,3.1-0.8,4.3
			C383.2,738.4,378.2,739.7,372.2,736.7z"/>
	</g>
	<g class="st0">
		<polygon class="st19" points="403.5,435.1 396.9,437.1 387.9,423.2 397.2,419.6 419,424.3 410.7,437.3 		"/>
		<path class="st19" d="M409,433.3c2.9,1.4,2.9,3.8,0,5.2c-2.9,1.4-7.5,1.4-10.4,0c-2.9-1.4-2.9-3.8,0-5.2
			C401.5,431.9,406.2,431.9,409,433.3z"/>
		<path class="st17" d="M415.6,415.2c6.5,3.2,6.5,8.5,0,11.7c-6.5,3.2-17,3.2-23.4,0c-6.5-3.2-6.5-8.5,0-11.7
			C398.6,411.9,409.1,411.9,415.6,415.2z"/>
		<g>
			<rect x="387.3" y="386.6" class="st17" width="33.1" height="34.4"/>
		</g>
		<path class="st19" d="M416.2,389.8c6.8,3.4,7.3,9.2,0.5,12.6c-6.8,3.4-18.4,3.2-25.2-0.2c-6.8-3.4-6.8-8.9,0-12.4
			C398.3,386.4,409.4,386.4,416.2,389.8z"/>
		<path class="st19" d="M433.8,376.7L433.8,376.7c3.1-5.4,4.9-11.7,4.9-18.5c0-20-15.7-36.2-35.1-36.2c-19.4,0-35.1,16.2-35.1,36.2
			c0,7.9,2.5,15.2,6.6,21.2l11.6,18.3l34.3,1l12.6-21.6c0,0,0,0,0-0.1L433.8,376.7z"/>
		<ellipse class="st17" cx="392.8" cy="352.3" rx="11.2" ry="11.5"/>
		<path class="st14" d="M415.5,418.3c-6.5,3.2-17,3.2-23.4,0c-3.2-1.6-4.8-3.7-4.8-5.9l0,0v3.3c0,2.1,1.6,4.2,4.8,5.9
			c6.5,3.2,17,3.2,23.4,0c3.2-1.6,4.9-3.7,4.9-5.9v-3.3C420.4,414.6,418.8,416.7,415.5,418.3z"/>
		<path class="st14" d="M415.5,409.1c-6.5,3.2-17,3.2-23.4,0c-3.2-1.6-4.8-3.7-4.8-5.9l0,0v3.3c0,2.1,1.6,4.2,4.8,5.9
			c6.5,3.2,17,3.2,23.4,0c3.2-1.6,4.9-3.7,4.9-5.9v-3.3C420.4,405.4,418.8,407.5,415.5,409.1z"/>
	</g>
	<g class="st0">
		<polygon class="st19" points="529.7,506.3 626.8,554.6 681.4,527.3 584.3,479 		"/>
		<polygon class="st14" points="529.7,506.4 626.8,554.8 626.8,577.8 529.7,529.5 		"/>
		<polygon class="st14" points="626.8,577.8 626.8,554.8 681.4,527.4 681.4,550.5 		"/>
		<g>
			<polygon class="st18" points="634.9,555.2 676.6,575.9 712.2,558.1 670.5,537.3 			"/>
			<polygon class="st17" points="634.9,555.2 676.6,575.9 676.6,591 634.9,570.3 			"/>
			<g>
				<polygon class="st18" points="676.6,591 676.6,575.9 712.2,558.1 712.2,573.1 				"/>
				<polygon class="st13" points="679.1,580.1 679.1,574.7 709.7,559.4 709.7,564.8 				"/>
			</g>
			<polygon class="st14" points="673.4,552.8 681,556.6 688.6,552.8 681,549 			"/>
			<polygon class="st14" points="658.5,560.2 666.1,564 673.7,560.2 666.1,556.4 			"/>
		</g>
	</g>
	<g class="st0">
		<g>
			<path class="st18" d="M1026.1,960.7c-1.6-0.9-2.9-2.1-4-3.6c-0.4-0.6-0.8-1.2-1.2-1.8c-0.3-0.6-0.7-1.3-0.9-2.1
				c-0.8-2.2-1.2-4.7-1.2-7.5c0-2.8,0.4-5.8,1.2-8.7c0.7-2.5,1.6-5,2.7-7.4c0.3-0.7,0.7-1.4,1-2.1c0.2-0.3,0.3-0.6,0.5-0.9
				c0.2-0.4,0.4-0.7,0.6-1.1c0.2-0.4,0.5-0.8,0.7-1.2c0.2-0.3,0.3-0.5,0.5-0.8c0.3-0.4,0.6-0.9,0.8-1.3c0.3-0.4,0.6-0.8,0.8-1.2
				c-0.2,0.3-0.4,0.6-0.6,0.8l-30,15c5.7,2.1,9.4,7.9,9.4,16.3c0,7.3-2.8,15.4-7.3,22.6l28.4-14.2c-0.3-0.1-0.6-0.3-0.9-0.4
				C1026.5,960.9,1026.3,960.8,1026.1,960.7z"/>
			<path class="st18" d="M989.9,943.9c-2.8-0.3-6.1,0.4-9.5,2.1c-9.8,4.9-18,16.7-19.2,27.2c-0.1,0.9-0.2,1.8-0.2,2.7
				c0,6.7,3.1,11.1,7.9,12.3c2.8,0.3,6.1-0.4,9.5-2.1c4.1-2.1,8-5.3,11.1-9.2c5-6.1,8.2-13.8,8.2-20.7
				C997.8,949.5,994.7,945.2,989.9,943.9z M989.8,966.3l-4.1,2.1v4.3c0,1.2-0.4,2.4-1.2,3.5c-0.7,1.1-1.7,2.1-2.8,2.6
				c-1.2,0.6-2.3,0.6-3,0l0,0l0,0c-0.1-0.1-0.3-0.2-0.4-0.4l-0.9-0.9c-0.1-0.1-0.2-0.2-0.3-0.3l0,0h0c-0.4-0.4-0.6-1.1-0.6-1.8v-0.3
				V973l-2.9,1.5c-0.2,0.1-0.5,0.2-0.7,0.3c-0.9,0.3-1.7,0.2-2.3-0.2l0,0l0,0c0,0-0.1,0-0.1-0.1c-0.1-0.1-0.2-0.2-0.3-0.3l-0.8-0.8
				c-0.1-0.1-0.2-0.2-0.3-0.3l0,0h0c-0.4-0.4-0.6-1.1-0.6-1.8c0-2.3,1.8-5.1,4-6.2l4.1-2.1v-4.3c0-2.3,1.8-5.1,4-6.2
				c1.2-0.6,2.3-0.6,3.1,0l0,0l0,0c0.1,0.1,0.2,0.2,0.3,0.3l0.9,0.9c0.1,0.1,0.2,0.1,0.2,0.2l0.1,0.1h0c0.4,0.4,0.6,1.1,0.6,1.8v2.5
				l2.9-1.5c1.2-0.6,2.3-0.6,3,0l0,0l0,0c0.1,0.1,0.3,0.2,0.4,0.4l0.8,0.8c0.1,0.1,0.2,0.2,0.3,0.3l0,0h0c0.4,0.4,0.6,1.1,0.6,1.8
				C993.8,962.5,992,965.2,989.8,966.3z"/>
			<path class="st18" d="M988.7,935.6c0.4,0,0.9,0,1.3,0C989.5,935.6,989.1,935.6,988.7,935.6z"/>
			<path class="st18" d="M993.6,936c-1.1-0.3-2.4-0.4-3.6-0.5C991.2,935.6,992.4,935.7,993.6,936L993.6,936z"/>
			<path class="st18" d="M965.2,996.1c-1.9-0.2-3.7-0.8-5.3-1.6c-0.6-0.3-1.2-0.7-1.7-1.1c-1.3-1-2.5-2.3-3.4-3.8
				c-0.2-0.3-0.4-0.6-0.5-0.9c-1.2-2.3-1.9-5-2-8.2c0-0.5,0-0.9,0-1.4c0-0.9,0-1.7,0.1-2.6l-6.9,47c-0.1,0.5-0.2,1-0.2,1.4l0,0.1
				l0,0c-0.1,0.6-0.1,1.1-0.1,1.6c0,1,0.1,2,0.3,2.9c0.4,1.9,1.3,3.4,2.5,4.4c0.4,0.3,0.8,0.6,1.2,0.8l0,0c2.5,1.3,5.9,1.2,9.6-0.7
				c3.7-1.9,7.1-5.1,9.6-8.9h0c0.6-0.9,1.2-1.9,1.6-2.9l20.5-35.8c-3.1,2.9-6.5,5.4-10.1,7.2C974.7,996.4,969.5,997.1,965.2,996.1z"
				/>
			<path class="st18" d="M953,972.2l0,0.1C953,972.2,953,972.2,953,972.2L953,972.2z"/>
			<path class="st18" d="M1080.5,957.2L1080.5,957.2L1080.5,957.2c-0.1-0.5-0.1-0.9-0.2-1.3l-5.5-30.8
				c-2.7,13.6-13.6,28.3-26.7,34.8c-7.1,3.6-13.6,4.1-18.5,2.1l0,0c-0.3-0.1-0.6-0.2-0.9-0.3c0,0,0,0,0.1,0l25.9,18
				c0.5,0.5,1.1,0.9,1.7,1.2h0c2.6,1.3,6.1,1.1,10-0.9c7.9-3.9,14.2-13.5,14.2-21.3C1080.6,958.3,1080.6,957.7,1080.5,957.2z"/>
			<path class="st18" d="M1063.4,902.2c0.4,0.1,0.8,0.3,1.2,0.4C1064.1,902.5,1063.7,902.3,1063.4,902.2z"/>
			<path class="st18" d="M1063.4,902.2C1063.3,902.2,1063.3,902.2,1063.4,902.2C1063.3,902.2,1063.3,902.2,1063.4,902.2z"/>
			<path class="st18" d="M1062.1,901.9c0.4,0.1,0.8,0.2,1.2,0.3c-0.7-0.2-1.3-0.4-2.1-0.5C1061.5,901.7,1061.8,901.8,1062.1,901.9z"
				/>
			<path class="st18" d="M1061.2,901.7c-0.3-0.1-0.6-0.1-0.9-0.1C1060.6,901.6,1060.9,901.6,1061.2,901.7z"/>
			<path class="st18" d="M1028.7,961.8c-0.3-0.1-0.7-0.2-1-0.4C1028,961.6,1028.4,961.7,1028.7,961.8z"/>
			<path class="st18" d="M1034.2,954.3c3.3,0.8,7.5,0.2,11.9-2.1c11.2-5.6,20.2-19.2,20.2-30.3c0-5.8-2.4-9.8-6.3-11.5
				c-3.3-0.8-7.5-0.2-11.9,2.1c-11.2,5.6-20.2,19.2-20.2,30.3C1027.9,948.6,1030.3,952.6,1034.2,954.3z M1048.9,945.4
				c-1.3,0.7-2.5,0.6-3.3,0.1l0,0l-0.2-0.2c0,0,0,0,0,0l-1-1l0,0c-0.5-0.4-0.8-1.1-0.8-2c0-2.3,1.9-5.1,4.2-6.3
				c1.4-0.7,2.6-0.6,3.4,0.1l0,0l0,0l0.1,0.1l1,1c0,0,0,0,0,0l0,0l0,0c0.4,0.4,0.7,1.1,0.7,1.9
				C1053,941.5,1051.2,944.3,1048.9,945.4z M1056.1,923.4c1.4-0.7,2.6-0.6,3.4,0.1l0,0l0,0l0.1,0.1l1,1c0,0,0,0,0,0l0,0l0,0
				c0.4,0.4,0.7,1.1,0.7,1.9c0,2.3-1.9,5.1-4.2,6.3c-1.3,0.7-2.5,0.6-3.3,0.1l0,0l-0.2-0.2c0,0,0,0,0,0l-1-1l0,0
				c-0.5-0.4-0.8-1.1-0.8-2C1052,927.3,1053.8,924.5,1056.1,923.4z M1047.5,919c1.4-0.7,2.6-0.6,3.4,0.1l0,0l0,0l0.1,0.1l1,1
				c0,0,0,0,0,0l0,0l0,0c0.4,0.4,0.7,1.1,0.7,1.9c0,2.3-1.9,5.1-4.2,6.3c-1.3,0.7-2.5,0.6-3.3,0.1l0,0l-0.2-0.2c0,0,0,0,0,0l-1-1
				l0,0c-0.5-0.4-0.8-1.1-0.8-2C1043.4,923,1045.2,920.2,1047.5,919z M1039.2,931.7c1.4-0.7,2.6-0.6,3.4,0.1l0,0l0,0l0.1,0.1l1,1
				c0,0,0,0,0,0l0,0l0,0c0.4,0.4,0.7,1.1,0.7,1.9c0,2.3-1.9,5.1-4.2,6.3c-1.3,0.7-2.5,0.6-3.3,0.1l0,0l-0.2-0.2c0,0,0,0,0,0l-1-1
				l0,0c-0.5-0.4-0.8-1.1-0.8-2C1035,935.7,1036.9,932.9,1039.2,931.7z"/>
		</g>
		<g>
			<path class="st17" d="M977.7,976.7v-4.3l-1.2,0.6v2.2v0.3c0,0.8,0.2,1.4,0.6,1.8h0l0,0l0.3,0.3l0.9,0.9c-0.2-0.3-0.4-0.7-0.5-1.2
				C977.7,977.1,977.7,976.9,977.7,976.7z"/>
			<path class="st17" d="M997.1,936.8c-1.1-0.4-2.3-0.7-3.6-0.8h0c-3.9-0.4-8.4,0.5-13.2,2.9c-14.5,7.2-26.2,25.3-26.2,40.4
				c0,9.2,4.4,15.2,11,16.8c4.3,1,9.5,0.3,15.1-2.5c3.6-1.8,7-4.3,10.1-7.2c3.3-3.1,6.3-6.8,8.8-10.7c4.5-7.2,7.3-15.2,7.3-22.6
				C1006.5,944.7,1002.9,939,997.1,936.8z M980.4,986.4c-4.3,2.1-8.3,2.7-11.5,1.8c-4.8-1.3-7.9-5.7-7.9-12.3c0-0.9,0.1-1.8,0.2-2.7
				c1.2-10.5,9.3-22.3,19.2-27.2c3.5-1.7,6.7-2.4,9.5-2.1c5.9,0.5,9.8,5.1,9.8,12.7C999.7,967.7,991.1,981.1,980.4,986.4z"/>
			<path class="st17" d="M1069.1,904.7C1069.1,904.7,1069.1,904.7,1069.1,904.7c-0.3-0.2-0.6-0.4-0.9-0.6c-1.1-0.7-2.3-1.1-3.6-1.5
				c-4.6-1.2-10.3-0.4-16.5,2.7c-15.1,7.6-27.3,25.9-27.3,41c0,8,3.4,13.5,8.9,15.7l0,0c4.9,2,11.3,1.5,18.5-2.1
				c13.1-6.5,24-21.2,26.7-34.8c0.4-2.1,0.6-4.2,0.6-6.2C1075.4,912.4,1073,907.5,1069.1,904.7z M1048.1,952.9
				c-5.4,2.7-10.3,3-13.9,1.4c-3.9-1.7-6.3-5.7-6.3-11.5c0-11.2,9.1-24.7,20.2-30.3c4.5-2.2,8.6-2.8,11.9-2.1
				c5,1.2,8.3,5.5,8.3,12.2C1068.3,933.8,1059.2,947.3,1048.1,952.9z"/>
			<path class="st17" d="M993.2,958.3L993.2,958.3L993.2,958.3C993.2,958.3,993.2,958.3,993.2,958.3z"/>
			<path class="st17" d="M991.6,956.8L991.6,956.8L991.6,956.8c-0.7-0.5-1.8-0.6-3.1,0l-2.9,1.5v1.8l4.1-2.1
				c0.5-0.2,0.9-0.4,1.4-0.4c0.7-0.1,1.3,0.1,1.7,0.4l-0.8-0.8L991.6,956.8z"/>
			<path class="st17" d="M985.1,953.9L985.1,953.9L985.1,953.9C985.1,953.9,985.1,953.9,985.1,953.9z"/>
			<path class="st17" d="M983.6,952.4L983.6,952.4L983.6,952.4c-0.8-0.6-1.8-0.6-3.1,0c-2.2,1.1-4,3.9-4,6.2v4.3l-4.1,2.1
				c-2.2,1.1-4,3.9-4,6.2c0,0.8,0.2,1.4,0.6,1.8h0l0,0l0.3,0.3l0.8,0.8c-0.2-0.3-0.4-0.7-0.5-1.2c0-0.2-0.1-0.4-0.1-0.7
				c0-2.3,1.8-5.1,4-6.2l4.1-2.1v-4.3c0-2.3,1.8-5.1,4-6.2c0.5-0.2,1-0.4,1.4-0.4c0.7-0.1,1.3,0.1,1.8,0.5l-0.9-0.9L983.6,952.4z"/>
			<polygon class="st17" points="970.5,974.5 970.5,974.5 970.5,974.5 			"/>
			<polygon class="st17" points="978.6,978.9 978.6,978.9 978.6,978.9 			"/>
			<path class="st17" d="M1043.8,932.9L1043.8,932.9C1043.7,932.9,1043.8,932.9,1043.8,932.9L1043.8,932.9z"/>
			<path class="st17" d="M1042.7,931.9L1042.7,931.9L1042.7,931.9L1042.7,931.9c-0.9-0.8-2.1-0.9-3.5-0.2c-2.3,1.2-4.2,4-4.2,6.3
				c0,0.9,0.3,1.6,0.8,2l0,0l1,1c-0.3-0.3-0.5-0.6-0.6-1.1c-0.1-0.3-0.1-0.6-0.1-0.9c0-2.3,1.9-5.1,4.2-6.3c0.5-0.3,1-0.4,1.4-0.5
				c0.8-0.1,1.5,0.1,2,0.6L1042.7,931.9z"/>
			<path class="st17" d="M1037,941.2L1037,941.2c0-0.1-0.1-0.1-0.2-0.2L1037,941.2z"/>
			<path class="st17" d="M1052.4,937.3L1052.4,937.3L1052.4,937.3C1052.3,937.2,1052.4,937.2,1052.4,937.3z"/>
			<path class="st17" d="M1051.2,936.1L1051.2,936.1L1051.2,936.1c-0.8-0.7-2-0.8-3.4-0.1c-2.3,1.2-4.2,4-4.2,6.3
				c0,0.9,0.3,1.6,0.8,2l0,0l1,1c-0.3-0.3-0.5-0.6-0.6-1.1c-0.1-0.3-0.1-0.6-0.1-0.9c0-2.3,1.9-5.1,4.2-6.3c0.5-0.3,1-0.4,1.4-0.5
				c0.8-0.1,1.5,0.1,2,0.6L1051.2,936.1L1051.2,936.1z"/>
			<path class="st17" d="M1045.6,945.5L1045.6,945.5c0-0.1-0.1-0.1-0.2-0.2L1045.6,945.5z"/>
			<path class="st17" d="M1052.1,920.2L1052.1,920.2C1052.1,920.2,1052.1,920.2,1052.1,920.2L1052.1,920.2z"/>
			<path class="st17" d="M1044.2,927.3l1,1c-0.3-0.3-0.5-0.6-0.6-1.1c-0.1-0.3-0.1-0.6-0.1-0.9c0-2.3,1.9-5.1,4.2-6.3
				c0.5-0.3,1-0.4,1.4-0.5c0.8-0.1,1.5,0.1,2,0.6l-1-1l-0.1-0.1l0,0l0,0c-0.8-0.7-2-0.8-3.4-0.1c-2.3,1.2-4.2,4-4.2,6.3
				C1043.4,926.2,1043.7,926.9,1044.2,927.3L1044.2,927.3z"/>
			<path class="st17" d="M1045.3,928.5c-0.1-0.1-0.1-0.1-0.2-0.2L1045.3,928.5L1045.3,928.5z"/>
			<path class="st17" d="M1060.7,924.6L1060.7,924.6L1060.7,924.6C1060.7,924.6,1060.7,924.6,1060.7,924.6z"/>
			<path class="st17" d="M1059.6,923.4L1059.6,923.4L1059.6,923.4c-0.8-0.7-2-0.8-3.4-0.1c-2.3,1.2-4.2,4-4.2,6.3
				c0,0.9,0.3,1.6,0.8,2l0,0l1,1c-0.3-0.3-0.5-0.6-0.6-1.1c-0.1-0.3-0.1-0.6-0.1-0.9c0-2.3,1.9-5.1,4.2-6.3c0.5-0.3,1-0.4,1.4-0.5
				c0.8-0.1,1.5,0.1,2,0.6L1059.6,923.4L1059.6,923.4z"/>
			<path class="st17" d="M1053.9,932.8L1053.9,932.8c0-0.1-0.1-0.1-0.2-0.2L1053.9,932.8z"/>
		</g>
		<g>
			<polygon class="st14" points="949.2,1034.6 949.2,1034.6 949.2,1034.6 			"/>
			<path class="st14" d="M989.9,943.9c4.8,1.3,7.9,5.7,7.9,12.3c0,6.8-3.3,14.5-8.2,20.7c-3.1,3.9-7,7.2-11.1,9.2
				c-3.5,1.7-6.7,2.4-9.5,2.1c3.2,0.9,7.2,0.3,11.5-1.8c10.7-5.3,19.3-18.7,19.3-29.9C999.7,949,995.8,944.4,989.9,943.9z"/>
			<path class="st14" d="M1060,910.4c3.9,1.7,6.3,5.7,6.3,11.5c0,11.2-9.1,24.7-20.2,30.3c-4.5,2.2-8.6,2.8-11.9,2.1
				c3.6,1.6,8.5,1.3,13.9-1.4c11.2-5.6,20.2-19.2,20.2-30.3C1068.3,915.9,1065,911.6,1060,910.4z"/>
			<path class="st14" d="M1020.7,946.4c0-15.1,12.2-33.5,27.3-41c6.2-3.1,11.9-3.9,16.5-2.7c1.3,0.3,2.5,0.8,3.6,1.5l-9.3-6
				c-1.9-1.5-4.2-2.5-6.9-2.9c-0.7-0.1-1.5-0.1-2.2-0.2c-1.1,0-2.3,0.1-3.6,0.3c-2.5,0.4-5.1,1.3-7.8,2.7c-2.7,1.4-5.3,3.1-7.8,5.1
				c-1.2,1-2.4,2.1-3.6,3.2c-0.8,0.8-1.5,1.6-2.2,2.4c-1.7,1.9-3.2,3.9-4.6,6l-32.5,16.3c-1.4-0.7-2.9-1.2-4.6-1.4
				c-0.7-0.1-1.5-0.1-2.2-0.1c-1.1,0-2.3,0.1-3.6,0.3c-2.5,0.4-5.1,1.3-7.8,2.7c-2.7,1.4-5.3,3.1-7.8,5.1c-1.2,1-2.4,2.1-3.6,3.2
				c-0.8,0.8-1.5,1.6-2.2,2.4c-3.6,4.1-6.6,8.8-8.8,13.6c-0.4,1-0.8,1.9-1.2,2.9c-0.6,1.5-1,3-1.4,4.4c-0.2,0.6-0.3,1.3-0.4,1.9l0,0
				l0,0.1c-0.3,1.4-0.5,2.7-0.6,4.1l-6.9,47c-0.1,0.5-0.2,1-0.2,1.4l0,0.1h0c-0.1,0.6-0.1,1.1-0.1,1.6c0,3.1,1,5.6,2.6,7.1
				c0.5,0.4,1,0.8,1.6,1.1l7.4,5.1c-1.2-1-2.1-2.5-2.5-4.4c-0.2-0.9-0.3-1.8-0.3-2.9c0-0.5,0-1.1,0.1-1.6l0,0l0-0.1
				c0.1-0.5,0.1-1,0.2-1.4l6.9-47c-0.1,0.9-0.1,1.8-0.1,2.6c0,0.5,0,0.9,0,1.4c0.2,3.2,0.9,5.9,2,8.2c0.2,0.3,0.3,0.6,0.5,0.9
				c0.9,1.5,2.1,2.8,3.4,3.8c0.5,0.4,1.1,0.8,1.7,1.1c1.6,0.9,3.4,1.4,5.3,1.6c-6.7-1.6-11-7.6-11-16.8c0-15.1,11.7-33.2,26.2-40.4
				c4.8-2.4,9.3-3.3,13.2-2.9c-1.1-0.3-2.4-0.4-3.6-0.5c1.3,0,2.5,0.2,3.6,0.5c1.3,0.1,2.4,0.4,3.6,0.8l30-15
				c0.2-0.3,0.4-0.6,0.6-0.8c-1.9,2.7-3.6,5.6-5,8.6c-1.1,2.5-2.1,4.9-2.7,7.4c-0.8,3-1.2,5.9-1.2,8.7c0,2.8,0.4,5.3,1.2,7.5
				c0.3,0.7,0.6,1.4,0.9,2.1c0.3,0.6,0.7,1.3,1.2,1.8c1.3,1.7,2.9,3,4.7,3.9c0.3,0.2,0.6,0.3,0.9,0.4c0,0,0,0,0,0
				c0.6,0.2,1.2,0.4,1.9,0.6C1024.1,959.8,1020.7,954.4,1020.7,946.4z M953,972.3l0-0.1l0,0C953,972.2,953,972.2,953,972.3z
				 M1060.3,901.6c0.3,0,0.6,0.1,0.9,0.1C1060.9,901.6,1060.6,901.6,1060.3,901.6z M1063.3,902.2
				C1063.3,902.2,1063.3,902.2,1063.3,902.2C1063.3,902.2,1063.3,902.2,1063.3,902.2z"/>
			<path class="st14" d="M985.7,955.8c0-0.8-0.2-1.4-0.6-1.8c0,0,0,0-0.1-0.1c-0.1-0.1-0.1-0.2-0.2-0.2c-0.5-0.4-1.1-0.6-1.8-0.5
				c-0.4,0-0.9,0.2-1.4,0.4c-2.2,1.1-4,3.9-4,6.2v4.3l-4.1,2.1c-2.2,1.1-4,3.9-4,6.2c0,0.2,0,0.4,0.1,0.7c0.1,0.5,0.2,0.9,0.5,1.2
				c0.1,0.1,0.2,0.2,0.3,0.3c0,0,0.1,0,0.1,0.1l0,0c0.6,0.4,1.4,0.5,2.3,0.2c0.2-0.1,0.5-0.2,0.7-0.3l2.9-1.5l1.2-0.6v4.3
				c0,0.2,0,0.4,0.1,0.6c0.1,0.5,0.3,0.9,0.5,1.2c0.1,0.1,0.2,0.3,0.4,0.4c0,0,0,0,0,0c0.7,0.5,1.8,0.6,3,0c1.1-0.5,2.1-1.5,2.8-2.6
				c0.7-1.1,1.2-2.4,1.2-3.5v-4.3l4.1-2.1c2.2-1.1,4-3.9,4-6.2c0-0.8-0.2-1.4-0.6-1.8c0,0,0,0,0,0c-0.1-0.1-0.2-0.2-0.3-0.3
				c-0.4-0.3-1-0.5-1.7-0.4c-0.4,0-0.9,0.2-1.4,0.4l-4.1,2.1v-1.8V955.8z"/>
			<path class="st14" d="M1043.7,932.9C1043.7,932.9,1043.7,932.9,1043.7,932.9c-0.5-0.5-1.2-0.7-2-0.6c-0.4,0.1-0.9,0.2-1.4,0.5
				c-2.3,1.2-4.2,4-4.2,6.3c0,0.3,0,0.6,0.1,0.9c0.1,0.4,0.3,0.8,0.6,1.1c0,0,0,0,0,0c0.1,0.1,0.1,0.1,0.2,0.2
				c0.8,0.6,1.9,0.6,3.3-0.1c2.3-1.2,4.2-4,4.2-6.3C1044.4,934,1044.2,933.4,1043.7,932.9C1043.8,932.9,1043.7,932.9,1043.7,932.9z"
				/>
			<path class="st14" d="M1045.4,945.3C1045.4,945.3,1045.4,945.3,1045.4,945.3c0.1,0.1,0.1,0.1,0.2,0.2c0.8,0.6,1.9,0.6,3.3-0.1
				c2.3-1.2,4.2-4,4.2-6.3c0-0.8-0.2-1.5-0.7-1.9c0,0,0,0,0,0c0,0,0,0,0,0c-0.5-0.5-1.2-0.7-2-0.6c-0.4,0.1-0.9,0.2-1.4,0.5
				c-2.3,1.2-4.2,4-4.2,6.3c0,0.3,0,0.6,0.1,0.9C1044.9,944.7,1045.1,945,1045.4,945.3z"/>
			<path class="st14" d="M1045.1,928.3C1045.1,928.3,1045.1,928.3,1045.1,928.3c0.1,0.1,0.1,0.1,0.2,0.2c0.8,0.6,1.9,0.6,3.3-0.1
				c2.3-1.2,4.2-4,4.2-6.3c0-0.8-0.2-1.5-0.7-1.9c0,0,0,0,0,0c0,0,0,0,0,0c-0.5-0.5-1.2-0.7-2-0.6c-0.4,0.1-0.9,0.2-1.4,0.5
				c-2.3,1.2-4.2,4-4.2,6.3c0,0.3,0,0.6,0.1,0.9C1044.7,927.7,1044.9,928,1045.1,928.3z"/>
			<path class="st14" d="M1053.7,932.6C1053.7,932.6,1053.7,932.6,1053.7,932.6c0.1,0.1,0.1,0.1,0.2,0.2c0.8,0.6,1.9,0.6,3.3-0.1
				c2.3-1.2,4.2-4,4.2-6.3c0-0.8-0.2-1.5-0.7-1.9c0,0,0,0,0,0c0,0,0,0,0,0c-0.5-0.5-1.2-0.7-2-0.6c-0.4,0.1-0.9,0.2-1.4,0.5
				c-2.3,1.2-4.2,4-4.2,6.3c0,0.3,0,0.6,0.1,0.9C1053.3,932,1053.5,932.4,1053.7,932.6z"/>
		</g>
	</g>
	<g class="st0">
		<g>
			<g>
				<path class="st21" d="M406.8,1034.7c-3.5-1.9-6.7-1.8-8.7-0.2l0,0l-0.7,0.6l-1.9,1.8c1.5-1,3.5-1.3,5.8-0.7
					c0.9,0.2,1.8,0.5,2.7,1c6.1,3,11,10.5,11,16.5c0,1-0.1,1.9-0.4,2.7c-0.3,0.8-0.6,1.5-1.1,2.1l1.5-1.4l0.8-0.7h0
					c1-1.1,1.7-2.8,1.7-4.9C417.6,1045.4,412.8,1037.9,406.8,1034.7z"/>
				<path class="st21" d="M408.2,969.3c-20.9-11-40-12.4-53.9-5.8l-4.4,3.6c2.5-1.2,5.1-2.2,7.9-2.9c12.8-3.3,28.8-1.1,46.1,7.6
					c21.1,10.5,40.2,28.6,54,49.4l3-1.5C447.6,998.5,429.1,980.3,408.2,969.3z"/>
				<path class="st21" d="M407.8,989.5c-15.4-8.1-29.4-9.1-39.7-4.3l-3.9,3.3c4.1-2,8.8-3.1,14-3.2c7.7-0.1,16.5,2,25.8,6.6
					c15.5,7.8,29.6,21.1,39.7,36.3l3.1-1.6C436.9,1011.2,423.1,997.6,407.8,989.5z"/>
				<path class="st21" d="M407.3,1012.4c-9.1-4.8-17.4-5.4-23.5-2.5l-3.4,2.9c2.9-1.5,6.4-2.1,10.2-1.8c4.1,0.3,8.6,1.5,13.3,3.9
					c9.2,4.6,17.5,12.5,23.5,21.5l2.9-1.5C424.5,1025.7,416.4,1017.2,407.3,1012.4z"/>
				<path class="st21" d="M412.3,1059.5L412.3,1059.5C412.3,1059.5,412.3,1059.5,412.3,1059.5L412.3,1059.5z"/>
			</g>
		</g>
		<path class="st22" d="M414.6,1056.3c0.2-0.8,0.4-1.7,0.4-2.7c0-6.1-4.9-13.5-11-16.5c-0.9-0.5-1.8-0.8-2.7-1
			c-2.3-0.6-4.3-0.3-5.8,0.7c-0.4,0.3-0.7,0.6-1,0.9l0,0c-1,1.2-1.6,2.8-1.6,4.9c0,6.1,4.9,13.5,11,16.5c3.3,1.7,6.3,1.7,8.4,0.3
			c0,0,0,0,0,0c0.4-0.3,0.8-0.6,1.1-1C413.9,1057.9,414.3,1057.1,414.6,1056.3z"/>
		<path class="st22" d="M403.9,971.7c-17.3-8.7-33.3-10.9-46.1-7.6c-2.8,0.7-5.4,1.7-7.9,2.9l7.5,11.3c11.9-6,28.4-5.1,46.5,4
			c18.2,9.1,34.6,24.7,46.5,42.5l7.5-3.8c0,0,0,0,0,0C444.1,1000.3,425,982.3,403.9,971.7z"/>
		<path class="st22" d="M403.9,991.9c-9.3-4.6-18-6.8-25.8-6.6c-5.2,0.1-9.9,1.2-14,3.2l8.3,12.4c8.1-4,19.2-3.4,31.5,2.7
			c12.3,6.1,23.4,16.7,31.5,28.8l8.3-4.1c0,0,0,0,0,0C433.5,1013,419.4,999.7,403.9,991.9z"/>
		<path class="st22" d="M403.9,1014.8c-4.7-2.4-9.2-3.6-13.3-3.9c-3.8-0.2-7.3,0.4-10.2,1.8l8.1,12.1c4-2,9.4-1.7,15.5,1.3
			c6,3,11.5,8.2,15.5,14.1l8.1-4c0,0,0,0,0,0C421.4,1027.3,413.1,1019.4,403.9,1014.8z"/>
	</g>
	<g class="st0">
		<path class="st23" d="M961.5,529.7c13.7,6.9,13.7,18,0,24.8s-35.9,6.9-49.6,0c-13.7-6.9-13.7-18,0-24.8
			C925.6,522.8,947.8,522.8,961.5,529.7z"/>
		<path class="st24" d="M972.6,521l-71.8,2.7l9.4,68.9c0,3.4,2.6,6.8,7.8,9.4c10.3,5.2,27.1,5.2,37.5,0c5.2-2.6,7.8-6,7.8-9.4
			L972.6,521z"/>
		<path class="st25" d="M962.1,510c14,7,14,18.4,0,25.4c-14,7-36.7,7-50.8,0c-14-7-14-18.4,0-25.4C925.3,503,948.1,503,962.1,510z"
			/>
		<path class="st23" d="M959,506c12.3,6.2,12.3,16.1,0,22.3c-12.3,6.2-32.3,6.2-44.6,0c-12.3-6.2-12.3-16.1,0-22.3
			S946.7,499.8,959,506z"/>
		<path class="st25" d="M959,501.3c12.3,6.2,12.3,16.1,0,22.3c-12.3,6.2-32.3,6.2-44.6,0c-12.3-6.2-12.3-16.1,0-22.3
			C926.7,495.2,946.7,495.2,959,501.3z"/>
		<path class="st23" d="M957.4,514.9l-8.9,4.4c-1.9,0.9-4.9,0.9-6.8,0h0c-1.9-0.9-1.9-2.5,0-3.4l8.9-4.4c1.9-0.9,4.9-0.9,6.8,0l0,0
			C959.3,512.5,959.3,514,957.4,514.9z"/>
		<path class="st19" d="M934.8,541.4"/>
		<g>
			<path class="st25" d="M961.5,554.5c-13.7,6.9-35.9,6.9-49.6,0c-5.8-2.9-9.1-6.5-10-10.3l4.3,31.6c0,0.2,0,0.3,0.1,0.5l0,0l0,0
				c0.7,3.4,3.6,6.6,8.8,9.2c12,6,31.4,6,43.4,0c6-3,9-6.9,9-10.8l4.2-30.5C970.6,548,967.3,551.6,961.5,554.5z"/>
		</g>
	</g>
	<g class="st0">
		<path class="st24" d="M105.7,553.7c20.7-10.3,53.9-11.1,78.3,0.6l-3.1,10.7c-21.3-9.9-54.5-9.6-75.2,0.7
			c-7.5,3.8-12.4,8.3-14.5,13.2c0,0,0,0,0,0c-0.9-2-1.3-4-1.3-6C89.8,566,95.1,559,105.7,553.7z"/>
		<g>
			<path class="st24" d="M125.7,580.8c-1.7,2.3-0.6,5,3.1,6.9l14,7c1.2,0.6,2.6,1,4,1.4c4.8,1.1,10.7,0.6,14.7-1.4l54.3-27.3
				c4.3-2.2,5-5.4,2.1-8l8.4,4.2c5.1,2.6,9.3,8.9,9.3,14v6.5v0v-5.3c0-8.4-6.9-11.9-15.3-7.7L176,593.1c-8.4,4.2-15.3,14.5-15.3,23
				v10.4c0,8.3,6.7,11.8,15,7.8c-2.8,1.6-8.8,2.8-15.6,2.8c-4.9,0-9.2-0.6-12.4-1.5c4.1,1.1,7.2-1.1,7.2-5.5V614
				c0-5.1-4.2-11.4-9.3-14l-16.1-8c-5.1-2.6-9.3-0.5-9.3,4.7v-4.4C120.1,588.4,122.4,583.9,125.7,580.8z"/>
			<path class="st24" d="M146.8,635.3c-1.2-0.4-2.1-0.8-2.8-1.3l1.5,0.8C145.9,635,146.4,635.2,146.8,635.3z"/>
			<path class="st25" d="M175.7,634.3c0.1-0.1,0.2-0.1,0.3-0.1l44.2-21.9c8.4-4.2,15.3-14.5,15.3-23v-5.1v-5.3
				c0-8.4-6.9-11.9-15.3-7.7L176,593.1c-8.4,4.2-15.3,14.5-15.3,23v10.4C160.7,634.8,167.4,638.3,175.7,634.3z M219.2,605.1L177,626
				c-5.1,2.6-9.3,0.5-9.3-4.7v-7.1c0-5.1,4.2-11.4,9.3-14l42.2-20.9c5.1-2.6,9.3-0.5,9.3,4.7v7.1
				C228.5,596.3,224.3,602.6,219.2,605.1z"/>
			<path class="st23" d="M177,626l42.2-20.9c5.1-2.6,9.3-8.9,9.3-14V584c0-5.1-4.2-7.2-9.3-4.7L177,600.2c-5.1,2.6-9.3,8.9-9.3,14
				v7.1C167.7,626.5,171.9,628.6,177,626z M211.6,596.1l-31.5,15.8v-4.4l31.5-15.8V596.1z M221.2,591.4l-4.4,2.2v-4.4l4.4-2.2V591.4
				z"/>
			<path class="st25" d="M129.4,591.9l16.1,8c5.1,2.6,9.3,8.9,9.3,14v16.1c0,4.4-3.1,6.6-7.2,5.5c-0.3-0.1-0.6-0.2-0.9-0.3
				c-0.4-0.2-0.9-0.3-1.3-0.5L144,634l-14.6-7.3c-5.1-2.6-9.3-8.9-9.3-14v-14v-2.1C120.1,591.5,124.3,589.4,129.4,591.9z"/>
			<path class="st25" d="M210.8,558.9c-24,0.2-45.7,11.2-59.9,30.5c-1.7,2.3-3.1,4.5-4.1,6.7c-1.5-0.3-2.8-0.8-4-1.4l-14-7
				c-3.7-1.9-4.7-4.6-3.1-6.9c0.6-0.9,1.6-1.7,3.1-2.4l54.3-27.3c5.1-2.6,13.5-2.6,18.7,0l14,7c0.8,0.4,1.4,0.8,1.9,1.2
				C215.6,559,213.3,558.9,210.8,558.9z"/>
			<path class="st23" d="M215.8,567.4l-54.3,27.3c-3.9,2-9.8,2.4-14.7,1.4c1.1-2.2,2.4-4.4,4.1-6.7c14.2-19.3,35.9-30.3,59.9-30.5
				c2.5,0,4.7,0.1,6.9,0.4c0.1,0,0.1,0.1,0.2,0.1C220.7,562,220.1,565.3,215.8,567.4z"/>
			<polygon class="st25" points="216.8,589.2 221.2,587 221.2,591.4 216.8,593.6 			"/>
			<polygon class="st25" points="180.2,607.5 211.6,591.8 211.6,596.1 180.2,611.9 			"/>
		</g>
		<path class="st26" d="M91.2,579L91.2,579C91.2,578.9,91.2,578.9,91.2,579C91.2,579,91.2,579,91.2,579z"/>
		<path class="st23" d="M91.2,578.9L91.2,578.9C91.2,579,91.2,579,91.2,578.9c2.2,4.9,7,9.4,14.6,13.2c0.6,0.3,1.1,0.5,1.7,0.8v0
			l32.4,16.2v12.1L107.4,605c-0.6-0.3-1.1-0.5-1.7-0.8c-10.6-5.3-15.9-12.2-15.9-19.2v0v-12C89.8,574.9,90.3,577,91.2,578.9z"/>
		<path class="st23" d="M118.7,512.6c0.4-0.2,0.8-0.4,1.3-0.6l0,0l0,0c5.6-2.4,13-1.8,21.2,2.3c17.3,8.6,31.2,29.6,31.2,46.9
			c0,0.7,0,1.3-0.1,2v2.8l-9.1,4.4v-2.8c0-0.6,0.1-1.3,0.1-2c0-17.3-14-38.2-31.2-46.9c-6.2-3.1-12-4.2-16.9-3.5l-4.7,3.2l-0.5-1.6
			L118.7,512.6z"/>
		<path class="st24" d="M110,561.6l-9.1,3.9v-31.1c0-11,5.7-17.8,14.3-19.1c-3.3,3.3-5.3,8.3-5.3,14.7V561.6z"/>
	</g>
	<g class="st0">
		<g>
			<path class="st22" d="M598.4,249.3L598.4,249.3c19.3,9.6,50.6,9.6,69.9,0l49.2-24.6c19.3-9.6,19.3-31.2,0-40.9l0,0
				c-19.3-9.6-50.6-9.6-69.9,0l-49.2,24.6C579.1,218,579.1,239.6,598.4,249.3z"/>
		</g>
		<g>
			<g>
				<g>
					<path class="st27" d="M598.4,242.4L598.4,242.4c19.3,9.6,50.6,9.6,69.9,0l49.2-24.6c19.3-9.6,19.3-25.3,0-34.9l0,0
						c-19.3-9.6-50.6-9.6-69.9,0l-49.2,24.6C579.1,217.1,579.1,232.7,598.4,242.4z"/>
				</g>
			</g>
			<g>
				<g>
					<polygon class="st22" points="698.2,191.7 699.7,192.5 718.2,183.2 716.8,182.5 					"/>
				</g>
			</g>
			<g>
				<path class="st21" d="M666.9,208.1L666.9,208.1c2.5,1.3,6.7,1.3,9.3,0l22.8-11.4c2.5-1.3,2.5-3.4,0-4.6l0,0
					c-2.5-1.3-6.7-1.3-9.3,0l-22.8,11.4C664.3,204.8,664.3,206.9,666.9,208.1z"/>
			</g>
		</g>
	</g>
</g>
</svg>
