<?xml version="1.0" encoding="utf-8"?>
<!-- Generator: Adobe Illustrator 19.2.0, SVG Export Plug-In . SVG Version: 6.00 Build 0)  -->
<svg version="1.1" xmlns="http://www.w3.org/2000/svg" xmlns:xlink="http://www.w3.org/1999/xlink" x="0px" y="0px"
	 viewBox="0 0 1920 1080" style="enable-background:new 0 0 1920 1080;" xml:space="preserve">
<style type="text/css">
	.st0{clip-path:url(#SVGID_2_);}
	.st1{fill:#4D98D7;}
	.st2{fill:none;stroke:#4D98D7;stroke-width:2;stroke-linecap:round;stroke-linejoin:round;stroke-miterlimit:10;}
	.st3{clip-path:url(#SVGID_4_);}
	.st4{fill:#D6F2FF;}
	.st5{fill:#0050BB;}
	.st6{fill:#00CFFF;}
	.st7{fill:#D1CFCE;}
	.st8{fill:#393545;}
	.st9{fill:#686274;}
	.st10{fill:#FFFFFF;}
	.st11{fill:#BDC1CF;}
	.st12{fill:#EFEFF1;}
	.st13{fill:#1176C9;}
	.st14{fill:#C8102E;}
	.st15{fill:#E58D9B;}
	.st16{fill:#960C23;}
	.st17{fill:#D5EBF7;}
	.st18{fill:#00205B;}
	.st19{fill:#BFA400;}
	.st20{fill:#FEDB00;}
	.st21{fill:none;}
	.st22{fill:#FFF199;}
</style>
<g id="line">
	<g>
		<defs>
			<rect id="SVGID_1_" width="1920" height="1079.4"/>
		</defs>
		<clipPath id="SVGID_2_">
			<use xlink:href="#SVGID_1_"  style="overflow:visible;"/>
		</clipPath>
		<g class="st0">
			<g>
				<path class="st1" d="M1600.7,798.5c-0.5,0-1.1-0.3-1.3-0.8c-0.4-0.7-0.1-1.6,0.7-2l0.7-0.3c0.7-0.4,1.6-0.1,2,0.7
					c0.4,0.7,0.1,1.6-0.7,2l-0.7,0.3C1601.1,798.5,1600.9,798.5,1600.7,798.5z"/>
			</g>
			<g>
				<path class="st1" d="M692.1,1257.9c-0.5,0-1.1-0.3-1.3-0.8c-0.4-0.7-0.1-1.6,0.7-2l1.3-0.7c0.7-0.4,1.6-0.1,2,0.7
					c0.4,0.7,0.1,1.6-0.7,2l-1.3,0.7C692.6,1257.8,692.4,1257.9,692.1,1257.9z M709.6,1249c-0.5,0-1.1-0.3-1.3-0.8
					c-0.4-0.7-0.1-1.6,0.7-2l1.3-0.7c0.7-0.4,1.6-0.1,2,0.7c0.4,0.7,0.1,1.6-0.7,2l-1.3,0.7C710.1,1249,709.8,1249,709.6,1249z
					 M727.1,1240.2c-0.5,0-1.1-0.3-1.3-0.8c-0.4-0.7-0.1-1.6,0.7-2l1.3-0.7c0.7-0.4,1.6-0.1,2,0.7c0.4,0.7,0.1,1.6-0.7,2l-1.3,0.7
					C727.5,1240.1,727.3,1240.2,727.1,1240.2z M744.5,1231.4c-0.5,0-1.1-0.3-1.3-0.8c-0.4-0.7-0.1-1.6,0.7-2l1.3-0.7
					c0.7-0.4,1.6-0.1,2,0.7c0.4,0.7,0.1,1.6-0.7,2l-1.3,0.7C745,1231.3,744.8,1231.4,744.5,1231.4z M762,1222.5
					c-0.5,0-1.1-0.3-1.3-0.8c-0.4-0.7-0.1-1.6,0.7-2l1.3-0.7c0.7-0.4,1.6-0.1,2,0.7c0.4,0.7,0.1,1.6-0.7,2l-1.3,0.7
					C762.5,1222.5,762.2,1222.5,762,1222.5z M779.5,1213.7c-0.5,0-1.1-0.3-1.3-0.8c-0.4-0.7-0.1-1.6,0.7-2l1.3-0.7
					c0.7-0.4,1.6-0.1,2,0.7c0.4,0.7,0.1,1.6-0.7,2l-1.3,0.7C779.9,1213.6,779.7,1213.7,779.5,1213.7z M797,1204.9
					c-0.5,0-1.1-0.3-1.3-0.8c-0.4-0.7-0.1-1.6,0.7-2l1.3-0.7c0.7-0.4,1.6-0.1,2,0.7c0.4,0.7,0.1,1.6-0.7,2l-1.3,0.7
					C797.4,1204.8,797.2,1204.9,797,1204.9z M814.4,1196c-0.5,0-1.1-0.3-1.3-0.8c-0.4-0.7-0.1-1.6,0.7-2l1.3-0.7
					c0.7-0.4,1.6-0.1,2,0.7c0.4,0.7,0.1,1.6-0.7,2l-1.3,0.7C814.9,1196,814.7,1196,814.4,1196z M831.9,1187.2
					c-0.5,0-1.1-0.3-1.3-0.8c-0.4-0.7-0.1-1.6,0.7-2l1.3-0.7c0.7-0.4,1.6-0.1,2,0.7c0.4,0.7,0.1,1.6-0.7,2l-1.3,0.7
					C832.4,1187.1,832.1,1187.2,831.9,1187.2z M849.4,1178.4c-0.5,0-1.1-0.3-1.3-0.8c-0.4-0.7-0.1-1.6,0.7-2l1.3-0.7
					c0.7-0.4,1.6-0.1,2,0.7c0.4,0.7,0.1,1.6-0.7,2l-1.3,0.7C849.8,1178.3,849.6,1178.4,849.4,1178.4z M866.8,1169.5
					c-0.5,0-1.1-0.3-1.3-0.8c-0.4-0.7-0.1-1.6,0.7-2l1.3-0.7c0.7-0.4,1.6-0.1,2,0.7c0.4,0.7,0.1,1.6-0.7,2l-1.3,0.7
					C867.3,1169.5,867.1,1169.5,866.8,1169.5z M884.3,1160.7c-0.5,0-1.1-0.3-1.3-0.8c-0.4-0.7-0.1-1.6,0.7-2l1.3-0.7
					c0.7-0.4,1.6-0.1,2,0.7c0.4,0.7,0.1,1.6-0.7,2l-1.3,0.7C884.8,1160.6,884.5,1160.7,884.3,1160.7z M901.8,1151.9
					c-0.5,0-1.1-0.3-1.3-0.8c-0.4-0.7-0.1-1.6,0.7-2l1.3-0.7c0.7-0.4,1.6-0.1,2,0.7c0.4,0.7,0.1,1.6-0.7,2l-1.3,0.7
					C902.2,1151.8,902,1151.9,901.8,1151.9z M919.3,1143c-0.5,0-1.1-0.3-1.3-0.8c-0.4-0.7-0.1-1.6,0.7-2l1.3-0.7
					c0.7-0.4,1.6-0.1,2,0.7c0.4,0.7,0.1,1.6-0.7,2l-1.3,0.7C919.7,1143,919.5,1143,919.3,1143z M936.7,1134.2
					c-0.5,0-1.1-0.3-1.3-0.8c-0.4-0.7-0.1-1.6,0.7-2l1.3-0.7c0.7-0.4,1.6-0.1,2,0.7c0.4,0.7,0.1,1.6-0.7,2l-1.3,0.7
					C937.2,1134.1,937,1134.2,936.7,1134.2z M954.2,1125.4c-0.5,0-1.1-0.3-1.3-0.8c-0.4-0.7-0.1-1.6,0.7-2l1.3-0.7
					c0.7-0.4,1.6-0.1,2,0.7c0.4,0.7,0.1,1.6-0.7,2l-1.3,0.7C954.7,1125.3,954.4,1125.4,954.2,1125.4z M971.7,1116.5
					c-0.5,0-1.1-0.3-1.3-0.8c-0.4-0.7-0.1-1.6,0.7-2l1.3-0.7c0.7-0.4,1.6-0.1,2,0.7c0.4,0.7,0.1,1.6-0.7,2l-1.3,0.7
					C972.1,1116.5,971.9,1116.5,971.7,1116.5z M989.1,1107.7c-0.5,0-1.1-0.3-1.3-0.8c-0.4-0.7-0.1-1.6,0.7-2l1.3-0.7
					c0.7-0.4,1.6-0.1,2,0.7c0.4,0.7,0.1,1.6-0.7,2l-1.3,0.7C989.6,1107.6,989.4,1107.7,989.1,1107.7z M1006.6,1098.9
					c-0.5,0-1.1-0.3-1.3-0.8c-0.4-0.7-0.1-1.6,0.7-2l1.3-0.7c0.7-0.4,1.6-0.1,2,0.7c0.4,0.7,0.1,1.6-0.7,2l-1.3,0.7
					C1007.1,1098.8,1006.8,1098.9,1006.6,1098.9z M1024.1,1090c-0.5,0-1.1-0.3-1.3-0.8c-0.4-0.7-0.1-1.6,0.7-2l1.3-0.7
					c0.7-0.4,1.6-0.1,2,0.7c0.4,0.7,0.1,1.6-0.7,2l-1.3,0.7C1024.5,1090,1024.3,1090,1024.1,1090z M1041.6,1081.2
					c-0.5,0-1.1-0.3-1.3-0.8c-0.4-0.7-0.1-1.6,0.7-2l1.3-0.7c0.7-0.4,1.6-0.1,2,0.7c0.4,0.7,0.1,1.6-0.7,2l-1.3,0.7
					C1042,1081.1,1041.8,1081.2,1041.6,1081.2z M1059,1072.4c-0.5,0-1.1-0.3-1.3-0.8c-0.4-0.7-0.1-1.6,0.7-2l1.3-0.7
					c0.7-0.4,1.6-0.1,2,0.7c0.4,0.7,0.1,1.6-0.7,2l-1.3,0.7C1059.5,1072.3,1059.3,1072.4,1059,1072.4z M1076.5,1063.5
					c-0.5,0-1.1-0.3-1.3-0.8c-0.4-0.7-0.1-1.6,0.7-2l1.3-0.7c0.7-0.4,1.6-0.1,2,0.7c0.4,0.7,0.1,1.6-0.7,2l-1.3,0.7
					C1077,1063.5,1076.7,1063.5,1076.5,1063.5z M1094,1054.7c-0.5,0-1.1-0.3-1.3-0.8c-0.4-0.7-0.1-1.6,0.7-2l1.3-0.7
					c0.7-0.4,1.6-0.1,2,0.7c0.4,0.7,0.1,1.6-0.7,2l-1.3,0.7C1094.4,1054.6,1094.2,1054.7,1094,1054.7z M1111.4,1045.9
					c-0.5,0-1.1-0.3-1.3-0.8c-0.4-0.7-0.1-1.6,0.7-2l1.3-0.7c0.7-0.4,1.6-0.1,2,0.7c0.4,0.7,0.1,1.6-0.7,2l-1.3,0.7
					C1111.9,1045.8,1111.7,1045.9,1111.4,1045.9z M1128.9,1037c-0.5,0-1.1-0.3-1.3-0.8c-0.4-0.7-0.1-1.6,0.7-2l1.3-0.7
					c0.7-0.4,1.6-0.1,2,0.7c0.4,0.7,0.1,1.6-0.7,2l-1.3,0.7C1129.4,1037,1129.1,1037,1128.9,1037z M1146.4,1028.2
					c-0.5,0-1.1-0.3-1.3-0.8c-0.4-0.7-0.1-1.6,0.7-2l1.3-0.7c0.7-0.4,1.6-0.1,2,0.7c0.4,0.7,0.1,1.6-0.7,2l-1.3,0.7
					C1146.9,1028.1,1146.6,1028.2,1146.4,1028.2z M1163.9,1019.4c-0.5,0-1.1-0.3-1.3-0.8c-0.4-0.7-0.1-1.6,0.7-2l1.3-0.7
					c0.7-0.4,1.6-0.1,2,0.7c0.4,0.7,0.1,1.6-0.7,2l-1.3,0.7C1164.3,1019.3,1164.1,1019.4,1163.9,1019.4z M1181.3,1010.5
					c-0.5,0-1.1-0.3-1.3-0.8c-0.4-0.7-0.1-1.6,0.7-2l1.3-0.7c0.7-0.4,1.6-0.1,2,0.7c0.4,0.7,0.1,1.6-0.7,2l-1.3,0.7
					C1181.8,1010.5,1181.6,1010.5,1181.3,1010.5z M1198.8,1001.7c-0.5,0-1.1-0.3-1.3-0.8c-0.4-0.7-0.1-1.6,0.7-2l1.3-0.7
					c0.7-0.4,1.6-0.1,2,0.7c0.4,0.7,0.1,1.6-0.7,2l-1.3,0.7C1199.3,1001.6,1199,1001.7,1198.8,1001.7z M1216.3,992.9
					c-0.5,0-1.1-0.3-1.3-0.8c-0.4-0.7-0.1-1.6,0.7-2l1.3-0.7c0.7-0.4,1.6-0.1,2,0.7c0.4,0.7,0.1,1.6-0.7,2l-1.3,0.7
					C1216.7,992.8,1216.5,992.9,1216.3,992.9z M1233.8,984c-0.5,0-1.1-0.3-1.3-0.8c-0.4-0.7-0.1-1.6,0.7-2l1.3-0.7
					c0.7-0.4,1.6-0.1,2,0.7c0.4,0.7,0.1,1.6-0.7,2l-1.3,0.7C1234.2,984,1234,984,1233.8,984z M1251.2,975.2c-0.5,0-1.1-0.3-1.3-0.8
					c-0.4-0.7-0.1-1.6,0.7-2l1.3-0.7c0.7-0.4,1.6-0.1,2,0.7c0.4,0.7,0.1,1.6-0.7,2l-1.3,0.7C1251.7,975.1,1251.5,975.2,1251.2,975.2
					z M1268.7,966.4c-0.5,0-1.1-0.3-1.3-0.8c-0.4-0.7-0.1-1.6,0.7-2l1.3-0.7c0.7-0.4,1.6-0.1,2,0.7c0.4,0.7,0.1,1.6-0.7,2l-1.3,0.7
					C1269.2,966.3,1268.9,966.4,1268.7,966.4z M1286.2,957.5c-0.5,0-1.1-0.3-1.3-0.8c-0.4-0.7-0.1-1.6,0.7-2l1.3-0.7
					c0.7-0.4,1.6-0.1,2,0.7c0.4,0.7,0.1,1.6-0.7,2l-1.3,0.7C1286.6,957.5,1286.4,957.5,1286.2,957.5z M1303.6,948.7
					c-0.5,0-1.1-0.3-1.3-0.8c-0.4-0.7-0.1-1.6,0.7-2l1.3-0.7c0.7-0.4,1.6-0.1,2,0.7c0.4,0.7,0.1,1.6-0.7,2l-1.3,0.7
					C1304.1,948.6,1303.9,948.7,1303.6,948.7z M1321.1,939.9c-0.5,0-1.1-0.3-1.3-0.8c-0.4-0.7-0.1-1.6,0.7-2l1.3-0.7
					c0.7-0.4,1.6-0.1,2,0.7c0.4,0.7,0.1,1.6-0.7,2l-1.3,0.7C1321.6,939.8,1321.3,939.9,1321.1,939.9z M1338.6,931
					c-0.5,0-1.1-0.3-1.3-0.8c-0.4-0.7-0.1-1.6,0.7-2l1.3-0.7c0.7-0.4,1.6-0.1,2,0.7c0.4,0.7,0.1,1.6-0.7,2l-1.3,0.7
					C1339,931,1338.8,931,1338.6,931z M1356.1,922.2c-0.5,0-1.1-0.3-1.3-0.8c-0.4-0.7-0.1-1.6,0.7-2l1.3-0.7c0.7-0.4,1.6-0.1,2,0.7
					c0.4,0.7,0.1,1.6-0.7,2l-1.3,0.7C1356.5,922.1,1356.3,922.2,1356.1,922.2z M1373.5,913.4c-0.5,0-1.1-0.3-1.3-0.8
					c-0.4-0.7-0.1-1.6,0.7-2l1.3-0.7c0.7-0.4,1.6-0.1,2,0.7c0.4,0.7,0.1,1.6-0.7,2l-1.3,0.7C1374,913.3,1373.8,913.4,1373.5,913.4z
					 M1391,904.5c-0.5,0-1.1-0.3-1.3-0.8c-0.4-0.7-0.1-1.6,0.7-2l1.3-0.7c0.7-0.4,1.6-0.1,2,0.7c0.4,0.7,0.1,1.6-0.7,2l-1.3,0.7
					C1391.5,904.5,1391.2,904.5,1391,904.5z M1408.5,895.7c-0.5,0-1.1-0.3-1.3-0.8c-0.4-0.7-0.1-1.6,0.7-2l1.3-0.7
					c0.7-0.4,1.6-0.1,2,0.7c0.4,0.7,0.1,1.6-0.7,2l-1.3,0.7C1408.9,895.6,1408.7,895.7,1408.5,895.7z M1425.9,886.9
					c-0.5,0-1.1-0.3-1.3-0.8c-0.4-0.7-0.1-1.6,0.7-2l1.3-0.7c0.7-0.4,1.6-0.1,2,0.7c0.4,0.7,0.1,1.6-0.7,2l-1.3,0.7
					C1426.4,886.8,1426.2,886.9,1425.9,886.9z M1443.4,878c-0.5,0-1.1-0.3-1.3-0.8c-0.4-0.7-0.1-1.6,0.7-2l1.3-0.7
					c0.7-0.4,1.6-0.1,2,0.7c0.4,0.7,0.1,1.6-0.7,2l-1.3,0.7C1443.9,878,1443.6,878,1443.4,878z M1460.9,869.2
					c-0.5,0-1.1-0.3-1.3-0.8c-0.4-0.7-0.1-1.6,0.7-2l1.3-0.7c0.7-0.4,1.6-0.1,2,0.7c0.4,0.7,0.1,1.6-0.7,2l-1.3,0.7
					C1461.3,869.1,1461.1,869.2,1460.9,869.2z M1478.4,860.4c-0.5,0-1.1-0.3-1.3-0.8c-0.4-0.7-0.1-1.6,0.7-2l1.3-0.7
					c0.7-0.4,1.6-0.1,2,0.7c0.4,0.7,0.1,1.6-0.7,2l-1.3,0.7C1478.8,860.3,1478.6,860.4,1478.4,860.4z M1495.8,851.5
					c-0.5,0-1.1-0.3-1.3-0.8c-0.4-0.7-0.1-1.6,0.7-2l1.3-0.7c0.7-0.4,1.6-0.1,2,0.7c0.4,0.7,0.1,1.6-0.7,2l-1.3,0.7
					C1496.3,851.5,1496.1,851.5,1495.8,851.5z M1513.3,842.7c-0.5,0-1.1-0.3-1.3-0.8c-0.4-0.7-0.1-1.6,0.7-2l1.3-0.7
					c0.7-0.4,1.6-0.1,2,0.7c0.4,0.7,0.1,1.6-0.7,2l-1.3,0.7C1513.8,842.6,1513.5,842.7,1513.3,842.7z M1530.8,833.9
					c-0.5,0-1.1-0.3-1.3-0.8c-0.4-0.7-0.1-1.6,0.7-2l1.3-0.7c0.7-0.4,1.6-0.1,2,0.7c0.4,0.7,0.1,1.6-0.7,2l-1.3,0.7
					C1531.2,833.8,1531,833.9,1530.8,833.9z M1548.2,825c-0.5,0-1.1-0.3-1.3-0.8c-0.4-0.7-0.1-1.6,0.7-2l1.3-0.7
					c0.7-0.4,1.6-0.1,2,0.7c0.4,0.7,0.1,1.6-0.7,2l-1.3,0.7C1548.7,825,1548.5,825,1548.2,825z M1565.7,816.2
					c-0.5,0-1.1-0.3-1.3-0.8c-0.4-0.7-0.1-1.6,0.7-2l1.3-0.7c0.7-0.4,1.6-0.1,2,0.7c0.4,0.7,0.1,1.6-0.7,2l-1.3,0.7
					C1566.2,816.1,1565.9,816.2,1565.7,816.2z M1583.2,807.4c-0.5,0-1.1-0.3-1.3-0.8c-0.4-0.7-0.1-1.6,0.7-2l1.3-0.7
					c0.7-0.4,1.6-0.1,2,0.7c0.4,0.7,0.1,1.6-0.7,2l-1.3,0.7C1583.7,807.3,1583.4,807.4,1583.2,807.4z"/>
			</g>
			<g>
				<path class="st1" d="M675.3,1266.3c-0.5,0-1.1-0.3-1.3-0.8c-0.4-0.7-0.1-1.6,0.7-2l0.7-0.3c0.7-0.4,1.6-0.1,2,0.7
					c0.4,0.7,0.1,1.6-0.7,2l-0.7,0.3C675.8,1266.3,675.6,1266.3,675.3,1266.3z"/>
			</g>
		</g>
		<g class="st0">
			<path class="st1" d="M1601.3,797c-0.8,0-1.5-0.7-1.5-1.5v-39.3c0-0.8,0.7-1.5,1.5-1.5c0.8,0,1.5,0.7,1.5,1.5v39.3
				C1602.8,796.4,1602.1,797,1601.3,797z"/>
		</g>
		<g class="st0">
			<path class="st1" d="M113.2,526.6c-0.8,0-1.5-0.7-1.5-1.5v-1.5c0-0.8,0.7-1.5,1.5-1.5c0.8,0,1.5,0.7,1.5,1.5v1.5
				C114.7,525.9,114,526.6,113.2,526.6z M113.2,507.1c-0.8,0-1.5-0.7-1.5-1.5v-1.5c0-0.8,0.7-1.5,1.5-1.5c0.8,0,1.5,0.7,1.5,1.5v1.5
				C114.7,506.4,114,507.1,113.2,507.1z M113.2,487.6c-0.8,0-1.5-0.7-1.5-1.5v-1.5c0-0.8,0.7-1.5,1.5-1.5c0.8,0,1.5,0.7,1.5,1.5v1.5
				C114.7,486.9,114,487.6,113.2,487.6z M113.2,468.1c-0.8,0-1.5-0.7-1.5-1.5v-1.5c0-0.8,0.7-1.5,1.5-1.5c0.8,0,1.5,0.7,1.5,1.5v1.5
				C114.7,467.5,114,468.1,113.2,468.1z"/>
		</g>
		<g class="st0">
			<path class="st1" d="M938.7,969.5c-0.8,0-1.5-0.7-1.5-1.5v-1.5c0-0.8,0.7-1.5,1.5-1.5c0.8,0,1.5,0.7,1.5,1.5v1.5
				C940.2,968.8,939.6,969.5,938.7,969.5z M938.7,950c-0.8,0-1.5-0.7-1.5-1.5V947c0-0.8,0.7-1.5,1.5-1.5c0.8,0,1.5,0.7,1.5,1.5v1.5
				C940.2,949.3,939.6,950,938.7,950z M938.7,930.5c-0.8,0-1.5-0.7-1.5-1.5v-1.5c0-0.8,0.7-1.5,1.5-1.5c0.8,0,1.5,0.7,1.5,1.5v1.5
				C940.2,929.8,939.6,930.5,938.7,930.5z"/>
		</g>
		<g class="st0">
			<g>
				<path class="st1" d="M1804.7,447.4c-0.5,0-1.1-0.3-1.3-0.8c-0.4-0.7-0.1-1.6,0.7-2l0.7-0.3c0.7-0.4,1.6-0.1,2,0.7
					c0.4,0.7,0.1,1.6-0.7,2l-0.7,0.3C1805.2,447.4,1805,447.4,1804.7,447.4z"/>
			</g>
			<g>
				<path class="st1" d="M1618.3,543.1c-0.5,0-1.1-0.3-1.3-0.8c-0.4-0.7-0.1-1.6,0.6-2l1.3-0.7c0.7-0.4,1.6-0.1,2,0.6
					c0.4,0.7,0.1,1.6-0.6,2l-1.3,0.7C1618.8,543,1618.5,543.1,1618.3,543.1z M1635.3,534.4c-0.5,0-1.1-0.3-1.3-0.8
					c-0.4-0.7-0.1-1.6,0.6-2l1.3-0.7c0.7-0.4,1.6-0.1,2,0.6c0.4,0.7,0.1,1.6-0.6,2l-1.3,0.7C1635.7,534.3,1635.5,534.4,1635.3,534.4
					z M1652.2,525.7c-0.5,0-1.1-0.3-1.3-0.8c-0.4-0.7-0.1-1.6,0.6-2l1.3-0.7c0.7-0.4,1.6-0.1,2,0.6c0.4,0.7,0.1,1.6-0.6,2l-1.3,0.7
					C1652.7,525.6,1652.4,525.7,1652.2,525.7z M1669.2,517c-0.5,0-1.1-0.3-1.3-0.8c-0.4-0.7-0.1-1.6,0.6-2l1.3-0.7
					c0.7-0.4,1.6-0.1,2,0.6c0.4,0.7,0.1,1.6-0.6,2l-1.3,0.7C1669.6,516.9,1669.4,517,1669.2,517z M1686.1,508.3
					c-0.5,0-1.1-0.3-1.3-0.8c-0.4-0.7-0.1-1.6,0.6-2l1.3-0.7c0.7-0.4,1.6-0.1,2,0.6c0.4,0.7,0.1,1.6-0.6,2l-1.3,0.7
					C1686.6,508.2,1686.3,508.3,1686.1,508.3z M1703.1,499.6c-0.5,0-1.1-0.3-1.3-0.8c-0.4-0.7-0.1-1.6,0.6-2l1.3-0.7
					c0.7-0.4,1.6-0.1,2,0.6c0.4,0.7,0.1,1.6-0.6,2l-1.3,0.7C1703.5,499.5,1703.3,499.6,1703.1,499.6z M1720,490.9
					c-0.5,0-1.1-0.3-1.3-0.8c-0.4-0.7-0.1-1.6,0.6-2l1.3-0.7c0.7-0.4,1.6-0.1,2,0.6c0.4,0.7,0.1,1.6-0.6,2l-1.3,0.7
					C1720.5,490.9,1720.2,490.9,1720,490.9z M1736.9,482.2c-0.5,0-1.1-0.3-1.3-0.8c-0.4-0.7-0.1-1.6,0.6-2l1.3-0.7
					c0.7-0.4,1.6-0.1,2,0.6c0.4,0.7,0.1,1.6-0.6,2l-1.3,0.7C1737.4,482.2,1737.2,482.2,1736.9,482.2z M1753.9,473.5
					c-0.5,0-1.1-0.3-1.3-0.8c-0.4-0.7-0.1-1.6,0.6-2l1.3-0.7c0.7-0.4,1.6-0.1,2,0.6c0.4,0.7,0.1,1.6-0.6,2l-1.3,0.7
					C1754.4,473.5,1754.1,473.5,1753.9,473.5z M1770.8,464.8c-0.5,0-1.1-0.3-1.3-0.8c-0.4-0.7-0.1-1.6,0.6-2l1.3-0.7
					c0.7-0.4,1.6-0.1,2,0.6c0.4,0.7,0.1,1.6-0.6,2l-1.3,0.7C1771.3,464.8,1771.1,464.8,1770.8,464.8z M1787.8,456.1
					c-0.5,0-1.1-0.3-1.3-0.8c-0.4-0.7-0.1-1.6,0.6-2l1.3-0.7c0.7-0.4,1.6-0.1,2,0.6c0.4,0.7,0.1,1.6-0.6,2l-1.3,0.7
					C1788.2,456.1,1788,456.1,1787.8,456.1z"/>
			</g>
			<g>
				<path class="st1" d="M1602,552.2c-0.8,0-1.5-0.7-1.5-1.5V550c0-0.6,0.3-1.1,0.8-1.3l0.7-0.3c0.7-0.4,1.6-0.1,2,0.6
					c0.4,0.7,0.1,1.5-0.5,1.9C1603.4,551.6,1602.8,552.2,1602,552.2z"/>
			</g>
			<g>
				<path class="st1" d="M1602,590.3c-0.8,0-1.5-0.7-1.5-1.5v-1.5c0-0.8,0.7-1.5,1.5-1.5s1.5,0.7,1.5,1.5v1.5
					C1603.5,589.7,1602.8,590.3,1602,590.3z M1602,571.3c-0.8,0-1.5-0.7-1.5-1.5v-1.5c0-0.8,0.7-1.5,1.5-1.5s1.5,0.7,1.5,1.5v1.5
					C1603.5,570.6,1602.8,571.3,1602,571.3z"/>
			</g>
			<g>
				<path class="st1" d="M1602,608.7c-0.8,0-1.5-0.7-1.5-1.5v-0.7c0-0.8,0.7-1.5,1.5-1.5s1.5,0.7,1.5,1.5v0.7
					C1603.5,608,1602.8,608.7,1602,608.7z"/>
			</g>
		</g>
		<g class="st0">
			<g>
				<path class="st1" d="M302.9,354.8c-0.5,0-1.1-0.3-1.3-0.8c-0.4-0.7-0.1-1.6,0.7-2l0.7-0.3c0.7-0.4,1.6-0.1,2,0.7
					c0.4,0.7,0.1,1.6-0.7,2l-0.7,0.3C303.4,354.8,303.1,354.8,302.9,354.8z"/>
			</g>
			<g>
				<path class="st1" d="M6.6,504.7c-0.5,0-1.1-0.3-1.3-0.8c-0.4-0.7-0.1-1.6,0.7-2l1.3-0.7c0.7-0.4,1.6-0.1,2,0.7
					c0.4,0.7,0.1,1.6-0.7,2l-1.3,0.7C7,504.6,6.8,504.7,6.6,504.7z M24,495.9c-0.5,0-1.1-0.3-1.3-0.8c-0.4-0.7-0.1-1.6,0.7-2
					l1.3-0.7c0.7-0.4,1.6-0.1,2,0.7c0.4,0.7,0.1,1.6-0.7,2l-1.3,0.7C24.5,495.8,24.2,495.9,24,495.9z M41.4,487
					c-0.5,0-1.1-0.3-1.3-0.8c-0.4-0.7-0.1-1.6,0.7-2l1.3-0.7c0.7-0.4,1.6-0.1,2,0.7c0.4,0.7,0.1,1.6-0.7,2l-1.3,0.7
					C41.9,487,41.7,487,41.4,487z M58.9,478.2c-0.5,0-1.1-0.3-1.3-0.8c-0.4-0.7-0.1-1.6,0.7-2l1.3-0.7c0.7-0.4,1.6-0.1,2,0.7
					c0.4,0.7,0.1,1.6-0.7,2l-1.3,0.7C59.3,478.2,59.1,478.2,58.9,478.2z M76.3,469.4c-0.5,0-1.1-0.3-1.3-0.8c-0.4-0.7-0.1-1.6,0.7-2
					l1.3-0.7c0.7-0.4,1.6-0.1,2,0.7c0.4,0.7,0.1,1.6-0.7,2l-1.3,0.7C76.8,469.4,76.5,469.4,76.3,469.4z M93.7,460.6
					c-0.5,0-1.1-0.3-1.3-0.8c-0.4-0.7-0.1-1.6,0.7-2l1.3-0.7c0.7-0.4,1.6-0.1,2,0.7c0.4,0.7,0.1,1.6-0.7,2l-1.3,0.7
					C94.2,460.5,94,460.6,93.7,460.6z M111.2,451.8c-0.5,0-1.1-0.3-1.3-0.8c-0.4-0.7-0.1-1.6,0.7-2l1.3-0.7c0.7-0.4,1.6-0.1,2,0.7
					c0.4,0.7,0.1,1.6-0.7,2l-1.3,0.7C111.6,451.7,111.4,451.8,111.2,451.8z M128.6,443c-0.5,0-1.1-0.3-1.3-0.8
					c-0.4-0.7-0.1-1.6,0.7-2l1.3-0.7c0.7-0.4,1.6-0.1,2,0.7c0.4,0.7,0.1,1.6-0.7,2l-1.3,0.7C129.1,442.9,128.8,443,128.6,443z
					 M146,434.2c-0.5,0-1.1-0.3-1.3-0.8c-0.4-0.7-0.1-1.6,0.7-2l1.3-0.7c0.7-0.4,1.6-0.1,2,0.7c0.4,0.7,0.1,1.6-0.7,2l-1.3,0.7
					C146.5,434.1,146.3,434.2,146,434.2z M163.5,425.3c-0.5,0-1.1-0.3-1.3-0.8c-0.4-0.7-0.1-1.6,0.7-2l1.3-0.7
					c0.7-0.4,1.6-0.1,2,0.7c0.4,0.7,0.1,1.6-0.7,2l-1.3,0.7C163.9,425.3,163.7,425.3,163.5,425.3z M180.9,416.5
					c-0.5,0-1.1-0.3-1.3-0.8c-0.4-0.7-0.1-1.6,0.7-2l1.3-0.7c0.7-0.4,1.6-0.1,2,0.7c0.4,0.7,0.1,1.6-0.7,2l-1.3,0.7
					C181.3,416.5,181.1,416.5,180.9,416.5z M198.3,407.7c-0.5,0-1.1-0.3-1.3-0.8c-0.4-0.7-0.1-1.6,0.7-2l1.3-0.7
					c0.7-0.4,1.6-0.1,2,0.7c0.4,0.7,0.1,1.6-0.7,2l-1.3,0.7C198.8,407.7,198.6,407.7,198.3,407.7z M215.8,398.9
					c-0.5,0-1.1-0.3-1.3-0.8c-0.4-0.7-0.1-1.6,0.7-2l1.3-0.7c0.7-0.4,1.6-0.1,2,0.7c0.4,0.7,0.1,1.6-0.7,2l-1.3,0.7
					C216.2,398.9,216,398.9,215.8,398.9z M233.2,390.1c-0.5,0-1.1-0.3-1.3-0.8c-0.4-0.7-0.1-1.6,0.7-2l1.3-0.7
					c0.7-0.4,1.6-0.1,2,0.7c0.4,0.7,0.1,1.6-0.7,2l-1.3,0.7C233.6,390,233.4,390.1,233.2,390.1z M250.6,381.3
					c-0.5,0-1.1-0.3-1.3-0.8c-0.4-0.7-0.1-1.6,0.7-2l1.3-0.7c0.7-0.4,1.6-0.1,2,0.7c0.4,0.7,0.1,1.6-0.7,2l-1.3,0.7
					C251.1,381.2,250.8,381.3,250.6,381.3z M268.1,372.5c-0.5,0-1.1-0.3-1.3-0.8c-0.4-0.7-0.1-1.6,0.7-2l1.3-0.7
					c0.7-0.4,1.6-0.1,2,0.7c0.4,0.7,0.1,1.6-0.7,2l-1.3,0.7C268.5,372.4,268.3,372.5,268.1,372.5z M285.5,363.7
					c-0.5,0-1.1-0.3-1.3-0.8c-0.4-0.7-0.1-1.6,0.7-2l1.3-0.7c0.7-0.4,1.6-0.1,2,0.7c0.4,0.7,0.1,1.6-0.7,2l-1.3,0.7
					C285.9,363.6,285.7,363.7,285.5,363.7z"/>
			</g>
			<g>
				<path class="st1" d="M-10.2,513.1c-0.5,0-1.1-0.3-1.3-0.8c-0.4-0.7-0.1-1.6,0.7-2l0.7-0.3c0.7-0.4,1.6-0.1,2,0.7
					c0.4,0.7,0.1,1.6-0.7,2l-0.7,0.3C-9.7,513.1-10,513.1-10.2,513.1z"/>
			</g>
		</g>
		<g class="st0">
			<path class="st1" d="M1038.4,1110.7c-0.5,0-1.1-0.3-1.3-0.8c-0.4-0.7-0.1-1.6,0.7-2l309.1-157.7c0.7-0.4,1.6-0.1,2,0.7
				c0.4,0.7,0.1,1.6-0.7,2l-309.1,157.7C1038.8,1110.6,1038.6,1110.7,1038.4,1110.7z"/>
		</g>
		<g class="st0">
			<g>
				<path class="st1" d="M1444.6,980.5c-0.2,0-0.5-0.1-0.7-0.2l-0.6-0.3c-0.1,0-0.1-0.1-0.1-0.1l-0.4-0.2c0,0,0,0-0.1,0l-0.3-0.2
					c-0.1,0-0.2-0.1-0.2-0.1l-0.7-0.3c-0.8-0.3-1.1-1.2-0.7-2c0.3-0.8,1.2-1.1,2-0.7l0.5,0.2c0.1,0,0.2,0.1,0.3,0.1l1.2,0.6
					c0.1,0,0.1,0.1,0.2,0.1l0.5,0.3c0.7,0.4,1,1.3,0.6,2C1445.6,980.2,1445.1,980.5,1444.6,980.5z"/>
			</g>
			<g>
				<path class="st1" d="M1379,1041.9c-0.8,0-1.4-0.6-1.5-1.4c-0.1-0.8,0.5-1.5,1.4-1.6c0.5,0,1-0.1,1.4-0.1
					c0.8-0.1,1.6,0.5,1.6,1.3c0.1,0.8-0.5,1.6-1.3,1.6c-0.5,0-1,0.1-1.5,0.1C1379.1,1041.9,1379.1,1041.9,1379,1041.9z
					 M1361.5,1041.5c-0.1,0-0.1,0-0.2,0c-0.5-0.1-1-0.1-1.5-0.2c-0.8-0.1-1.4-0.9-1.3-1.7c0.1-0.8,0.9-1.4,1.7-1.3
					c0.5,0.1,0.9,0.1,1.4,0.2c0.8,0.1,1.4,0.9,1.3,1.7C1362.8,1040.9,1362.2,1041.5,1361.5,1041.5z M1397.6,1037.8
					c-0.6,0-1.2-0.4-1.4-1c-0.3-0.8,0.1-1.6,0.9-1.9c0.4-0.2,0.9-0.3,1.3-0.5c0.8-0.3,1.6,0,2,0.8c0.3,0.8,0,1.6-0.8,2
					c-0.5,0.2-0.9,0.4-1.4,0.6C1398,1037.8,1397.8,1037.8,1397.6,1037.8z M1343.2,1036.3c-0.2,0-0.4,0-0.7-0.2l-0.6-0.3
					c-0.3-0.1-0.5-0.3-0.7-0.4c-0.7-0.4-1-1.3-0.6-2c0.4-0.7,1.3-1,2-0.6c0.2,0.1,0.4,0.2,0.7,0.3l0.6,0.3c0.7,0.4,1.1,1.3,0.7,2
					C1344.3,1036,1343.7,1036.3,1343.2,1036.3z M1414.8,1029.5c-0.6,0-1.1-0.3-1.3-0.8c-0.4-0.7-0.1-1.6,0.7-2l1.3-0.7
					c0.7-0.4,1.6-0.1,2,0.7c0.4,0.7,0.1,1.6-0.7,2l-1.3,0.7C1415.2,1029.5,1415,1029.5,1414.8,1029.5z M1330.8,1022.7
					c-0.7,0-1.3-0.5-1.5-1.1c-0.1-0.5-0.2-1-0.3-1.6c-0.1-0.8,0.4-1.6,1.3-1.7c0.8-0.1,1.6,0.4,1.7,1.3c0.1,0.4,0.2,0.9,0.3,1.3
					c0.2,0.8-0.3,1.6-1.1,1.8C1331,1022.6,1330.9,1022.7,1330.8,1022.7z M1431.8,1021c-0.6,0-1.1-0.3-1.3-0.8
					c-0.4-0.7-0.1-1.6,0.7-2l1.3-0.7c0.7-0.4,1.6-0.1,2,0.7c0.4,0.7,0.1,1.6-0.7,2l-1.3,0.7C1432.3,1020.9,1432,1021,1431.8,1021z
					 M1448.5,1011.9c-0.4,0-0.9-0.2-1.2-0.5c-0.5-0.6-0.4-1.6,0.2-2.1c0.4-0.3,0.7-0.6,1-0.9c0.6-0.6,1.5-0.5,2.1,0.1
					c0.6,0.6,0.5,1.5-0.1,2.1c-0.4,0.4-0.8,0.7-1.2,1C1449.2,1011.8,1448.9,1011.9,1448.5,1011.9z M1335.6,1005.3
					c-0.4,0-0.8-0.2-1.1-0.5c-0.6-0.6-0.5-1.6,0.1-2.1c0.4-0.3,0.8-0.7,1.2-1c0.6-0.5,1.6-0.4,2.1,0.2c0.5,0.6,0.4,1.6-0.2,2.1
					c-0.4,0.3-0.7,0.6-1.1,0.9C1336.3,1005.1,1335.9,1005.3,1335.6,1005.3z M1352.1,995.9c-0.5,0-1.1-0.3-1.3-0.8
					c-0.4-0.7-0.1-1.6,0.7-2l1.3-0.7c0.7-0.4,1.6-0.1,2,0.7c0.4,0.7,0.1,1.6-0.7,2l-1.3,0.7C1352.5,995.8,1352.3,995.9,1352.1,995.9
					z M1455.6,995C1455.6,995,1455.5,995,1455.6,995c-0.9,0-1.5-0.7-1.5-1.6c0-0.1,0-0.2,0-0.4c0-0.3,0-0.6,0-0.9
					c-0.1-0.8,0.5-1.6,1.3-1.6c0.8-0.1,1.6,0.5,1.6,1.3c0,0.4,0.1,0.8,0.1,1.2c0,0.2,0,0.3,0,0.5C1457,994.4,1456.4,995,1455.6,995z
					 M1369.1,987.3c-0.6,0-1.1-0.3-1.3-0.8c-0.4-0.7-0.1-1.6,0.7-2l1.3-0.7c0.7-0.4,1.6-0.1,2,0.7c0.4,0.7,0.1,1.6-0.7,2l-1.3,0.7
					C1369.6,987.3,1369.4,987.3,1369.1,987.3z M1386.2,978.9c-0.6,0-1.1-0.3-1.4-0.9c-0.3-0.8,0-1.6,0.8-2c0.5-0.2,0.9-0.4,1.4-0.6
					c0.8-0.3,1.6,0.1,1.9,0.8c0.3,0.8-0.1,1.6-0.8,1.9c-0.4,0.2-0.9,0.4-1.3,0.6C1386.6,978.8,1386.4,978.9,1386.2,978.9z
					 M1425.1,974.5c-0.1,0-0.1,0-0.2,0c-0.5-0.1-0.9-0.1-1.4-0.2c-0.8-0.1-1.4-0.8-1.3-1.7c0.1-0.8,0.8-1.4,1.7-1.3
					c0.5,0.1,1,0.1,1.5,0.2c0.8,0.1,1.4,0.9,1.3,1.7C1426.5,973.9,1425.9,974.5,1425.1,974.5z M1404.6,974.2c-0.8,0-1.4-0.6-1.5-1.3
					c-0.1-0.8,0.5-1.6,1.3-1.7c0.5-0.1,1-0.1,1.5-0.2c0.9-0.1,1.6,0.5,1.6,1.4c0.1,0.8-0.5,1.6-1.4,1.6c-0.5,0-1,0.1-1.4,0.1
					C1404.8,974.2,1404.7,974.2,1404.6,974.2z"/>
			</g>
		</g>
		<g class="st0">
			<path class="st1" d="M1330.8,961.5c-0.5,0-1.1-0.3-1.3-0.8c-0.4-0.7-0.1-1.6,0.7-2l270.2-137.9c0.7-0.4,1.6-0.1,2,0.7
				c0.4,0.7,0.1,1.6-0.7,2l-270.2,137.9C1331.2,961.4,1331,961.5,1330.8,961.5z"/>
		</g>
		<g class="st0">
			<path class="st1" d="M546.6,1129.2c-0.5,0-1.1-0.3-1.3-0.8c-0.4-0.7-0.1-1.6,0.7-2L938,926.2c0.7-0.4,1.6-0.1,2,0.7
				c0.4,0.7,0.1,1.6-0.7,2L547.2,1129C547,1129.1,546.8,1129.2,546.6,1129.2z"/>
		</g>
		<g class="st0">
			<path class="st1" d="M546.6,1104.8c-0.5,0-1.1-0.3-1.3-0.8c-0.4-0.7-0.1-1.6,0.7-2L938,901.8c0.7-0.4,1.6-0.1,2,0.7
				c0.4,0.7,0.1,1.6-0.7,2l-392.2,200.1C547,1104.7,546.8,1104.8,546.6,1104.8z"/>
		</g>
		<g class="st0">
			<path class="st1" d="M938.7,929c-0.8,0-1.5-0.7-1.5-1.5v-24.4c0-0.8,0.7-1.5,1.5-1.5c0.8,0,1.5,0.7,1.5,1.5v24.4
				C940.2,928.3,939.6,929,938.7,929z"/>
		</g>
		<g class="st0">
			<g>
				<path class="st1" d="M1656.3,371.7c-0.5,0-1-0.3-1.3-0.8c-0.4-0.7-0.1-1.6,0.6-2l117.8-63.7c0.7-0.4,1.6-0.1,2,0.6
					c0.4,0.7,0.1,1.6-0.6,2L1657,371.6C1656.8,371.7,1656.6,371.7,1656.3,371.7z"/>
			</g>
			<g>
				<path class="st1" d="M1632.5,360c-0.5,0-1-0.3-1.3-0.8c-0.4-0.7-0.1-1.6,0.6-2l118.3-64c0.7-0.4,1.6-0.1,2,0.6
					c0.4,0.7,0.1,1.6-0.6,2l-118.3,64C1633,359.9,1632.8,360,1632.5,360z"/>
			</g>
			<g>
				<path class="st2" d="M1774.1,306.5"/>
			</g>
			<g>
				<path class="st2" d="M1750.8,294.5"/>
			</g>
		</g>
		<g class="st0">
			<g>
				<path class="st2" d="M1750.8,294.5"/>
			</g>
			<g>
				<path class="st2" d="M1772.5,305.7"/>
			</g>
			<g>
				<path class="st1" d="M1774.1,308c-0.2,0-0.5-0.1-0.7-0.2l-23.3-12c-0.7-0.4-1-1.3-0.6-2c0.4-0.7,1.3-1,2-0.6l23.3,12
					c0.7,0.4,1,1.3,0.6,2C1775.2,307.7,1774.6,308,1774.1,308z"/>
			</g>
		</g>
		<g class="st0">
			<g>
				<path class="st1" d="M1620.8,1098.8c-0.5,0-1.1-0.3-1.3-0.8c-0.4-0.7-0.1-1.6,0.7-2l130.4-66.5c0.7-0.4,1.6-0.1,2,0.7
					c0.4,0.7,0.1,1.6-0.7,2l-130.4,66.5C1621.2,1098.7,1621,1098.8,1620.8,1098.8z"/>
			</g>
			<g>
				<path class="st1" d="M1549.1,1111c-0.5,0-1.1-0.3-1.3-0.8c-0.4-0.7-0.1-1.6,0.7-2l202-103.1c0.7-0.4,1.6-0.1,2,0.7
					c0.4,0.7,0.1,1.6-0.7,2l-202,103.1C1549.6,1110.9,1549.4,1111,1549.1,1111z"/>
			</g>
			<g>
				<path class="st1" d="M1751.1,1032.3c-0.8,0-1.5-0.7-1.5-1.5v-24.4c0-0.8,0.7-1.5,1.5-1.5c0.8,0,1.5,0.7,1.5,1.5v24.4
					C1752.6,1031.6,1752,1032.3,1751.1,1032.3z"/>
			</g>
		</g>
		<g class="st0">
			<path class="st1" d="M642.2,1056.5c-0.2,0-0.5-0.1-0.7-0.2L410.4,940.5c-0.7-0.4-1-1.3-0.7-2c0.4-0.7,1.3-1,2-0.7l231.1,115.8
				c0.7,0.4,1,1.3,0.7,2C643.2,1056.2,642.7,1056.5,642.2,1056.5z"/>
		</g>
		<g class="st0">
			<path class="st1" d="M511.1,148.5c-0.2,0-0.5-0.1-0.7-0.2L81.8-73.4c-0.7-0.4-1-1.3-0.6-2c0.4-0.7,1.3-1,2-0.6l428.7,221.7
				c0.7,0.4,1,1.3,0.6,2C512.2,148.2,511.7,148.5,511.1,148.5z"/>
		</g>
		<g class="st0">
			<path class="st1" d="M511.1,173.4c-0.2,0-0.5-0.1-0.7-0.2L81.8-48.4c-0.7-0.4-1-1.3-0.6-2c0.4-0.7,1.3-1,2-0.6l428.7,221.7
				c0.7,0.4,1,1.3,0.6,2C512.2,173.2,511.7,173.4,511.1,173.4z"/>
		</g>
		<g class="st0">
			<path class="st1" d="M1923.3,990.4c-0.2,0-0.5-0.1-0.7-0.2l-322-166.6c-0.7-0.4-1-1.3-0.6-2c0.4-0.7,1.3-1,2-0.6l322,166.6
				c0.7,0.4,1,1.3,0.6,2C1924.4,990.1,1923.9,990.4,1923.3,990.4z"/>
		</g>
		<g class="st0">
			
				<rect x="1700.1" y="145.8" transform="matrix(0.4582 -0.8889 0.8889 0.4582 572.1915 1725.7363)" class="st1" width="3" height="495.5"/>
		</g>
		<g class="st0">
			
				<rect x="699.9" y="-74.8" transform="matrix(0.435 -0.9004 0.9004 0.435 367.1443 649.8406)" class="st1" width="3" height="214.4"/>
		</g>
		<g class="st0">
			<path class="st1" d="M1923.3,961.3c-0.2,0-0.5-0.1-0.7-0.2l-322-164.3c-0.7-0.4-1-1.3-0.7-2c0.4-0.7,1.3-1,2-0.7l322,164.3
				c0.7,0.4,1,1.3,0.7,2C1924.4,961,1923.9,961.3,1923.3,961.3z"/>
		</g>
		<g class="st0">
			<g>
				<path class="st1" d="M411.1,1105.7c-0.8,0-1.5-0.7-1.5-1.5v-0.7c0-0.8,0.7-1.5,1.5-1.5c0.8,0,1.5,0.7,1.5,1.5v0.7
					C412.6,1105,411.9,1105.7,411.1,1105.7z"/>
			</g>
			<g>
				<path class="st1" d="M411.1,1086.4c-0.8,0-1.5-0.7-1.5-1.5v-1.5c0-0.8,0.7-1.5,1.5-1.5c0.8,0,1.5,0.7,1.5,1.5v1.5
					C412.6,1085.8,411.9,1086.4,411.1,1086.4z M411.1,1066.4c-0.8,0-1.5-0.7-1.5-1.5v-1.5c0-0.8,0.7-1.5,1.5-1.5
					c0.8,0,1.5,0.7,1.5,1.5v1.5C412.6,1065.7,411.9,1066.4,411.1,1066.4z M411.1,1046.4c-0.8,0-1.5-0.7-1.5-1.5v-1.5
					c0-0.8,0.7-1.5,1.5-1.5c0.8,0,1.5,0.7,1.5,1.5v1.5C412.6,1045.7,411.9,1046.4,411.1,1046.4z M411.1,1026.3
					c-0.8,0-1.5-0.7-1.5-1.5v-1.5c0-0.8,0.7-1.5,1.5-1.5c0.8,0,1.5,0.7,1.5,1.5v1.5C412.6,1025.7,411.9,1026.3,411.1,1026.3z
					 M411.1,1006.3c-0.8,0-1.5-0.7-1.5-1.5v-1.5c0-0.8,0.7-1.5,1.5-1.5c0.8,0,1.5,0.7,1.5,1.5v1.5
					C412.6,1005.6,411.9,1006.3,411.1,1006.3z M411.1,986.3c-0.8,0-1.5-0.7-1.5-1.5v-1.5c0-0.8,0.7-1.5,1.5-1.5
					c0.8,0,1.5,0.7,1.5,1.5v1.5C412.6,985.6,411.9,986.3,411.1,986.3z"/>
			</g>
			<g>
				<path class="st1" d="M411.1,966.2c-0.8,0-1.5-0.7-1.5-1.5V964c0-0.8,0.7-1.5,1.5-1.5c0.8,0,1.5,0.7,1.5,1.5v0.7
					C412.6,965.6,411.9,966.2,411.1,966.2z"/>
			</g>
		</g>
		<g class="st0">
			<g>
				<path class="st1" d="M1886.8,196.7c-0.8,0-1.5-0.7-1.5-1.5v-0.7c0-0.8,0.7-1.5,1.5-1.5c0.8,0,1.5,0.7,1.5,1.5v0.7
					C1888.2,196,1887.6,196.7,1886.8,196.7z"/>
			</g>
			<g>
				<path class="st1" d="M1886.8,178.7c-0.8,0-1.5-0.7-1.5-1.5v-1.4c0-0.8,0.7-1.5,1.5-1.5c0.8,0,1.5,0.7,1.5,1.5v1.4
					C1888.2,178.1,1887.6,178.7,1886.8,178.7z M1886.8,160.1c-0.8,0-1.5-0.7-1.5-1.5v-1.4c0-0.8,0.7-1.5,1.5-1.5
					c0.8,0,1.5,0.7,1.5,1.5v1.4C1888.2,159.4,1887.6,160.1,1886.8,160.1z M1886.8,141.4c-0.8,0-1.5-0.7-1.5-1.5v-1.4
					c0-0.8,0.7-1.5,1.5-1.5c0.8,0,1.5,0.7,1.5,1.5v1.4C1888.2,140.8,1887.6,141.4,1886.8,141.4z M1886.8,122.8
					c-0.8,0-1.5-0.7-1.5-1.5v-1.4c0-0.8,0.7-1.5,1.5-1.5c0.8,0,1.5,0.7,1.5,1.5v1.4C1888.2,122.1,1887.6,122.8,1886.8,122.8z
					 M1886.8,104.1c-0.8,0-1.5-0.7-1.5-1.5v-1.4c0-0.8,0.7-1.5,1.5-1.5c0.8,0,1.5,0.7,1.5,1.5v1.4
					C1888.2,103.5,1887.6,104.1,1886.8,104.1z M1886.8,85.5c-0.8,0-1.5-0.7-1.5-1.5v-1.4c0-0.8,0.7-1.5,1.5-1.5
					c0.8,0,1.5,0.7,1.5,1.5V84C1888.2,84.8,1887.6,85.5,1886.8,85.5z M1886.8,66.9c-0.8,0-1.5-0.7-1.5-1.5v-1.4
					c0-0.8,0.7-1.5,1.5-1.5c0.8,0,1.5,0.7,1.5,1.5v1.4C1888.2,66.2,1887.6,66.9,1886.8,66.9z M1886.8,48.2c-0.8,0-1.5-0.7-1.5-1.5
					v-1.4c0-0.8,0.7-1.5,1.5-1.5c0.8,0,1.5,0.7,1.5,1.5v1.4C1888.2,47.5,1887.6,48.2,1886.8,48.2z M1886.8,29.6
					c-0.8,0-1.5-0.7-1.5-1.5v-1.4c0-0.8,0.7-1.5,1.5-1.5c0.8,0,1.5,0.7,1.5,1.5v1.4C1888.2,28.9,1887.6,29.6,1886.8,29.6z
					 M1886.8,10.9c-0.8,0-1.5-0.7-1.5-1.5V8c0-0.8,0.7-1.5,1.5-1.5c0.8,0,1.5,0.7,1.5,1.5v1.4C1888.2,10.2,1887.6,10.9,1886.8,10.9z
					 M1886.8-7.7c-0.8,0-1.5-0.7-1.5-1.5v-1.4c0-0.8,0.7-1.5,1.5-1.5c0.8,0,1.5,0.7,1.5,1.5v1.4C1888.2-8.4,1887.6-7.7,1886.8-7.7z"
					/>
			</g>
			<g>
				<path class="st1" d="M1886.8-26.4c-0.8,0-1.5-0.7-1.5-1.5v-0.7c0-0.8,0.7-1.5,1.5-1.5c0.8,0,1.5,0.7,1.5,1.5v0.7
					C1888.2-27,1887.6-26.4,1886.8-26.4z"/>
			</g>
		</g>
		<g class="st0">
			<g>
				<path class="st1" d="M1563.2-29.8c-0.5,0-1.1-0.3-1.3-0.8c-0.4-0.7-0.1-1.6,0.7-2l0.7-0.3c0.7-0.4,1.6-0.1,2,0.7
					c0.4,0.7,0.1,1.6-0.7,2l-0.7,0.3C1563.6-29.9,1563.4-29.8,1563.2-29.8z"/>
			</g>
			<g>
				<path class="st1" d="M1291.1,107.7c-0.5,0-1.1-0.3-1.3-0.8c-0.4-0.7-0.1-1.6,0.7-2l1.3-0.7c0.7-0.4,1.6-0.1,2,0.7
					c0.4,0.7,0.1,1.6-0.7,2l-1.3,0.7C1291.6,107.7,1291.4,107.7,1291.1,107.7z M1308.1,99.1c-0.5,0-1.1-0.3-1.3-0.8
					c-0.4-0.7-0.1-1.6,0.7-2l1.3-0.7c0.7-0.4,1.6-0.1,2,0.7c0.4,0.7,0.1,1.6-0.7,2l-1.3,0.7C1308.6,99.1,1308.4,99.1,1308.1,99.1z
					 M1325.1,90.5c-0.5,0-1.1-0.3-1.3-0.8c-0.4-0.7-0.1-1.6,0.7-2l1.3-0.7c0.7-0.4,1.6-0.1,2,0.7c0.4,0.7,0.1,1.6-0.7,2l-1.3,0.7
					C1325.6,90.5,1325.4,90.5,1325.1,90.5z M1342.1,81.9c-0.5,0-1.1-0.3-1.3-0.8c-0.4-0.7-0.1-1.6,0.7-2l1.3-0.7
					c0.7-0.4,1.6-0.1,2,0.7c0.4,0.7,0.1,1.6-0.7,2l-1.3,0.7C1342.6,81.9,1342.4,81.9,1342.1,81.9z M1359.1,73.3
					c-0.5,0-1.1-0.3-1.3-0.8c-0.4-0.7-0.1-1.6,0.7-2l1.3-0.7c0.7-0.4,1.6-0.1,2,0.7c0.4,0.7,0.1,1.6-0.7,2l-1.3,0.7
					C1359.6,73.3,1359.4,73.3,1359.1,73.3z M1376.2,64.7c-0.5,0-1.1-0.3-1.3-0.8c-0.4-0.7-0.1-1.6,0.7-2l1.3-0.7
					c0.7-0.4,1.6-0.1,2,0.7c0.4,0.7,0.1,1.6-0.7,2l-1.3,0.7C1376.6,64.7,1376.4,64.7,1376.2,64.7z M1393.2,56.1
					c-0.5,0-1.1-0.3-1.3-0.8c-0.4-0.7-0.1-1.6,0.7-2l1.3-0.7c0.7-0.4,1.6-0.1,2,0.7c0.4,0.7,0.1,1.6-0.7,2l-1.3,0.7
					C1393.6,56.1,1393.4,56.1,1393.2,56.1z M1410.2,47.6c-0.5,0-1.1-0.3-1.3-0.8c-0.4-0.7-0.1-1.6,0.7-2l1.3-0.7
					c0.7-0.4,1.6-0.1,2,0.7c0.4,0.7,0.1,1.6-0.7,2l-1.3,0.7C1410.6,47.5,1410.4,47.6,1410.2,47.6z M1427.2,39
					c-0.5,0-1.1-0.3-1.3-0.8c-0.4-0.7-0.1-1.6,0.7-2l1.3-0.7c0.7-0.4,1.6-0.1,2,0.7c0.4,0.7,0.1,1.6-0.7,2l-1.3,0.7
					C1427.6,38.9,1427.4,39,1427.2,39z M1444.2,30.4c-0.5,0-1.1-0.3-1.3-0.8c-0.4-0.7-0.1-1.6,0.7-2l1.3-0.7c0.7-0.4,1.6-0.1,2,0.7
					c0.4,0.7,0.1,1.6-0.7,2l-1.3,0.7C1444.6,30.3,1444.4,30.4,1444.2,30.4z M1461.2,21.8c-0.5,0-1.1-0.3-1.3-0.8
					c-0.4-0.7-0.1-1.6,0.7-2l1.3-0.7c0.7-0.4,1.6-0.1,2,0.7c0.4,0.7,0.1,1.6-0.7,2l-1.3,0.7C1461.6,21.7,1461.4,21.8,1461.2,21.8z
					 M1478.2,13.2c-0.5,0-1.1-0.3-1.3-0.8c-0.4-0.7-0.1-1.6,0.7-2l1.3-0.7c0.7-0.4,1.6-0.1,2,0.7c0.4,0.7,0.1,1.6-0.7,2l-1.3,0.7
					C1478.6,13.1,1478.4,13.2,1478.2,13.2z M1495.2,4.6c-0.5,0-1.1-0.3-1.3-0.8c-0.4-0.7-0.1-1.6,0.7-2l1.3-0.7
					c0.7-0.4,1.6-0.1,2,0.7c0.4,0.7,0.1,1.6-0.7,2l-1.3,0.7C1495.6,4.5,1495.4,4.6,1495.2,4.6z M1512.2-4c-0.5,0-1.1-0.3-1.3-0.8
					c-0.4-0.7-0.1-1.6,0.7-2l1.3-0.7c0.7-0.4,1.6-0.1,2,0.7c0.4,0.7,0.1,1.6-0.7,2l-1.3,0.7C1512.6-4.1,1512.4-4,1512.2-4z
					 M1529.2-12.6c-0.5,0-1.1-0.3-1.3-0.8c-0.4-0.7-0.1-1.6,0.7-2l1.3-0.7c0.7-0.4,1.6-0.1,2,0.7c0.4,0.7,0.1,1.6-0.7,2l-1.3,0.7
					C1529.6-12.7,1529.4-12.6,1529.2-12.6z M1546.2-21.2c-0.5,0-1.1-0.3-1.3-0.8c-0.4-0.7-0.1-1.6,0.7-2l1.3-0.7
					c0.7-0.4,1.6-0.1,2,0.7c0.4,0.7,0.1,1.6-0.7,2l-1.3,0.7C1546.6-21.3,1546.4-21.2,1546.2-21.2z"/>
			</g>
			<g>
				<path class="st1" d="M1274.8,116c-0.5,0-1.1-0.3-1.3-0.8c-0.4-0.7-0.1-1.6,0.7-2l0.7-0.3c0.7-0.4,1.6-0.1,2,0.7
					c0.4,0.7,0.1,1.6-0.7,2l-0.7,0.3C1275.2,115.9,1275,116,1274.8,116z"/>
			</g>
		</g>
		<g class="st0">
			<g>
				<path class="st1" d="M978.8-37.3c-0.6,0-1.1-0.3-1.3-0.8c-0.4-0.7-0.1-1.6,0.7-2l0.7-0.3c0.7-0.4,1.6-0.1,2,0.7
					c0.4,0.7,0.1,1.6-0.7,2l-0.7,0.3C979.3-37.3,979-37.3,978.8-37.3z"/>
			</g>
			<g>
				<path class="st1" d="M819.8,42.5c-0.5,0-1.1-0.3-1.3-0.8c-0.4-0.7-0.1-1.6,0.7-2l1.4-0.7c0.7-0.4,1.6-0.1,2,0.7
					c0.4,0.7,0.1,1.6-0.7,2l-1.4,0.7C820.2,42.4,820,42.5,819.8,42.5z M837.4,33.6c-0.6,0-1.1-0.3-1.3-0.8c-0.4-0.7-0.1-1.6,0.7-2
					l1.4-0.7c0.7-0.4,1.6-0.1,2,0.7c0.4,0.7,0.1,1.6-0.7,2l-1.4,0.7C837.9,33.5,837.7,33.6,837.4,33.6z M855.1,24.7
					c-0.5,0-1.1-0.3-1.3-0.8c-0.4-0.7-0.1-1.6,0.7-2l1.4-0.7c0.7-0.4,1.6-0.1,2,0.7c0.4,0.7,0.1,1.6-0.7,2l-1.4,0.7
					C855.6,24.7,855.3,24.7,855.1,24.7z M872.8,15.9c-0.5,0-1.1-0.3-1.3-0.8c-0.4-0.7-0.1-1.6,0.7-2l1.4-0.7c0.7-0.4,1.6-0.1,2,0.7
					c0.4,0.7,0.1,1.6-0.7,2l-1.4,0.7C873.2,15.8,873,15.9,872.8,15.9z M890.5,7c-0.6,0-1.1-0.3-1.3-0.8c-0.4-0.7-0.1-1.6,0.7-2
					l1.4-0.7c0.7-0.4,1.6-0.1,2,0.7c0.4,0.7,0.1,1.6-0.7,2l-1.4,0.7C890.9,7,890.7,7,890.5,7z M908.1-1.8c-0.5,0-1.1-0.3-1.3-0.8
					c-0.4-0.7-0.1-1.6,0.7-2l1.4-0.7c0.7-0.4,1.6-0.1,2,0.7c0.4,0.7,0.1,1.6-0.7,2L908.8-2C908.6-1.9,908.3-1.8,908.1-1.8z
					 M925.8-10.7c-0.6,0-1.1-0.3-1.3-0.8c-0.4-0.7-0.1-1.6,0.7-2l1.4-0.7c0.7-0.4,1.6-0.1,2,0.7c0.4,0.7,0.1,1.6-0.7,2l-1.4,0.7
					C926.2-10.8,926-10.7,925.8-10.7z M943.5-19.6c-0.5,0-1.1-0.3-1.3-0.8c-0.4-0.7-0.1-1.6,0.7-2l1.4-0.7c0.7-0.4,1.6-0.1,2,0.7
					c0.4,0.7,0.1,1.6-0.7,2l-1.4,0.7C943.9-19.6,943.7-19.6,943.5-19.6z M961.1-28.4c-0.5,0-1.1-0.3-1.3-0.8c-0.4-0.7-0.1-1.6,0.7-2
					l1.4-0.7c0.7-0.4,1.6-0.1,2,0.7c0.4,0.7,0.1,1.6-0.7,2l-1.4,0.7C961.6-28.5,961.4-28.4,961.1-28.4z"/>
			</g>
			<g>
				<path class="st1" d="M802.8,51c-0.6,0-1.1-0.3-1.3-0.8c-0.4-0.7-0.1-1.6,0.7-2l0.7-0.3c0.7-0.4,1.6-0.1,2,0.7
					c0.4,0.7,0.1,1.6-0.7,2l-0.7,0.3C803.2,50.9,803,51,802.8,51z"/>
			</g>
		</g>
		<g class="st0">
			
				<rect x="1324.1" y="39.9" transform="matrix(0.8924 -0.4512 0.4512 0.8924 141.1486 674.9123)" class="st1" width="323.9" height="3"/>
		</g>
		<g class="st0">
			<path class="st1" d="M359,70.3c-0.5,0-1.1-0.3-1.3-0.8c-0.4-0.7-0.1-1.6,0.7-2L647.4-78.7c0.7-0.4,1.6-0.1,2,0.7
				c0.4,0.7,0.1,1.6-0.7,2L359.7,70.2C359.5,70.3,359.3,70.3,359,70.3z"/>
		</g>
		<g class="st0">
			
				<rect x="785.2" y="23.6" transform="matrix(0.8939 -0.4483 0.4483 0.8939 85.0419 409.4241)" class="st1" width="244" height="3"/>
		</g>
		<g class="st0">
			<path class="st1" d="M1601.3,823.9c-0.8,0-1.5-0.7-1.5-1.5v-26.8c0-0.8,0.7-1.5,1.5-1.5c0.8,0,1.5,0.7,1.5,1.5v26.8
				C1602.8,823.2,1602.1,823.9,1601.3,823.9z"/>
		</g>
		<g class="st0">
			<g>
				<path class="st1" d="M311.5,100c-0.8,0-1.5-0.7-1.5-1.5v-0.7c0-0.8,0.7-1.5,1.5-1.5c0.8,0,1.5,0.7,1.5,1.5v0.7
					C313,99.3,312.3,100,311.5,100z"/>
			</g>
			<g>
				<path class="st1" d="M311.5,183c-0.8,0-1.5-0.7-1.5-1.5v-1.6c0-0.8,0.7-1.5,1.5-1.5c0.8,0,1.5,0.7,1.5,1.5v1.6
					C313,182.4,312.3,183,311.5,183z M311.5,162.3c-0.8,0-1.5-0.7-1.5-1.5v-1.6c0-0.8,0.7-1.5,1.5-1.5c0.8,0,1.5,0.7,1.5,1.5v1.6
					C313,161.6,312.3,162.3,311.5,162.3z M311.5,141.5c-0.8,0-1.5-0.7-1.5-1.5v-1.6c0-0.8,0.7-1.5,1.5-1.5c0.8,0,1.5,0.7,1.5,1.5
					v1.6C313,140.8,312.3,141.5,311.5,141.5z M311.5,120.8c-0.8,0-1.5-0.7-1.5-1.5v-1.6c0-0.8,0.7-1.5,1.5-1.5
					c0.8,0,1.5,0.7,1.5,1.5v1.6C313,120.1,312.3,120.8,311.5,120.8z"/>
			</g>
			<g>
				<path class="st1" d="M311.5,202.9c-0.8,0-1.5-0.7-1.5-1.5v-0.7c0-0.8,0.7-1.5,1.5-1.5c0.8,0,1.5,0.7,1.5,1.5v0.7
					C313,202.3,312.3,202.9,311.5,202.9z"/>
			</g>
		</g>
		<g class="st0">
			<g>
				<path class="st1" d="M186.5,797.6c-0.2,0-0.3,0-0.5-0.1l-0.4-0.2c-0.3-0.2-0.5-0.5-0.5-0.9c0-0.4,0.2-0.7,0.6-0.9l0.5-0.2
					c0.5-0.2,1.1,0,1.3,0.5c0.1,0.2,0.1,0.5,0.1,0.7c0,0.2,0,0.5-0.1,0.7C187.2,797.4,186.8,797.6,186.5,797.6z"/>
			</g>
			<g>
				<path class="st1" d="M198.6,791.3c-0.4,0-0.7-0.2-0.9-0.6c-0.2-0.5,0-1.1,0.5-1.3l1-0.5c0.5-0.2,1.1,0,1.3,0.5
					c0.2,0.5,0,1.1-0.5,1.3l-1,0.5C198.9,791.3,198.8,791.3,198.6,791.3z M211.7,785c-0.4,0-0.7-0.2-0.9-0.6c-0.2-0.5,0-1.1,0.5-1.3
					l1-0.5c0.5-0.2,1.1,0,1.3,0.5c0.2,0.5,0,1.1-0.5,1.3l-1,0.5C212,785,211.9,785,211.7,785z M224.9,778.7c-0.4,0-0.7-0.2-0.9-0.6
					c-0.2-0.5,0-1.1,0.5-1.3l1-0.5c0.5-0.2,1.1,0,1.3,0.5c0.2,0.5,0,1.1-0.5,1.3l-1,0.5C225.2,778.7,225,778.7,224.9,778.7z"/>
			</g>
			<g>
				<path class="st1" d="M238.9,772.4c-0.2,0-0.3,0-0.5-0.1l0,0l0,0c-0.5,0.2-1.1,0-1.3-0.5c-0.2-0.5,0-1.1,0.5-1.3l0.5-0.2
					c0.3-0.1,0.6-0.1,0.9,0l0.5,0.2c0.5,0.2,0.7,0.9,0.4,1.4C239.6,772.2,239.3,772.4,238.9,772.4z"/>
			</g>
			<g>
				<path class="st1" d="M298.4,802.3c-0.2,0-0.3,0-0.5-0.1l-0.9-0.5c-0.5-0.2-0.7-0.9-0.4-1.4c0.2-0.5,0.9-0.7,1.4-0.4l0.9,0.5
					c0.5,0.2,0.7,0.9,0.4,1.4C299.1,802.1,298.8,802.3,298.4,802.3z M286.5,796.3c-0.2,0-0.3,0-0.5-0.1l-0.9-0.5
					c-0.5-0.3-0.7-0.9-0.4-1.4c0.2-0.5,0.9-0.7,1.4-0.4l0.9,0.5c0.5,0.3,0.7,0.9,0.4,1.4C287.2,796.1,286.9,796.3,286.5,796.3z
					 M274.6,790.3c-0.2,0-0.3,0-0.5-0.1l-0.9-0.5c-0.5-0.2-0.7-0.9-0.4-1.4c0.2-0.5,0.9-0.7,1.4-0.4l0.9,0.5
					c0.5,0.2,0.7,0.9,0.4,1.4C275.3,790.1,275,790.3,274.6,790.3z M262.7,784.3c-0.2,0-0.3,0-0.5-0.1l-0.9-0.5
					c-0.5-0.3-0.7-0.9-0.4-1.4c0.2-0.5,0.9-0.7,1.4-0.4l0.9,0.5c0.5,0.3,0.7,0.9,0.4,1.4C263.4,784.1,263.1,784.3,262.7,784.3z
					 M250.8,778.4c-0.2,0-0.3,0-0.5-0.1l-0.9-0.5c-0.5-0.2-0.7-0.9-0.4-1.4c0.2-0.5,0.9-0.7,1.4-0.4l0.9,0.5
					c0.5,0.2,0.7,0.9,0.4,1.4C251.5,778.2,251.2,778.4,250.8,778.4z"/>
			</g>
			<g>
				<path class="st1" d="M309.4,808.3c-0.4,0-0.7-0.2-0.9-0.5c-0.1-0.2-0.1-0.5-0.1-0.7c-0.1-0.2,0-0.5,0.1-0.7
					c0.2-0.5,0.9-0.7,1.4-0.4l0.5,0.2c0.3,0.2,0.5,0.5,0.6,0.9c0,0.4-0.2,0.7-0.5,0.9l-0.4,0.2C309.7,808.2,309.6,808.3,309.4,808.3
					z"/>
			</g>
			<g>
				<path class="st1" d="M267.9,830.5c-0.4,0-0.7-0.2-0.9-0.5c-0.3-0.5-0.1-1.1,0.4-1.4l0.8-0.4c0.5-0.3,1.1-0.1,1.4,0.4
					c0.3,0.5,0.1,1.1-0.4,1.4l-0.8,0.4C268.2,830.5,268.1,830.5,267.9,830.5z M278.3,824.9c-0.4,0-0.7-0.2-0.9-0.5
					c-0.3-0.5-0.1-1.1,0.4-1.4l0.8-0.4c0.5-0.3,1.1-0.1,1.4,0.4c0.3,0.5,0.1,1.1-0.4,1.4l-0.8,0.4
					C278.6,824.9,278.4,824.9,278.3,824.9z M288.6,819.4c-0.4,0-0.7-0.2-0.9-0.5c-0.3-0.5-0.1-1.1,0.4-1.4l0.8-0.4
					c0.5-0.3,1.1-0.1,1.4,0.4c0.3,0.5,0.1,1.1-0.4,1.4l-0.8,0.4C289,819.4,288.8,819.4,288.6,819.4z M299,813.8
					c-0.4,0-0.7-0.2-0.9-0.5c-0.3-0.5-0.1-1.1,0.4-1.4l0.8-0.4c0.5-0.3,1.1-0.1,1.4,0.4c0.3,0.5,0.1,1.1-0.4,1.4l-0.8,0.4
					C299.3,813.8,299.2,813.8,299,813.8z"/>
			</g>
			<g>
				<path class="st1" d="M257.9,835.9c-0.2,0-0.3,0-0.5-0.1l-0.4-0.2c-0.5-0.3-0.7-0.9-0.4-1.4c0.3-0.5,0.8-0.7,1.3-0.4
					c0.5-0.2,1.1-0.1,1.3,0.4c0.3,0.5,0.1,1.1-0.4,1.4l-0.4,0.2C258.2,835.8,258,835.9,257.9,835.9z"/>
			</g>
			<g>
				<path class="st1" d="M246.4,829.7c-0.2,0-0.3,0-0.5-0.1l-0.9-0.5c-0.5-0.3-0.7-0.9-0.4-1.4c0.3-0.5,0.9-0.7,1.4-0.4l0.9,0.5
					c0.5,0.3,0.7,0.9,0.4,1.4C247.1,829.5,246.7,829.7,246.4,829.7z M234.4,823.3c-0.2,0-0.3,0-0.5-0.1l-0.9-0.5
					c-0.5-0.3-0.7-0.9-0.4-1.4c0.3-0.5,0.9-0.7,1.4-0.4l0.9,0.5c0.5,0.3,0.7,0.9,0.4,1.4C235.1,823.1,234.8,823.3,234.4,823.3z
					 M222.4,816.9c-0.2,0-0.3,0-0.5-0.1l-0.9-0.5c-0.5-0.3-0.7-0.9-0.4-1.4c0.3-0.5,0.9-0.7,1.4-0.4l0.9,0.5
					c0.5,0.3,0.7,0.9,0.4,1.4C223.1,816.7,222.8,816.9,222.4,816.9z M210.4,810.5c-0.2,0-0.3,0-0.5-0.1l-0.9-0.5
					c-0.5-0.3-0.7-0.9-0.4-1.4c0.3-0.5,0.9-0.7,1.4-0.4l0.9,0.5c0.5,0.3,0.7,0.9,0.4,1.4C211.1,810.3,210.8,810.5,210.4,810.5z
					 M198.5,804c-0.2,0-0.3,0-0.5-0.1l-0.9-0.5c-0.5-0.3-0.7-0.9-0.4-1.4c0.3-0.5,0.9-0.7,1.4-0.4l0.9,0.5c0.5,0.3,0.7,0.9,0.4,1.4
					C199.2,803.8,198.8,804,198.5,804z"/>
			</g>
		</g>
		<g class="st0">
			<g>
				<path class="st1" d="M1463,396.6c-0.2,0-0.5-0.1-0.7-0.2l-0.7-0.3c-0.5-0.3-0.8-0.8-0.8-1.3c0-0.6,0.3-1.1,0.8-1.3l0.7-0.3
					c0.7-0.4,1.6-0.1,2,0.7c0.2,0.3,0.2,0.7,0.1,1c0.1,0.3,0,0.7-0.1,1C1464.1,396.3,1463.5,396.6,1463,396.6z"/>
			</g>
			<g>
				<path class="st1" d="M1471.9,391.4c-0.5,0-1.1-0.3-1.3-0.8c-0.4-0.7-0.1-1.6,0.7-2l0.7-0.4c0.7-0.4,1.6-0.1,2,0.7
					c0.4,0.7,0.1,1.6-0.7,2l-0.7,0.4C1472.4,391.4,1472.1,391.4,1471.9,391.4z"/>
			</g>
			<g>
				<path class="st1" d="M1481.6,386.5c-0.5,0-1.1-0.3-1.3-0.8c-0.4-0.7-0.1-1.6,0.7-2l0.7-0.3c0.4-0.2,0.9-0.2,1.4,0l0.7,0.3
					c0.7,0.4,1,1.3,0.7,2c-0.4,0.7-1.3,1-2,0.7C1482,386.4,1481.8,386.5,1481.6,386.5z"/>
			</g>
			<g>
				<path class="st1" d="M1571.5,431c-0.2,0-0.5-0.1-0.7-0.2l-1.4-0.7c-0.7-0.4-1-1.3-0.7-2c0.4-0.7,1.3-1,2-0.7l1.4,0.7
					c0.7,0.4,1,1.3,0.7,2C1572.6,430.7,1572.1,431,1571.5,431z M1553.8,422.1c-0.2,0-0.5-0.1-0.7-0.2l-1.4-0.7c-0.7-0.4-1-1.3-0.7-2
					c0.4-0.7,1.3-1,2-0.7l1.4,0.7c0.7,0.4,1,1.3,0.7,2C1554.9,421.8,1554.3,422.1,1553.8,422.1z M1536.1,413.2
					c-0.2,0-0.5-0.1-0.7-0.2l-1.4-0.7c-0.7-0.4-1-1.3-0.7-2c0.4-0.7,1.3-1,2-0.7l1.4,0.7c0.7,0.4,1,1.3,0.7,2
					C1537.1,412.9,1536.6,413.2,1536.1,413.2z M1518.3,404.3c-0.2,0-0.5-0.1-0.7-0.2l-1.4-0.7c-0.7-0.4-1-1.3-0.7-2
					c0.4-0.7,1.3-1,2-0.7l1.4,0.7c0.7,0.4,1,1.3,0.7,2C1519.4,404,1518.9,404.3,1518.3,404.3z M1500.6,395.4c-0.2,0-0.5-0.1-0.7-0.2
					l-1.4-0.7c-0.7-0.4-1-1.3-0.7-2c0.4-0.7,1.3-1,2-0.7l1.4,0.7c0.7,0.4,1,1.3,0.7,2C1501.7,395.1,1501.2,395.4,1500.6,395.4z"/>
			</g>
			<g>
				<path class="st1" d="M1587.9,439.9c-0.6,0-1.1-0.3-1.4-0.9c-0.1-0.3-0.2-0.6-0.1-1c-0.1-0.3,0-0.6,0.1-0.9c0.4-0.7,1.3-1,2-0.7
					l0.7,0.3c0.5,0.3,0.8,0.8,0.8,1.4c0,0.6-0.4,1.1-0.9,1.3l-0.7,0.3C1588.3,439.9,1588.1,439.9,1587.9,439.9z"/>
			</g>
			<g>
				<path class="st1" d="M1577,444.5c-0.6,0-1.1-0.3-1.4-0.9c-0.3-0.8,0-1.6,0.8-2l0.8-0.4c0.8-0.3,1.6,0,2,0.8c0.3,0.8,0,1.6-0.8,2
					l-0.8,0.4C1577.4,444.5,1577.2,444.5,1577,444.5z"/>
			</g>
			<g>
				<path class="st1" d="M1566.3,449.1c-0.2,0-0.5-0.1-0.7-0.2l-0.7-0.3c-0.7-0.4-1-1.3-0.7-2c0.4-0.7,1.3-1,2-0.7l0,0l0,0
					c0.8-0.3,1.6,0,2,0.8c0.3,0.8,0,1.6-0.8,2l-0.7,0.3C1566.7,449.1,1566.5,449.1,1566.3,449.1z"/>
			</g>
			<g>
				<path class="st1" d="M1549.6,440.6c-0.2,0-0.5-0.1-0.7-0.2l-1.3-0.7c-0.7-0.4-1-1.3-0.7-2c0.4-0.7,1.3-1,2-0.7l1.3,0.7
					c0.7,0.4,1,1.3,0.7,2C1550.7,440.3,1550.2,440.6,1549.6,440.6z M1532.3,431.8c-0.2,0-0.5-0.1-0.7-0.2l-1.3-0.7
					c-0.7-0.4-1-1.3-0.7-2c0.4-0.7,1.3-1,2-0.7l1.3,0.7c0.7,0.4,1,1.3,0.7,2C1533.4,431.5,1532.9,431.8,1532.3,431.8z M1515,423
					c-0.2,0-0.5-0.1-0.7-0.2l-1.3-0.7c-0.7-0.4-1-1.3-0.7-2c0.4-0.7,1.3-1,2-0.7l1.3,0.7c0.7,0.4,1,1.3,0.7,2
					C1516.1,422.7,1515.5,423,1515,423z M1497.7,414.2c-0.2,0-0.5-0.1-0.7-0.2l-1.3-0.7c-0.7-0.4-1-1.3-0.7-2c0.4-0.7,1.3-1,2-0.7
					l1.3,0.7c0.7,0.4,1,1.3,0.7,2C1498.7,413.9,1498.2,414.2,1497.7,414.2z M1480.3,405.4c-0.2,0-0.5-0.1-0.7-0.2l-1.3-0.7
					c-0.7-0.4-1-1.3-0.7-2c0.4-0.7,1.3-1,2-0.7l1.3,0.7c0.7,0.4,1,1.3,0.7,2C1481.4,405.1,1480.9,405.4,1480.3,405.4z"/>
			</g>
		</g>
		<g class="st0">
			<path class="st1" d="M17.6,1141.1c-0.5,0-1.1-0.3-1.3-0.8c-0.4-0.7-0.1-1.6,0.7-2l393.5-200.1c0.7-0.4,1.6-0.1,2,0.7
				c0.4,0.7,0.1,1.6-0.7,2L18.3,1140.9C18.1,1141,17.8,1141.1,17.6,1141.1z"/>
		</g>
		<g class="st0">
			<path class="st1" d="M93.3,1128.7c-0.5,0-1.1-0.3-1.3-0.8c-0.4-0.7-0.1-1.6,0.6-2l317.8-163.2c0.7-0.4,1.6-0.1,2,0.6
				c0.4,0.7,0.1,1.6-0.6,2L94,1128.5C93.8,1128.6,93.5,1128.7,93.3,1128.7z"/>
		</g>
		<g class="st0">
			<path class="st1" d="M17.6,1116.7c-0.5,0-1.1-0.3-1.3-0.8c-0.4-0.7-0.1-1.6,0.7-2l393.5-200.1c0.7-0.4,1.6-0.1,2,0.7
				c0.4,0.7,0.1,1.6-0.7,2L18.3,1116.5C18.1,1116.6,17.8,1116.7,17.6,1116.7z"/>
		</g>
		<g class="st0">
			<g>
				<path class="st1" d="M1378.6,1143.5c-0.6,0-1.1-0.3-1.3-0.8c-0.4-0.7-0.1-1.6,0.7-2l0.7-0.3c0.7-0.4,1.6-0.1,2,0.7
					c0.4,0.7,0.1,1.6-0.7,2l-0.7,0.3C1379,1143.4,1378.8,1143.5,1378.6,1143.5z"/>
			</g>
			<g>
				<path class="st1" d="M1395,1135.2c-0.6,0-1.1-0.3-1.3-0.8c-0.4-0.7-0.1-1.6,0.7-2l1.3-0.7c0.7-0.4,1.6-0.1,2,0.7
					c0.4,0.7,0.1,1.6-0.7,2l-1.3,0.7C1395.5,1135.2,1395.2,1135.2,1395,1135.2z M1412.1,1126.7c-0.6,0-1.1-0.3-1.3-0.8
					c-0.4-0.7-0.1-1.6,0.7-2l1.3-0.7c0.7-0.4,1.6-0.1,2,0.7c0.4,0.7,0.1,1.6-0.7,2l-1.3,0.7
					C1412.6,1126.6,1412.3,1126.7,1412.1,1126.7z M1429.2,1118.1c-0.6,0-1.1-0.3-1.3-0.8c-0.4-0.7-0.1-1.6,0.7-2l1.3-0.7
					c0.7-0.4,1.6-0.1,2,0.7c0.4,0.7,0.1,1.6-0.7,2l-1.3,0.7C1429.6,1118.1,1429.4,1118.1,1429.2,1118.1z M1446.3,1109.6
					c-0.6,0-1.1-0.3-1.3-0.8c-0.4-0.7-0.1-1.6,0.7-2l1.3-0.7c0.7-0.4,1.6-0.1,2,0.7c0.4,0.7,0.1,1.6-0.7,2l-1.3,0.7
					C1446.7,1109.5,1446.5,1109.6,1446.3,1109.6z M1463.4,1101c-0.6,0-1.1-0.3-1.3-0.8c-0.4-0.7-0.1-1.6,0.7-2l1.3-0.7
					c0.7-0.4,1.6-0.1,2,0.7c0.4,0.7,0.1,1.6-0.7,2l-1.3,0.7C1463.8,1101,1463.6,1101,1463.4,1101z M1480.5,1092.5
					c-0.6,0-1.1-0.3-1.3-0.8c-0.4-0.7-0.1-1.6,0.7-2l1.3-0.7c0.7-0.4,1.6-0.1,2,0.7c0.4,0.7,0.1,1.6-0.7,2l-1.3,0.7
					C1480.9,1092.4,1480.7,1092.5,1480.5,1092.5z M1497.6,1083.9c-0.6,0-1.1-0.3-1.3-0.8c-0.4-0.7-0.1-1.6,0.7-2l1.3-0.7
					c0.7-0.4,1.6-0.1,2,0.7c0.4,0.7,0.1,1.6-0.7,2l-1.3,0.7C1498,1083.9,1497.8,1083.9,1497.6,1083.9z M1514.7,1075.4
					c-0.6,0-1.1-0.3-1.3-0.8c-0.4-0.7-0.1-1.6,0.7-2l1.3-0.7c0.7-0.4,1.6-0.1,2,0.7s0.1,1.6-0.7,2l-1.3,0.7
					C1515.1,1075.3,1514.9,1075.4,1514.7,1075.4z M1531.8,1066.9c-0.6,0-1.1-0.3-1.3-0.8c-0.4-0.7-0.1-1.6,0.7-2l1.3-0.7
					c0.7-0.4,1.6-0.1,2,0.7c0.4,0.7,0.1,1.6-0.7,2l-1.3,0.7C1532.2,1066.8,1532,1066.9,1531.8,1066.9z M1548.9,1058.3
					c-0.6,0-1.1-0.3-1.3-0.8c-0.4-0.7-0.1-1.6,0.7-2l1.3-0.7c0.7-0.4,1.6-0.1,2,0.7c0.4,0.7,0.1,1.6-0.7,2l-1.3,0.7
					C1549.3,1058.2,1549.1,1058.3,1548.9,1058.3z M1566,1049.8c-0.6,0-1.1-0.3-1.3-0.8c-0.4-0.7-0.1-1.6,0.7-2l1.3-0.7
					c0.7-0.4,1.6-0.1,2,0.7c0.4,0.7,0.1,1.6-0.7,2l-1.3,0.7C1566.4,1049.7,1566.2,1049.8,1566,1049.8z M1583.1,1041.2
					c-0.6,0-1.1-0.3-1.3-0.8c-0.4-0.7-0.1-1.6,0.7-2l1.3-0.7c0.7-0.4,1.6-0.1,2,0.7c0.4,0.7,0.1,1.6-0.7,2l-1.3,0.7
					C1583.5,1041.1,1583.3,1041.2,1583.1,1041.2z M1600.2,1032.7c-0.6,0-1.1-0.3-1.3-0.8c-0.4-0.7-0.1-1.6,0.7-2l1.3-0.7
					c0.7-0.4,1.6-0.1,2,0.7c0.4,0.7,0.1,1.6-0.7,2l-1.3,0.7C1600.6,1032.6,1600.4,1032.7,1600.2,1032.7z M1617.2,1024.1
					c-0.6,0-1.1-0.3-1.3-0.8c-0.4-0.7-0.1-1.6,0.7-2l1.3-0.7c0.7-0.4,1.6-0.1,2,0.7c0.4,0.7,0.1,1.6-0.7,2l-1.3,0.7
					C1617.7,1024,1617.5,1024.1,1617.2,1024.1z M1634.3,1015.6c-0.6,0-1.1-0.3-1.3-0.8c-0.4-0.7-0.1-1.6,0.7-2l1.3-0.7
					c0.7-0.4,1.6-0.1,2,0.7c0.4,0.7,0.1,1.6-0.7,2l-1.3,0.7C1634.8,1015.5,1634.6,1015.6,1634.3,1015.6z M1651.4,1007
					c-0.6,0-1.1-0.3-1.3-0.8c-0.4-0.7-0.1-1.6,0.7-2l1.3-0.7c0.7-0.4,1.6-0.1,2,0.7c0.4,0.7,0.1,1.6-0.7,2l-1.3,0.7
					C1651.9,1007,1651.7,1007,1651.4,1007z M1668.5,998.5c-0.6,0-1.1-0.3-1.3-0.8c-0.4-0.7-0.1-1.6,0.7-2l1.3-0.7
					c0.7-0.4,1.6-0.1,2,0.7c0.4,0.7,0.1,1.6-0.7,2l-1.3,0.7C1669,998.4,1668.8,998.5,1668.5,998.5z M1685.6,989.9
					c-0.6,0-1.1-0.3-1.3-0.8c-0.4-0.7-0.1-1.6,0.7-2l1.3-0.7c0.7-0.4,1.6-0.1,2,0.7c0.4,0.7,0.1,1.6-0.7,2l-1.3,0.7
					C1686.1,989.9,1685.9,989.9,1685.6,989.9z"/>
			</g>
			<g>
				<path class="st1" d="M1702.7,981.4c-0.5,0-1.1-0.3-1.3-0.8c-0.4-0.7-0.1-1.6,0.7-2l0.7-0.3c0.7-0.4,1.6-0.1,2,0.7
					c0.4,0.7,0.1,1.6-0.7,2l-0.7,0.3C1703.2,981.3,1702.9,981.4,1702.7,981.4z"/>
			</g>
		</g>
		<g class="st0">
			<g>
				<path class="st1" d="M-73.2,1108.7c-0.6,0-1.1-0.3-1.3-0.8c-0.4-0.7-0.1-1.6,0.7-2l0.7-0.3c0.7-0.4,1.6-0.1,2,0.7
					c0.4,0.7,0.1,1.6-0.7,2l-0.7,0.3C-72.8,1108.6-73,1108.7-73.2,1108.7z"/>
			</g>
			<g>
				<path class="st1" d="M-56.8,1100.5c-0.6,0-1.1-0.3-1.3-0.8c-0.4-0.7-0.1-1.6,0.7-2l1.3-0.7c0.7-0.4,1.6-0.1,2,0.7
					c0.4,0.7,0.1,1.6-0.7,2l-1.3,0.7C-56.4,1100.4-56.6,1100.5-56.8,1100.5z M-39.7,1091.9c-0.6,0-1.1-0.3-1.3-0.8
					c-0.4-0.7-0.1-1.6,0.7-2l1.3-0.7c0.7-0.4,1.6-0.1,2,0.7c0.4,0.7,0.1,1.6-0.7,2l-1.3,0.7C-39.3,1091.9-39.5,1091.9-39.7,1091.9z
					 M-22.7,1083.4c-0.6,0-1.1-0.3-1.3-0.8c-0.4-0.7-0.1-1.6,0.7-2l1.3-0.7c0.7-0.4,1.6-0.1,2,0.7c0.4,0.7,0.1,1.6-0.7,2l-1.3,0.7
					C-22.2,1083.3-22.5,1083.4-22.7,1083.4z M-5.6,1074.9c-0.6,0-1.1-0.3-1.3-0.8c-0.4-0.7-0.1-1.6,0.7-2l1.3-0.7
					c0.7-0.4,1.6-0.1,2,0.7c0.4,0.7,0.1,1.6-0.7,2l-1.3,0.7C-5.2,1074.8-5.4,1074.9-5.6,1074.9z M11.4,1066.3
					c-0.6,0-1.1-0.3-1.3-0.8c-0.4-0.7-0.1-1.6,0.7-2l1.3-0.7c0.7-0.4,1.6-0.1,2,0.7c0.4,0.7,0.1,1.6-0.7,2l-1.3,0.7
					C11.9,1066.3,11.7,1066.3,11.4,1066.3z M28.5,1057.8c-0.6,0-1.1-0.3-1.3-0.8c-0.4-0.7-0.1-1.6,0.7-2l1.3-0.7
					c0.7-0.4,1.6-0.1,2,0.7c0.4,0.7,0.1,1.6-0.7,2l-1.3,0.7C29,1057.7,28.7,1057.8,28.5,1057.8z M45.6,1049.3
					c-0.6,0-1.1-0.3-1.3-0.8c-0.4-0.7-0.1-1.6,0.7-2l1.3-0.7c0.7-0.4,1.6-0.1,2,0.7c0.4,0.7,0.1,1.6-0.7,2l-1.3,0.7
					C46,1049.2,45.8,1049.3,45.6,1049.3z M62.6,1040.7c-0.6,0-1.1-0.3-1.3-0.8c-0.4-0.7-0.1-1.6,0.7-2l1.3-0.7
					c0.7-0.4,1.6-0.1,2,0.7c0.4,0.7,0.1,1.6-0.7,2l-1.3,0.7C63.1,1040.7,62.9,1040.7,62.6,1040.7z M79.7,1032.2
					c-0.6,0-1.1-0.3-1.3-0.8c-0.4-0.7-0.1-1.6,0.7-2l1.3-0.7c0.7-0.4,1.6-0.1,2,0.7c0.4,0.7,0.1,1.6-0.7,2l-1.3,0.7
					C80.1,1032.1,79.9,1032.2,79.7,1032.2z"/>
			</g>
			<g>
				<path class="st1" d="M96.8,1023.7c-0.6,0-1.1-0.3-1.3-0.8c-0.4-0.7-0.1-1.6,0.7-2l0.7-0.3c0.7-0.4,1.6-0.1,2,0.7
					c0.4,0.7,0.1,1.6-0.7,2l-0.7,0.3C97.2,1023.6,97,1023.7,96.8,1023.7z"/>
			</g>
		</g>
		<g class="st0">
			<path class="st1" d="M1274.3,115.8c-0.2,0-0.5-0.1-0.7-0.2l-1.3-0.7c-0.7-0.4-1-1.3-0.7-2c0.4-0.7,1.3-1,2-0.7l1.3,0.7
				c0.7,0.4,1,1.3,0.7,2C1275.4,115.5,1274.9,115.8,1274.3,115.8z M1256.9,107c-0.2,0-0.5-0.1-0.7-0.2l-1.3-0.7
				c-0.7-0.4-1-1.3-0.7-2c0.4-0.7,1.3-1,2-0.7l1.3,0.7c0.7,0.4,1,1.3,0.7,2C1258,106.7,1257.5,107,1256.9,107z M1239.5,98.2
				c-0.2,0-0.5-0.1-0.7-0.2l-1.3-0.7c-0.7-0.4-1-1.3-0.7-2c0.4-0.7,1.3-1,2-0.7l1.3,0.7c0.7,0.4,1,1.3,0.7,2
				C1240.6,97.9,1240.1,98.2,1239.5,98.2z M1222.1,89.5c-0.2,0-0.5-0.1-0.7-0.2l-1.3-0.7c-0.7-0.4-1-1.3-0.7-2c0.4-0.7,1.3-1,2-0.7
				l1.3,0.7c0.7,0.4,1,1.3,0.7,2C1223.2,89.2,1222.7,89.5,1222.1,89.5z M1204.7,80.7c-0.2,0-0.5-0.1-0.7-0.2l-1.3-0.7
				c-0.7-0.4-1-1.3-0.7-2c0.4-0.7,1.3-1,2-0.7l1.3,0.7c0.7,0.4,1,1.3,0.7,2C1205.8,80.4,1205.3,80.7,1204.7,80.7z M1187.3,72
				c-0.2,0-0.5-0.1-0.7-0.2l-1.3-0.7c-0.7-0.4-1-1.3-0.7-2c0.4-0.7,1.3-1,2-0.7l1.3,0.7c0.7,0.4,1,1.3,0.7,2
				C1188.4,71.7,1187.9,72,1187.3,72z M1169.9,63.2c-0.2,0-0.5-0.1-0.7-0.2l-1.3-0.7c-0.7-0.4-1-1.3-0.7-2c0.4-0.7,1.3-1,2-0.7
				l1.3,0.7c0.7,0.4,1,1.3,0.7,2C1171,62.9,1170.5,63.2,1169.9,63.2z M1152.5,54.5c-0.2,0-0.5-0.1-0.7-0.2l-1.3-0.7
				c-0.7-0.4-1-1.3-0.7-2c0.4-0.7,1.3-1,2-0.7l1.3,0.7c0.7,0.4,1,1.3,0.7,2C1153.6,54.2,1153.1,54.5,1152.5,54.5z M1135.1,45.7
				c-0.2,0-0.5-0.1-0.7-0.2l-1.3-0.7c-0.7-0.4-1-1.3-0.7-2c0.4-0.7,1.3-1,2-0.7l1.3,0.7c0.7,0.4,1,1.3,0.7,2
				C1136.2,45.4,1135.7,45.7,1135.1,45.7z M1117.7,36.9c-0.2,0-0.5-0.1-0.7-0.2l-1.3-0.7c-0.7-0.4-1-1.3-0.7-2c0.4-0.7,1.3-1,2-0.7
				l1.3,0.7c0.7,0.4,1,1.3,0.7,2C1118.8,36.6,1118.3,36.9,1117.7,36.9z M1100.3,28.2c-0.2,0-0.5-0.1-0.7-0.2l-1.3-0.7
				c-0.7-0.4-1-1.3-0.7-2c0.4-0.7,1.3-1,2-0.7l1.3,0.7c0.7,0.4,1,1.3,0.7,2C1101.4,27.9,1100.9,28.2,1100.3,28.2z M1082.9,19.4
				c-0.2,0-0.5-0.1-0.7-0.2l-1.3-0.7c-0.7-0.4-1-1.3-0.7-2c0.4-0.7,1.3-1,2-0.7l1.3,0.7c0.7,0.4,1,1.3,0.7,2
				C1084,19.1,1083.5,19.4,1082.9,19.4z M1065.5,10.7c-0.2,0-0.5-0.1-0.7-0.2l-1.3-0.7c-0.7-0.4-1-1.3-0.7-2c0.4-0.7,1.3-1,2-0.7
				l1.3,0.7c0.7,0.4,1,1.3,0.7,2C1066.6,10.4,1066.1,10.7,1065.5,10.7z M1048.1,1.9c-0.2,0-0.5-0.1-0.7-0.2l-1.3-0.7
				c-0.7-0.4-1-1.3-0.7-2c0.4-0.7,1.3-1,2-0.7l1.3,0.7c0.7,0.4,1,1.3,0.7,2C1049.2,1.6,1048.7,1.9,1048.1,1.9z M1030.7-6.8
				c-0.2,0-0.5-0.1-0.7-0.2l-1.3-0.7c-0.7-0.4-1-1.3-0.7-2c0.4-0.7,1.3-1,2-0.7l1.3,0.7c0.7,0.4,1,1.3,0.7,2
				C1031.8-7.1,1031.3-6.8,1030.7-6.8z M1013.3-15.6c-0.2,0-0.5-0.1-0.7-0.2l-1.3-0.7c-0.7-0.4-1-1.3-0.7-2c0.4-0.7,1.3-1,2-0.7
				l1.3,0.7c0.7,0.4,1,1.3,0.7,2C1014.4-15.9,1013.9-15.6,1013.3-15.6z M995.9-24.4c-0.2,0-0.5-0.1-0.7-0.2l-1.3-0.7
				c-0.7-0.4-1-1.3-0.7-2c0.4-0.7,1.3-1,2-0.7l1.3,0.7c0.7,0.4,1,1.3,0.7,2C997-24.7,996.5-24.4,995.9-24.4z M978.6-33.1
				c-0.2,0-0.5-0.1-0.7-0.2l-1.3-0.7c-0.7-0.4-1-1.3-0.7-2c0.4-0.7,1.3-1,2-0.7l1.3,0.7c0.7,0.4,1,1.3,0.7,2
				C979.6-33.4,979.1-33.1,978.6-33.1z M961.2-41.9c-0.2,0-0.5-0.1-0.7-0.2l-1.3-0.7c-0.7-0.4-1-1.3-0.7-2c0.4-0.7,1.3-1,2-0.7
				l1.3,0.7c0.7,0.4,1,1.3,0.7,2C962.2-42.2,961.7-41.9,961.2-41.9z M943.8-50.6c-0.2,0-0.5-0.1-0.7-0.2l-1.3-0.7
				c-0.7-0.4-1-1.3-0.7-2c0.4-0.7,1.3-1,2-0.7l1.3,0.7c0.7,0.4,1,1.3,0.7,2C944.8-50.9,944.3-50.6,943.8-50.6z M926.4-59.4
				c-0.2,0-0.5-0.1-0.7-0.2l-1.3-0.7c-0.7-0.4-1-1.3-0.7-2c0.4-0.7,1.3-1,2-0.7l1.3,0.7c0.7,0.4,1,1.3,0.7,2
				C927.4-59.7,926.9-59.4,926.4-59.4z M909-68.1c-0.2,0-0.5-0.1-0.7-0.2L907-69c-0.7-0.4-1-1.3-0.7-2c0.4-0.7,1.3-1,2-0.7l1.3,0.7
				c0.7,0.4,1,1.3,0.7,2C910-68.4,909.5-68.1,909-68.1z M891.6-76.9c-0.2,0-0.5-0.1-0.7-0.2l-1.3-0.7c-0.7-0.4-1-1.3-0.7-2
				c0.4-0.7,1.3-1,2-0.7l1.3,0.7c0.7,0.4,1,1.3,0.7,2C892.6-77.2,892.1-76.9,891.6-76.9z M874.2-85.7c-0.2,0-0.5-0.1-0.7-0.2
				l-1.3-0.7c-0.7-0.4-1-1.3-0.7-2c0.4-0.7,1.3-1,2-0.7l1.3,0.7c0.7,0.4,1,1.3,0.7,2C875.2-86,874.7-85.7,874.2-85.7z"/>
		</g>
		<g class="st0">
			<path class="st1" d="M311.7,97.9c-0.2,0-0.5-0.1-0.7-0.2l-1.3-0.7c-0.7-0.4-1-1.3-0.7-2c0.4-0.7,1.3-1,2-0.7l1.3,0.7
				c0.7,0.4,1,1.3,0.7,2C312.7,97.6,312.2,97.9,311.7,97.9z M294.3,89.2c-0.2,0-0.5-0.1-0.7-0.2l-1.3-0.7c-0.7-0.4-1-1.3-0.7-2
				c0.4-0.7,1.3-1,2-0.7l1.3,0.7c0.7,0.4,1,1.3,0.7,2C295.3,88.9,294.8,89.2,294.3,89.2z M276.9,80.4c-0.2,0-0.5-0.1-0.7-0.2
				l-1.3-0.7c-0.7-0.4-1-1.3-0.7-2c0.4-0.7,1.3-1,2-0.7l1.3,0.7c0.7,0.4,1,1.3,0.7,2C277.9,80.1,277.4,80.4,276.9,80.4z M259.5,71.7
				c-0.2,0-0.5-0.1-0.7-0.2l-1.3-0.7c-0.7-0.4-1-1.3-0.7-2c0.4-0.7,1.3-1,2-0.7l1.3,0.7c0.7,0.4,1,1.3,0.7,2
				C260.5,71.4,260,71.7,259.5,71.7z M242.1,62.9c-0.2,0-0.5-0.1-0.7-0.2l-1.3-0.7c-0.7-0.4-1-1.3-0.7-2c0.4-0.7,1.3-1,2-0.7
				l1.3,0.7c0.7,0.4,1,1.3,0.7,2C243.2,62.6,242.6,62.9,242.1,62.9z M224.7,54.1c-0.2,0-0.5-0.1-0.7-0.2l-1.3-0.7
				c-0.7-0.4-1-1.3-0.7-2c0.4-0.7,1.3-1,2-0.7l1.3,0.7c0.7,0.4,1,1.3,0.7,2C225.8,53.8,225.2,54.1,224.7,54.1z M207.3,45.4
				c-0.2,0-0.5-0.1-0.7-0.2l-1.3-0.7c-0.7-0.4-1-1.3-0.7-2c0.4-0.7,1.3-1,2-0.7l1.3,0.7c0.7,0.4,1,1.3,0.7,2
				C208.4,45.1,207.8,45.4,207.3,45.4z M189.9,36.6c-0.2,0-0.5-0.1-0.7-0.2l-1.3-0.7c-0.7-0.4-1-1.3-0.7-2c0.4-0.7,1.3-1,2-0.7
				l1.3,0.7c0.7,0.4,1,1.3,0.7,2C191,36.3,190.4,36.6,189.9,36.6z M172.5,27.9c-0.2,0-0.5-0.1-0.7-0.2l-1.3-0.7
				c-0.7-0.4-1-1.3-0.7-2c0.4-0.7,1.3-1,2-0.7l1.3,0.7c0.7,0.4,1,1.3,0.7,2C173.6,27.6,173,27.9,172.5,27.9z M155.1,19.1
				c-0.2,0-0.5-0.1-0.7-0.2l-1.3-0.7c-0.7-0.4-1-1.3-0.7-2c0.4-0.7,1.3-1,2-0.7l1.3,0.7c0.7,0.4,1,1.3,0.7,2
				C156.2,18.8,155.6,19.1,155.1,19.1z M137.7,10.4c-0.2,0-0.5-0.1-0.7-0.2l-1.3-0.7c-0.7-0.4-1-1.3-0.7-2c0.4-0.7,1.3-1,2-0.7
				l1.3,0.7c0.7,0.4,1,1.3,0.7,2C138.8,10.1,138.2,10.4,137.7,10.4z M120.3,1.6c-0.2,0-0.5-0.1-0.7-0.2l-1.3-0.7
				c-0.7-0.4-1-1.3-0.7-2c0.4-0.7,1.3-1,2-0.7l1.3,0.7c0.7,0.4,1,1.3,0.7,2C121.4,1.3,120.8,1.6,120.3,1.6z M102.9-7.2
				c-0.2,0-0.5-0.1-0.7-0.2L100.9-8c-0.7-0.4-1-1.3-0.7-2c0.4-0.7,1.3-1,2-0.7l1.3,0.7c0.7,0.4,1,1.3,0.7,2
				C104-7.5,103.4-7.2,102.9-7.2z M85.5-15.9c-0.2,0-0.5-0.1-0.7-0.2l-1.3-0.7c-0.7-0.4-1-1.3-0.7-2c0.4-0.7,1.3-1,2-0.7l1.3,0.7
				c0.7,0.4,1,1.3,0.7,2C86.6-16.2,86-15.9,85.5-15.9z M68.1-24.7c-0.2,0-0.5-0.1-0.7-0.2l-1.3-0.7c-0.7-0.4-1-1.3-0.7-2
				c0.4-0.7,1.3-1,2-0.7l1.3,0.7c0.7,0.4,1,1.3,0.7,2C69.2-25,68.7-24.7,68.1-24.7z M50.7-33.4c-0.2,0-0.5-0.1-0.7-0.2l-1.3-0.7
				c-0.7-0.4-1-1.3-0.7-2c0.4-0.7,1.3-1,2-0.7l1.3,0.7c0.7,0.4,1,1.3,0.7,2C51.8-33.7,51.3-33.4,50.7-33.4z M33.3-42.2
				c-0.2,0-0.5-0.1-0.7-0.2L31.3-43c-0.7-0.4-1-1.3-0.7-2c0.4-0.7,1.3-1,2-0.7L34-45c0.7,0.4,1,1.3,0.7,2
				C34.4-42.5,33.9-42.2,33.3-42.2z M15.9-50.9c-0.2,0-0.5-0.1-0.7-0.2l-1.3-0.7c-0.7-0.4-1-1.3-0.7-2c0.4-0.7,1.3-1,2-0.7l1.3,0.7
				c0.7,0.4,1,1.3,0.7,2C17-51.2,16.5-50.9,15.9-50.9z M-1.5-59.7c-0.2,0-0.5-0.1-0.7-0.2l-1.3-0.7c-0.7-0.4-1-1.3-0.7-2
				c0.4-0.7,1.3-1,2-0.7l1.3,0.7c0.7,0.4,1,1.3,0.7,2C-0.4-60-0.9-59.7-1.5-59.7z M-18.9-68.5c-0.2,0-0.5-0.1-0.7-0.2l-1.3-0.7
				c-0.7-0.4-1-1.3-0.7-2c0.4-0.7,1.3-1,2-0.7l1.3,0.7c0.7,0.4,1,1.3,0.7,2C-17.8-68.8-18.3-68.5-18.9-68.5z M-36.3-77.2
				c-0.2,0-0.5-0.1-0.7-0.2l-1.3-0.7c-0.7-0.4-1-1.3-0.7-2c0.4-0.7,1.3-1,2-0.7l1.3,0.7c0.7,0.4,1,1.3,0.7,2
				C-35.2-77.5-35.7-77.2-36.3-77.2z M-53.7-86c-0.2,0-0.5-0.1-0.7-0.2l-1.3-0.7c-0.7-0.4-1-1.3-0.7-2c0.4-0.7,1.3-1,2-0.7l1.3,0.7
				c0.7,0.4,1,1.3,0.7,2C-52.6-86.3-53.1-86-53.7-86z M-71.1-94.7c-0.2,0-0.5-0.1-0.7-0.2l-1.3-0.7c-0.7-0.4-1-1.3-0.7-2
				c0.4-0.7,1.3-1,2-0.7l1.3,0.7c0.7,0.4,1,1.3,0.7,2C-70-95-70.5-94.7-71.1-94.7z M-88.5-103.5c-0.2,0-0.5-0.1-0.7-0.2l-1.3-0.7
				c-0.7-0.4-1-1.3-0.7-2c0.4-0.7,1.3-1,2-0.7l1.3,0.7c0.7,0.4,1,1.3,0.7,2C-87.4-103.8-87.9-103.5-88.5-103.5z"/>
		</g>
		<g class="st0">
			<g>
				<path class="st1" d="M1609,345.6c-0.5,0-1.1-0.3-1.3-0.8c-0.4-0.7-0.1-1.6,0.6-2l0.7-0.4c0.7-0.4,1.6-0.1,2,0.6
					c0.4,0.7,0.1,1.6-0.6,2l-0.7,0.4C1609.5,345.6,1609.3,345.6,1609,345.6z"/>
			</g>
			<g>
				<path class="st1" d="M1625.5,336.9c-0.5,0-1.1-0.3-1.3-0.8c-0.4-0.7-0.1-1.6,0.6-2l1.3-0.7c0.7-0.4,1.6-0.1,2,0.6
					c0.4,0.7,0.1,1.6-0.6,2l-1.3,0.7C1626,336.8,1625.7,336.9,1625.5,336.9z M1642.6,327.8c-0.5,0-1.1-0.3-1.3-0.8
					c-0.4-0.7-0.1-1.6,0.6-2l1.3-0.7c0.7-0.4,1.6-0.1,2,0.6c0.4,0.7,0.1,1.6-0.6,2l-1.3,0.7C1643,327.8,1642.8,327.8,1642.6,327.8z
					 M1659.7,318.7c-0.5,0-1.1-0.3-1.3-0.8c-0.4-0.7-0.1-1.6,0.6-2l1.3-0.7c0.7-0.4,1.6-0.1,2,0.6c0.4,0.7,0.1,1.6-0.6,2l-1.3,0.7
					C1660.1,318.7,1659.9,318.7,1659.7,318.7z M1676.7,309.6c-0.5,0-1.1-0.3-1.3-0.8c-0.4-0.7-0.1-1.6,0.6-2l1.3-0.7
					c0.7-0.4,1.6-0.1,2,0.6c0.4,0.7,0.1,1.6-0.6,2l-1.3,0.7C1677.2,309.6,1677,309.6,1676.7,309.6z M1693.8,300.6
					c-0.5,0-1.1-0.3-1.3-0.8c-0.4-0.7-0.1-1.6,0.6-2l1.3-0.7c0.7-0.4,1.6-0.1,2,0.6c0.4,0.7,0.1,1.6-0.6,2l-1.3,0.7
					C1694.3,300.5,1694.1,300.6,1693.8,300.6z M1710.9,291.5c-0.5,0-1.1-0.3-1.3-0.8c-0.4-0.7-0.1-1.6,0.6-2l1.3-0.7
					c0.7-0.4,1.6-0.1,2,0.6c0.4,0.7,0.1,1.6-0.6,2l-1.3,0.7C1711.4,291.4,1711.2,291.5,1710.9,291.5z"/>
			</g>
			<g>
				<path class="st1" d="M1728,282.4c-0.5,0-1.1-0.3-1.3-0.8c-0.4-0.7-0.1-1.5,0.5-2c0.1-0.8,0.7-1.4,1.5-1.4c0.8,0,1.5,0.7,1.5,1.5
					v0.7c0,0.6-0.3,1.1-0.8,1.3l-0.7,0.4C1728.5,282.3,1728.3,282.4,1728,282.4z"/>
			</g>
			<g>
				<path class="st1" d="M1728.7,263.1c-0.8,0-1.5-0.7-1.5-1.5v-1.5c0-0.8,0.7-1.5,1.5-1.5c0.8,0,1.5,0.7,1.5,1.5v1.5
					C1730.2,262.5,1729.5,263.1,1728.7,263.1z M1728.7,243.5c-0.8,0-1.5-0.7-1.5-1.5v-1.5c0-0.8,0.7-1.5,1.5-1.5
					c0.8,0,1.5,0.7,1.5,1.5v1.5C1730.2,242.8,1729.5,243.5,1728.7,243.5z M1728.7,223.8c-0.8,0-1.5-0.7-1.5-1.5v-1.5
					c0-0.8,0.7-1.5,1.5-1.5c0.8,0,1.5,0.7,1.5,1.5v1.5C1730.2,223.1,1729.5,223.8,1728.7,223.8z M1728.7,204.1
					c-0.8,0-1.5-0.7-1.5-1.5v-1.5c0-0.8,0.7-1.5,1.5-1.5c0.8,0,1.5,0.7,1.5,1.5v1.5C1730.2,203.4,1729.5,204.1,1728.7,204.1z
					 M1728.7,184.4c-0.8,0-1.5-0.7-1.5-1.5v-1.5c0-0.8,0.7-1.5,1.5-1.5c0.8,0,1.5,0.7,1.5,1.5v1.5
					C1730.2,183.8,1729.5,184.4,1728.7,184.4z M1728.7,164.7c-0.8,0-1.5-0.7-1.5-1.5v-1.5c0-0.8,0.7-1.5,1.5-1.5
					c0.8,0,1.5,0.7,1.5,1.5v1.5C1730.2,164.1,1729.5,164.7,1728.7,164.7z M1728.7,145.1c-0.8,0-1.5-0.7-1.5-1.5v-1.5
					c0-0.8,0.7-1.5,1.5-1.5c0.8,0,1.5,0.7,1.5,1.5v1.5C1730.2,144.4,1729.5,145.1,1728.7,145.1z M1728.7,125.4
					c-0.8,0-1.5-0.7-1.5-1.5v-1.5c0-0.8,0.7-1.5,1.5-1.5c0.8,0,1.5,0.7,1.5,1.5v1.5C1730.2,124.7,1729.5,125.4,1728.7,125.4z
					 M1728.7,105.7c-0.8,0-1.5-0.7-1.5-1.5v-1.5c0-0.8,0.7-1.5,1.5-1.5c0.8,0,1.5,0.7,1.5,1.5v1.5
					C1730.2,105,1729.5,105.7,1728.7,105.7z M1728.7,86c-0.8,0-1.5-0.7-1.5-1.5V83c0-0.8,0.7-1.5,1.5-1.5c0.8,0,1.5,0.7,1.5,1.5v1.5
					C1730.2,85.4,1729.5,86,1728.7,86z M1728.7,66.4c-0.8,0-1.5-0.7-1.5-1.5v-1.5c0-0.8,0.7-1.5,1.5-1.5c0.8,0,1.5,0.7,1.5,1.5v1.5
					C1730.2,65.7,1729.5,66.4,1728.7,66.4z M1728.7,46.7c-0.8,0-1.5-0.7-1.5-1.5v-1.5c0-0.8,0.7-1.5,1.5-1.5c0.8,0,1.5,0.7,1.5,1.5
					v1.5C1730.2,46,1729.5,46.7,1728.7,46.7z M1728.7,27c-0.8,0-1.5-0.7-1.5-1.5V24c0-0.8,0.7-1.5,1.5-1.5c0.8,0,1.5,0.7,1.5,1.5
					v1.5C1730.2,26.3,1729.5,27,1728.7,27z"/>
			</g>
			<g>
				<path class="st1" d="M1728.7,7.3c-0.8,0-1.5-0.7-1.5-1.5V5.1c0-0.8,0.7-1.5,1.5-1.5c0.8,0,1.5,0.7,1.5,1.5v0.7
					C1730.2,6.7,1729.5,7.3,1728.7,7.3z"/>
			</g>
		</g>
		<g class="st0">
			<g>
				<path class="st1" d="M1704.4,981.4c-0.2,0-0.5-0.1-0.7-0.2l-0.7-0.4c-0.7-0.4-1-1.3-0.6-2c0.4-0.7,1.3-1,2-0.6l0.7,0.4
					c0.7,0.4,1,1.3,0.6,2C1705.4,981.1,1704.9,981.4,1704.4,981.4z"/>
			</g>
			<g>
				<path class="st1" d="M1735.9,998.1c-0.2,0-0.5-0.1-0.7-0.2l-1.2-0.6c-0.7-0.4-1-1.3-0.6-2c0.4-0.7,1.3-1,2-0.6l1.2,0.6
					c0.7,0.4,1,1.3,0.6,2C1737,997.8,1736.5,998.1,1735.9,998.1z M1720.1,989.7c-0.2,0-0.5-0.1-0.7-0.2l-1.2-0.6
					c-0.7-0.4-1-1.3-0.6-2c0.4-0.7,1.3-1,2-0.6l1.2,0.6c0.7,0.4,1,1.3,0.6,2C1721.2,989.5,1720.7,989.7,1720.1,989.7z"/>
			</g>
			<g>
				<path class="st1" d="M1751.1,1006.2c-0.2,0-0.5-0.1-0.7-0.2l-0.7-0.4c-0.7-0.4-1-1.3-0.6-2c0.4-0.7,1.3-1,2-0.6l0.7,0.4
					c0.7,0.4,1,1.3,0.6,2C1752.2,1005.9,1751.7,1006.2,1751.1,1006.2z"/>
			</g>
		</g>
		<g class="st0">
			<path class="st1" d="M411.1,941c-0.8,0-1.5-0.7-1.5-1.5v-24.4c0-0.8,0.7-1.5,1.5-1.5c0.8,0,1.5,0.7,1.5,1.5v24.4
				C412.6,940.3,411.9,941,411.1,941z"/>
		</g>
		<g class="st0">
			<g>
				<path class="st1" d="M-71,414.9c-0.5,0-1.1-0.3-1.3-0.8c-0.4-0.7-0.1-1.6,0.7-2l248.5-126.5c0.7-0.4,1.6-0.1,2,0.7
					c0.4,0.7,0.1,1.6-0.7,2L-70.3,414.7C-70.5,414.8-70.7,414.9-71,414.9z"/>
			</g>
			<g>
				<path class="st1" d="M-71,392.8c-0.5,0-1.1-0.3-1.3-0.8c-0.4-0.7-0.1-1.6,0.7-2l248.5-126.5c0.7-0.4,1.6-0.1,2,0.7
					c0.4,0.7,0.1,1.6-0.7,2L-70.3,392.6C-70.5,392.7-70.7,392.8-71,392.8z"/>
			</g>
			<g>
				<path class="st1" d="M177.5,288.4c-0.8,0-1.5-0.7-1.5-1.5v-22.1c0-0.8,0.7-1.5,1.5-1.5c0.8,0,1.5,0.7,1.5,1.5v22.1
					C179,287.7,178.3,288.4,177.5,288.4z"/>
			</g>
		</g>
		<g class="st0">
			<path class="st1" d="M261.8,991.9c-0.8,0-1.5-0.7-1.5-1.5V719.7c0-0.8,0.7-1.5,1.5-1.5c0.8,0,1.5,0.7,1.5,1.5v270.7
				C263.3,991.3,262.6,991.9,261.8,991.9z"/>
		</g>
		<g class="st0">
			<path class="st1" d="M238.4,1002.4c-0.8,0-1.5-0.7-1.5-1.5V731.7c0-0.8,0.7-1.5,1.5-1.5c0.8,0,1.5,0.7,1.5,1.5v269.2
				C239.9,1001.7,239.2,1002.4,238.4,1002.4z"/>
		</g>
		<g class="st0">
			<g>
				<path class="st1" d="M-25.5,170c-0.5,0-1-0.3-1.3-0.8c-0.4-0.7-0.1-1.6,0.6-2l0.5-0.3c0.1,0,0.1-0.1,0.2-0.1l0.6-0.3l0,0
					l0.6-0.3c0.1,0,0.2-0.1,0.3-0.1c0.2-0.1,0.3-0.1,0.5-0.2c0.8-0.3,1.6,0,2,0.7c0.3,0.8,0,1.6-0.7,2c-0.2,0.1-0.4,0.2-0.6,0.3
					c-0.1,0-0.2,0.1-0.2,0.1l-0.4,0.2c0,0,0,0,0,0l-0.4,0.2c0,0-0.1,0.1-0.2,0.1l-0.6,0.3C-25,169.9-25.3,170-25.5,170z"/>
			</g>
			<g>
				<path class="st1" d="M40.1,231.4c0,0-0.1,0-0.1,0c-0.5,0-1-0.1-1.5-0.1c-0.8-0.1-1.4-0.8-1.3-1.6c0.1-0.8,0.8-1.4,1.6-1.3
					c0.5,0,1,0.1,1.4,0.1c0.8,0.1,1.4,0.8,1.4,1.6C41.5,230.8,40.8,231.4,40.1,231.4z M57.6,231c-0.7,0-1.4-0.6-1.5-1.3
					c-0.1-0.8,0.5-1.6,1.3-1.7c0.5-0.1,0.9-0.1,1.4-0.2c0.8-0.1,1.6,0.4,1.7,1.3c0.1,0.8-0.4,1.6-1.3,1.7c-0.5,0.1-1,0.1-1.5,0.2
					C57.8,231,57.7,231,57.6,231z M21.5,227.3c-0.2,0-0.4,0-0.5-0.1c-0.5-0.2-0.9-0.4-1.4-0.6c-0.8-0.3-1.1-1.2-0.8-2
					c0.3-0.8,1.2-1.1,2-0.8c0.4,0.2,0.9,0.4,1.3,0.5c0.8,0.3,1.2,1.2,0.9,1.9C22.6,227,22.1,227.3,21.5,227.3z M75.9,225.8
					c-0.6,0-1.1-0.3-1.3-0.8c-0.4-0.7-0.1-1.6,0.7-2l0.6-0.3c0.2-0.1,0.4-0.2,0.7-0.3c0.7-0.4,1.6-0.1,2,0.6c0.4,0.7,0.1,1.6-0.6,2
					c-0.2,0.1-0.5,0.3-0.7,0.4l-0.6,0.3C76.4,225.8,76.1,225.8,75.9,225.8z M4.3,219c-0.2,0-0.5-0.1-0.7-0.2l-1.3-0.7
					c-0.7-0.4-1-1.3-0.7-2c0.4-0.7,1.3-1,2-0.7l1.3,0.7c0.7,0.4,1,1.3,0.7,2C5.4,218.7,4.9,219,4.3,219z M88.3,212.2
					c-0.1,0-0.2,0-0.4,0c-0.8-0.2-1.3-1-1.1-1.8c0.1-0.4,0.2-0.9,0.3-1.3c0.1-0.8,0.9-1.4,1.7-1.3c0.8,0.1,1.4,0.9,1.3,1.7
					c-0.1,0.5-0.2,1-0.3,1.6C89.6,211.7,89,212.2,88.3,212.2z M-12.7,210.5c-0.2,0-0.5-0.1-0.7-0.2l-1.3-0.7c-0.7-0.4-1-1.3-0.7-2
					c0.4-0.7,1.3-1,2-0.7l1.3,0.7c0.7,0.4,1,1.3,0.7,2C-11.7,210.2-12.2,210.5-12.7,210.5z M-29.5,201.4c-0.3,0-0.7-0.1-1-0.3
					c-0.4-0.3-0.8-0.7-1.2-1c-0.6-0.6-0.6-1.5-0.1-2.1c0.6-0.6,1.5-0.6,2.1-0.1c0.3,0.3,0.7,0.6,1,0.9c0.6,0.5,0.7,1.5,0.2,2.1
					C-28.6,201.2-29,201.4-29.5,201.4z M83.5,194.8c-0.4,0-0.7-0.1-1-0.4c-0.3-0.3-0.7-0.6-1.1-0.9c-0.6-0.5-0.8-1.5-0.2-2.1
					c0.5-0.6,1.5-0.8,2.1-0.2c0.4,0.3,0.8,0.7,1.2,1c0.6,0.6,0.7,1.5,0.1,2.1C84.3,194.6,83.9,194.8,83.5,194.8z M67,185.4
					c-0.2,0-0.5-0.1-0.7-0.2l-1.3-0.7c-0.7-0.4-1-1.3-0.7-2c0.4-0.7,1.3-1,2-0.7l1.3,0.7c0.7,0.4,1,1.3,0.7,2
					C68.1,185.1,67.5,185.4,67,185.4z M-36.5,184.5c-0.8,0-1.5-0.6-1.5-1.4c0-0.2,0-0.3,0-0.5c0-0.4,0-0.8,0.1-1.2
					c0.1-0.8,0.8-1.4,1.6-1.3c0.8,0.1,1.4,0.8,1.3,1.6c0,0.3,0,0.6,0,0.9c0,0.1,0,0.2,0,0.4C-35,183.8-35.6,184.5-36.5,184.5
					C-36.5,184.5-36.5,184.5-36.5,184.5z M49.9,176.8c-0.2,0-0.5-0.1-0.7-0.2l-1.3-0.7c-0.7-0.4-1-1.3-0.7-2c0.4-0.7,1.3-1,2-0.7
					l1.3,0.7c0.7,0.4,1,1.3,0.7,2C51,176.5,50.5,176.8,49.9,176.8z M32.8,168.4c-0.2,0-0.4,0-0.6-0.1c-0.4-0.2-0.9-0.4-1.3-0.6
					c-0.8-0.3-1.1-1.2-0.8-1.9c0.3-0.8,1.2-1.1,1.9-0.8c0.5,0.2,0.9,0.4,1.4,0.6c0.8,0.3,1.1,1.2,0.8,2
					C34,168,33.4,168.4,32.8,168.4z M-6.1,164c-0.7,0-1.4-0.5-1.5-1.3c-0.1-0.8,0.5-1.6,1.3-1.7c0.5-0.1,1-0.1,1.5-0.2
					c0.8-0.1,1.6,0.5,1.7,1.3c0.1,0.8-0.5,1.6-1.3,1.7c-0.5,0.1-0.9,0.1-1.4,0.2C-5.9,164-6,164-6.1,164z M14.4,163.7
					c-0.1,0-0.1,0-0.2,0c-0.5-0.1-1-0.1-1.4-0.1c-0.8-0.1-1.4-0.8-1.4-1.6c0.1-0.8,0.8-1.4,1.6-1.4c0.5,0,1,0.1,1.5,0.2
					c0.8,0.1,1.4,0.8,1.3,1.7C15.8,163.1,15.2,163.7,14.4,163.7z"/>
			</g>
		</g>
		<g class="st0">
			<path class="st1" d="M1750.8,296c-0.8,0-1.5-0.7-1.5-1.5V0c0-0.8,0.7-1.5,1.5-1.5c0.8,0,1.5,0.7,1.5,1.5v294.5
				C1752.3,295.3,1751.7,296,1750.8,296z"/>
		</g>
		<g class="st0">
			<path class="st1" d="M1774.1,308c-0.8,0-1.5-0.7-1.5-1.5V0c0-0.8,0.7-1.5,1.5-1.5c0.8,0,1.5,0.7,1.5,1.5v306.5
				C1775.6,307.3,1774.9,308,1774.1,308z"/>
		</g>
		<g class="st0">
			<path class="st1" d="M1609.7,668.9c-0.7,0-1.4-0.5-1.5-1.3c-0.1-0.8,0.5-1.6,1.3-1.7c0.5-0.1,0.9-0.1,1.4-0.2
				c0.8-0.1,1.6,0.4,1.7,1.2c0.1,0.8-0.4,1.6-1.2,1.7c-0.5,0.1-1,0.2-1.5,0.2C1609.8,668.9,1609.8,668.9,1609.7,668.9z
				 M1592.5,668.7c-0.1,0-0.2,0-0.3,0c-0.5-0.1-1-0.2-1.5-0.3c-0.8-0.2-1.3-0.9-1.2-1.8c0.2-0.8,0.9-1.3,1.8-1.2
				c0.5,0.1,0.9,0.2,1.4,0.3c0.8,0.1,1.4,0.9,1.2,1.7C1593.9,668.2,1593.2,668.7,1592.5,668.7z M1627.2,662.8c-0.5,0-1-0.2-1.3-0.7
				c-0.4-0.7-0.2-1.6,0.5-2.1c0.4-0.2,0.8-0.5,1.1-0.8c0.7-0.5,1.6-0.3,2.1,0.4c0.5,0.7,0.3,1.6-0.4,2.1c-0.4,0.3-0.8,0.6-1.3,0.8
				C1627.8,662.7,1627.5,662.8,1627.2,662.8z M1575.2,662c-0.3,0-0.6-0.1-0.9-0.3c-0.4-0.3-0.8-0.6-1.2-0.9
				c-0.7-0.5-0.8-1.4-0.3-2.1c0.5-0.7,1.4-0.8,2.1-0.3c0.4,0.3,0.7,0.5,1.1,0.8c0.7,0.5,0.8,1.4,0.4,2.1
				C1576.2,661.8,1575.7,662,1575.2,662z M1637.7,648c0,0-0.1,0-0.1,0c-0.8-0.1-1.4-0.8-1.3-1.6c0-0.4,0.1-0.9,0.1-1.3
				c0-0.8,0.7-1.6,1.5-1.6c0.8,0,1.5,0.6,1.5,1.4v0.1c0,0.5,0,1.1-0.1,1.6C1639.1,647.5,1638.4,648,1637.7,648z M1565.8,646.6
				c-0.8,0-1.5-0.6-1.5-1.5v-0.1c0-0.5,0-1,0.1-1.5c0.1-0.8,0.8-1.4,1.6-1.4c0.8,0.1,1.4,0.8,1.4,1.6c0,0.4-0.1,0.8-0.1,1.2
				C1567.3,645.9,1566.7,646.6,1565.8,646.6z M1629.5,632c-0.3,0-0.6-0.1-0.9-0.3c-0.4-0.3-0.7-0.5-1.1-0.8
				c-0.7-0.5-0.8-1.4-0.4-2.1c0.5-0.7,1.4-0.8,2.1-0.4c0.4,0.3,0.8,0.6,1.2,0.9c0.7,0.5,0.8,1.4,0.3,2.1
				C1630.4,631.8,1629.9,632,1629.5,632z M1575.1,631.3c-0.5,0-0.9-0.2-1.2-0.6c-0.5-0.7-0.3-1.6,0.4-2.1c0.4-0.3,0.8-0.6,1.2-0.8
				c0.7-0.4,1.6-0.2,2.1,0.5c0.4,0.7,0.2,1.6-0.5,2.1c-0.4,0.3-0.8,0.5-1.1,0.8C1575.7,631.2,1575.4,631.3,1575.1,631.3z
				 M1612.4,624.8c-0.1,0-0.2,0-0.3,0c-0.5-0.1-0.9-0.2-1.4-0.3c-0.8-0.1-1.4-0.9-1.2-1.7c0.1-0.8,0.9-1.4,1.7-1.2
				c0.5,0.1,1,0.2,1.5,0.3c0.8,0.2,1.3,0.9,1.2,1.8C1613.7,624.3,1613.1,624.8,1612.4,624.8z M1592.4,624.6c-0.7,0-1.4-0.5-1.5-1.2
				c-0.1-0.8,0.4-1.6,1.2-1.7c0.5-0.1,1-0.2,1.5-0.2c0.8-0.1,1.6,0.5,1.7,1.3c0.1,0.8-0.5,1.6-1.3,1.7c-0.5,0.1-0.9,0.1-1.4,0.2
				C1592.6,624.6,1592.5,624.6,1592.4,624.6z"/>
		</g>
		<g class="st0">
			<path class="st1" d="M318.9,257.5c-0.7,0-1.4-0.5-1.5-1.3c-0.1-0.8,0.5-1.6,1.3-1.7c0.5-0.1,0.9-0.1,1.4-0.2
				c0.8-0.1,1.6,0.4,1.7,1.2c0.1,0.8-0.4,1.6-1.2,1.7c-0.5,0.1-1,0.2-1.5,0.2C319,257.5,319,257.5,318.9,257.5z M301.7,257.3
				c-0.1,0-0.2,0-0.3,0c-0.5-0.1-1-0.2-1.5-0.3c-0.8-0.2-1.3-0.9-1.2-1.8c0.2-0.8,0.9-1.3,1.8-1.2c0.5,0.1,0.9,0.2,1.4,0.3
				c0.8,0.1,1.4,0.9,1.2,1.7C303.1,256.8,302.4,257.3,301.7,257.3z M336.4,251.4c-0.5,0-1-0.2-1.3-0.7c-0.4-0.7-0.2-1.6,0.5-2.1
				c0.4-0.2,0.8-0.5,1.1-0.8c0.7-0.5,1.6-0.3,2.1,0.4c0.5,0.7,0.3,1.6-0.4,2.1c-0.4,0.3-0.8,0.6-1.3,0.8
				C337,251.3,336.7,251.4,336.4,251.4z M284.4,250.6c-0.3,0-0.6-0.1-0.9-0.3c-0.4-0.3-0.8-0.6-1.2-0.9c-0.7-0.5-0.8-1.4-0.3-2.1
				c0.5-0.7,1.4-0.8,2.1-0.3c0.4,0.3,0.7,0.5,1.1,0.8c0.7,0.5,0.8,1.4,0.4,2.1C285.3,250.4,284.9,250.6,284.4,250.6z M346.9,236.6
				c0,0-0.1,0-0.1,0c-0.8-0.1-1.4-0.8-1.3-1.6c0-0.4,0.1-0.9,0.1-1.3c0-0.8,0.7-1.6,1.5-1.6c0.8,0,1.5,0.6,1.5,1.4v0.1
				c0,0.5,0,1.1-0.1,1.6C348.3,236.1,347.6,236.6,346.9,236.6z M275,235.2c-0.8,0-1.5-0.6-1.5-1.5v-0.1c0-0.5,0-1,0.1-1.5
				c0.1-0.8,0.8-1.4,1.6-1.4c0.8,0.1,1.4,0.8,1.4,1.6c0,0.4-0.1,0.8-0.1,1.2C276.5,234.5,275.8,235.2,275,235.2z M338.7,220.6
				c-0.3,0-0.6-0.1-0.9-0.3c-0.4-0.3-0.7-0.5-1.1-0.8c-0.7-0.5-0.8-1.4-0.4-2.1c0.5-0.7,1.4-0.8,2.1-0.4c0.4,0.3,0.8,0.6,1.2,0.9
				c0.7,0.5,0.8,1.4,0.3,2.1C339.6,220.4,339.1,220.6,338.7,220.6z M284.3,219.9c-0.5,0-0.9-0.2-1.2-0.6c-0.5-0.7-0.3-1.6,0.4-2.1
				c0.4-0.3,0.8-0.6,1.2-0.8c0.7-0.4,1.6-0.2,2.1,0.5c0.4,0.7,0.2,1.6-0.5,2.1c-0.4,0.2-0.8,0.5-1.1,0.8
				C284.9,219.8,284.6,219.9,284.3,219.9z M321.6,213.4c-0.1,0-0.2,0-0.3,0c-0.5-0.1-0.9-0.2-1.4-0.2c-0.8-0.1-1.4-0.9-1.2-1.7
				c0.1-0.8,0.9-1.4,1.7-1.2c0.5,0.1,1,0.2,1.4,0.3c0.8,0.2,1.3,0.9,1.2,1.8C322.9,212.9,322.3,213.4,321.6,213.4z M301.6,213.2
				c-0.7,0-1.4-0.5-1.5-1.2c-0.1-0.8,0.4-1.6,1.2-1.7c0.5-0.1,1-0.2,1.5-0.2c0.8-0.1,1.6,0.5,1.7,1.3c0.1,0.8-0.5,1.6-1.3,1.7
				c-0.5,0.1-0.9,0.1-1.4,0.2C301.7,213.2,301.7,213.2,301.6,213.2z"/>
		</g>
		<g class="st0">
			<path class="st1" d="M26.1,345.6c-0.8,0-1.5-0.7-1.5-1.5v-1.5c0-0.8,0.7-1.5,1.5-1.5c0.8,0,1.5,0.7,1.5,1.5v1.5
				C27.6,345,27,345.6,26.1,345.6z M26.1,326.1c-0.8,0-1.5-0.7-1.5-1.5v-1.5c0-0.8,0.7-1.5,1.5-1.5c0.8,0,1.5,0.7,1.5,1.5v1.5
				C27.6,325.5,27,326.1,26.1,326.1z M26.1,306.7c-0.8,0-1.5-0.7-1.5-1.5v-1.5c0-0.8,0.7-1.5,1.5-1.5c0.8,0,1.5,0.7,1.5,1.5v1.5
				C27.6,306,27,306.7,26.1,306.7z M26.1,287.2c-0.8,0-1.5-0.7-1.5-1.5v-1.5c0-0.8,0.7-1.5,1.5-1.5c0.8,0,1.5,0.7,1.5,1.5v1.5
				C27.6,286.5,27,287.2,26.1,287.2z M26.1,267.7c-0.8,0-1.5-0.7-1.5-1.5v-1.5c0-0.8,0.7-1.5,1.5-1.5c0.8,0,1.5,0.7,1.5,1.5v1.5
				C27.6,267,27,267.7,26.1,267.7z M26.1,248.2c-0.8,0-1.5-0.7-1.5-1.5v-1.5c0-0.8,0.7-1.5,1.5-1.5c0.8,0,1.5,0.7,1.5,1.5v1.5
				C27.6,247.6,27,248.2,26.1,248.2z"/>
		</g>
	</g>
</g>
<g id="Icons">
	<g>
		<defs>
			<rect id="SVGID_3_" width="1920" height="1079.4"/>
		</defs>
		<clipPath id="SVGID_4_">
			<use xlink:href="#SVGID_3_"  style="overflow:visible;"/>
		</clipPath>
		<g class="st3">
			<g>
				<path class="st4" d="M331.3,298.1c12.1,6.1,12.1,15.9,0,22c-12.1,6.1-31.8,6.1-43.9,0c-12.1-6.1-12.1-15.9,0-22
					C299.5,292,319.2,292,331.3,298.1z"/>
			</g>
			<g>
				<path class="st5" d="M341.1,290.4l-63.5,2.4l8.3,60.9c0,3,2.3,6,6.9,8.3c9.1,4.6,24,4.6,33.1,0c4.6-2.3,6.9-5.3,6.9-8.3
					L341.1,290.4z"/>
			</g>
			<g>
				<path class="st4" d="M331.8,280.6c12.4,6.2,12.4,16.2,0,22.4c-12.4,6.2-32.5,6.2-44.9,0c-12.4-6.2-12.4-16.2,0-22.4
					C299.3,274.4,319.4,274.4,331.8,280.6z"/>
			</g>
			<g>
				<path class="st5" d="M329.1,277.1c10.9,5.4,10.9,14.3,0,19.7c-10.9,5.4-28.5,5.4-39.4,0c-10.9-5.4-10.9-14.3,0-19.7
					C300.5,271.7,318.2,271.7,329.1,277.1z"/>
			</g>
			<g>
				<path class="st4" d="M329.1,273c10.9,5.4,10.9,14.3,0,19.7c-10.9,5.4-28.5,5.4-39.4,0c-10.9-5.4-10.9-14.3,0-19.7
					C300.5,267.6,318.2,267.6,329.1,273z"/>
			</g>
			<g>
				<path class="st6" d="M327.7,285l-7.9,3.9c-1.6,0.8-4.3,0.8-6,0l0,0c-1.6-0.8-1.6-2.2,0-3l7.9-3.9c1.6-0.8,4.3-0.8,6,0l0,0
					C329.3,282.9,329.3,284.2,327.7,285z"/>
			</g>
			<g>
				<path class="st4" d="M307.6,308.4"/>
			</g>
			<g>
				<g>
					<polygon class="st5" points="278.3,309 278.3,309 278.3,309 					"/>
				</g>
				<g>
					<polygon class="st5" points="340.4,309 340.4,309 340.4,309 					"/>
				</g>
				<g>
					<path class="st4" d="M331.3,320c-12.1,6.1-31.8,6.1-43.9,0c-5.1-2.6-8-5.8-8.8-9.1l3.8,27.9c0,0.1,0,0.3,0.1,0.4l0,0l0,0
						c0.6,3,3.2,5.9,7.8,8.2c10.6,5.3,27.8,5.3,38.3,0c5.3-2.6,7.9-6.1,7.9-9.6l3.7-26.9C339.3,314.2,336.4,317.5,331.3,320z"/>
				</g>
			</g>
		</g>
		<g class="st3">
			<g>
				<g>
					<g>
						<polygon class="st7" points="1476.8,318.2 1571.4,366.1 1571.4,362.8 1476.8,314.9 						"/>
					</g>
				</g>
				<g>
					<g>
						<g>
							<path class="st8" d="M1478.6,317.6l95.7,48.2c2.8,1.4,5.1,0.3,5.1-2.5l0.2-60.1c0-2.8-2.3-6.2-5.1-7.6l-95.7-48.2
								c-2.8-1.4-5.1-0.3-5.1,2.5l-0.2,60.1C1473.5,312.8,1475.8,316.2,1478.6,317.6z"/>
						</g>
					</g>
					<g>
						<g>
							<path class="st9" d="M1476.4,318.9l95.7,48.2c2.8,1.4,5.1,0.3,5.1-2.5l0.2-60.1c0-2.8-2.3-6.2-5.1-7.6l-95.7-48.2
								c-2.8-1.4-5.1-0.3-5.1,2.5l-0.2,60.1C1471.4,314,1473.6,317.5,1476.4,318.9z"/>
						</g>
					</g>
					<g>
						<g>
							<polygon class="st10" points="1476.9,312.7 1571.7,360.5 1571.9,305.1 1477,257.3 							"/>
						</g>
					</g>
					<g>
						<g>
							<path class="st7" d="M1521.9,275.9c0,1.4,1.1,3.1,2.5,3.8c1.4,0.7,2.5,0.1,2.5-1.3c0-1.4-1.1-3.1-2.5-3.8
								C1523.1,273.9,1521.9,274.5,1521.9,275.9z"/>
						</g>
					</g>
					<g>
						<g>
							<polygon class="st11" points="1479.3,314 1569.3,359.3 1569.4,309.8 1479.4,264.5 							"/>
						</g>
					</g>
					<g>
						<g>
							<g>
								<g>
									<polygon class="st12" points="1538.3,343.7 1565.2,357.2 1565.2,331 1538.3,317.4 									"/>
								</g>
							</g>
						</g>
						<g>
							<g>
								<g>
									<polygon class="st12" points="1483.5,287.3 1511.3,301.3 1511.4,285.8 1483.5,271.8 									"/>
								</g>
							</g>
						</g>
						<g>
							<g>
								<g>
									<polygon class="st12" points="1483.4,316 1535.3,342.2 1535.4,315.9 1483.5,289.8 									"/>
								</g>
							</g>
						</g>
						<g>
							<g>
								<g>
									<polygon class="st12" points="1514.5,302.7 1565.3,328.2 1565.3,313 1514.5,287.4 									"/>
								</g>
							</g>
						</g>
					</g>
				</g>
			</g>
			<g>
				<path class="st13" d="M1574.4,295.6l-95.7-48.2c-2.1-1-3.8-0.7-4.6,0.7c-1.5,0.1-2.6,1.2-2.6,3.1l-0.2,60.1
					c0,2.8,2.3,6.2,5.1,7.6l0.4,0.2l0-0.8l94.6,47.9l0,0.6l0.7,0.4c2.1,1,3.8,0.7,4.6-0.7c1.5-0.1,2.6-1.2,2.6-3.1l0.2-60.1
					C1579.5,300.4,1577.2,297,1574.4,295.6z"/>
			</g>
		</g>
		<g class="st3">
			<g>
				<path class="st5" d="M1342.5,959.1L1342.5,959.1c16.3,8.2,42.8,8.2,59.2,0l41.6-20.8c16.3-8.2,16.3-26.4,0-34.6l0,0
					c-16.3-8.2-42.8-8.2-59.2,0l-41.6,20.8C1326.2,932.7,1326.2,950.9,1342.5,959.1z"/>
			</g>
			<g>
				<g>
					<path class="st4" d="M1342.5,953.3L1342.5,953.3c16.3,8.2,42.8,8.2,59.2,0l41.6-20.8c16.3-8.2,16.3-21.4,0-29.6l0,0
						c-16.3-8.2-42.8-8.2-59.2,0l-41.6,20.8C1326.2,931.9,1326.2,945.1,1342.5,953.3z"/>
				</g>
				<g>
					<path class="st6" d="M1400.5,924.3L1400.5,924.3c2.2,1.1,5.7,1.1,7.8,0l19.3-9.7c2.2-1.1,2.2-2.8,0-3.9l0,0
						c-2.2-1.1-5.7-1.1-7.8,0l-19.3,9.7C1398.3,921.5,1398.3,923.2,1400.5,924.3z"/>
				</g>
				<g>
					<g>
						<polygon class="st6" points="1427.1,910.4 1428.3,911 1444,903.2 1442.7,902.6 						"/>
					</g>
				</g>
			</g>
		</g>
		<g class="st3">
			<g>
				<path class="st5" d="M76.5,141.1L76.5,141.1c-16.3,8.2-42.8,8.2-59.2,0l-41.6-20.8c-16.3-8.2-16.3-26.4,0-34.6l0,0
					c16.3-8.2,42.8-8.2,59.2,0l41.6,20.8C92.9,114.7,92.9,132.9,76.5,141.1z"/>
			</g>
			<g>
				<g>
					<path class="st4" d="M76.5,135.3L76.5,135.3c-16.3,8.2-42.8,8.2-59.2,0l-41.6-20.8c-16.3-8.2-16.3-21.4,0-29.6l0,0
						c16.3-8.2,42.8-8.2,59.2,0l41.6,20.8C92.9,113.9,92.9,127.1,76.5,135.3z"/>
				</g>
				<g>
					<path class="st6" d="M18.6,106.3L18.6,106.3c-2.2,1.1-5.7,1.1-7.8,0l-19.3-9.7c-2.2-1.1-2.2-2.8,0-3.9l0,0
						c2.2-1.1,5.7-1.1,7.8,0l19.3,9.7C20.7,103.5,20.7,105.2,18.6,106.3z"/>
				</g>
				<g>
					<g>
						<polygon class="st6" points="-8,92.4 -9.2,93 -24.9,85.2 -23.7,84.6 						"/>
					</g>
				</g>
			</g>
		</g>
		<g class="st3">
			<path class="st14" d="M1886.5,913.2c0,11.7-9.5,16.5-21.2,10.6c-11.7-5.9-21.2-20.1-21.2-31.9c0-11.7,9.5-16.5,21.2-10.6
				C1877,887.2,1886.5,901.4,1886.5,913.2z"/>
			<polygon class="st14" points="1880.3,925.1 1817.7,959.2 1787,915.1 1849.6,880.5 			"/>
			<polygon class="st15" points="1866.2,932.8 1818.2,959.6 1787,915.1 1835.3,888.2 			"/>
			<path class="st14" d="M1824.4,947.7c0,11.7-9.5,16.5-21.2,10.6c-11.7-5.9-21.2-20.1-21.2-31.9c0-11.7,9.5-16.5,21.2-10.6
				C1814.9,921.7,1824.4,936,1824.4,947.7z"/>
			<path class="st15" d="M1872.1,921.1c0,11.7-9.5,16.5-21.2,10.6c-11.7-5.9-21.2-20.1-21.2-31.9c0-11.7,9.5-16.5,21.2-10.6
				C1862.6,895.1,1872.1,909.4,1872.1,921.1z"/>
			<path class="st15" d="M1818.9,945c0,8.7-7.1,12.2-15.8,7.9c-8.7-4.4-15.8-14.9-15.8-23.6s7.1-12.2,15.8-7.9
				C1811.9,925.7,1818.9,936.3,1818.9,945z"/>
			<path class="st16" d="M1811.6,941.3c0-4.8-3.9-10.6-8.6-12.9c-2.7-1.3-5.1-1.3-6.7-0.2v0l-6.1,3.8l1.7,2.3
				c-0.2,0.6,3.4,3.5,3.4,4.3c0,4.8,3,4.6,7.7,7c1.1,0.6-0.8,1.6,0.2,1.7l-0.3,2.7l6.5-4c0,0,0.1,0,0.1-0.1l0,0l0,0
				C1810.8,945.1,1811.6,943.5,1811.6,941.3z"/>
			<path class="st15" d="M1805.6,945.1c0,4.8-3.9,6.7-8.6,4.3c-4.8-2.4-8.6-8.2-8.6-12.9c0-4.8,3.9-6.7,8.6-4.3
				C1801.7,934.5,1805.6,940.3,1805.6,945.1z"/>
		</g>
		<g class="st3">
			<g>
				<g>
					<polygon class="st6" points="1893.2,222.1 1911.4,167.8 1902,172.9 1902,172.9 1882.6,227.1 1915,229.5 1869.3,288.4 
						1881.2,284.5 1926.9,225.7 					"/>
				</g>
				<g>
					<polygon class="st4" points="1882.6,227.1 1902,172.9 1902,172.9 1849.6,237.3 1880.6,243 1869.3,288.4 1915,229.5 					"/>
				</g>
			</g>
			<g>
				<polygon class="st5" points="1882.6,227.1 1893.2,222.1 1926.9,225.7 1915,229.5 				"/>
			</g>
		</g>
		<g class="st3">
			<g>
				<polygon class="st4" points="1599.7,766.4 1593.4,768.3 1584.6,754.9 1593.6,751.4 1614.6,756 1606.6,768.5 				"/>
			</g>
			<g>
				<path class="st4" d="M1605,764.7c2.8,1.4,2.8,3.6,0,5c-2.8,1.4-7.2,1.4-10,0c-2.8-1.4-2.8-3.6,0-5
					C1597.8,763.3,1602.3,763.3,1605,764.7z"/>
			</g>
			<g>
				<path class="st6" d="M1611.3,747.2c6.2,3.1,6.2,8.2,0,11.3c-6.2,3.1-16.3,3.1-22.6,0c-6.2-3.1-6.2-8.2,0-11.3
					C1595,744.1,1605.1,744.1,1611.3,747.2z"/>
			</g>
			<g>
				<g>
					<rect x="1584.1" y="719.7" class="st6" width="31.9" height="33.1"/>
				</g>
			</g>
			<g>
				<path class="st4" d="M1611.9,722.7c6.6,3.3,7,8.8,0.5,12.1c-6.6,3.3-17.7,3.1-24.3-0.2c-6.6-3.3-6.6-8.6,0-11.9
					C1594.7,719.5,1605.4,719.5,1611.9,722.7z"/>
			</g>
			<g>
				<path class="st4" d="M1628.9,710.2L1628.9,710.2c3-5.2,4.7-11.3,4.7-17.8c0-19.3-15.1-34.9-33.8-34.9s-33.8,15.6-33.8,34.9
					c0,7.6,2.4,14.6,6.4,20.4l11.2,17.6l33,1l12.1-20.8c0,0,0,0,0-0.1L1628.9,710.2z"/>
			</g>
			<g>
				<ellipse class="st6" cx="1589.4" cy="686.6" rx="10.8" ry="11.1"/>
			</g>
			<g>
				<path class="st5" d="M1611.3,750.2c-6.2,3.1-16.3,3.1-22.6,0c-3.1-1.6-4.7-3.6-4.7-5.6l0,0v3.2c0,2,1.6,4.1,4.7,5.6
					c6.2,3.1,16.3,3.1,22.6,0c3.1-1.6,4.7-3.6,4.7-5.6v-3.2C1615.9,746.6,1614.4,748.7,1611.3,750.2z"/>
			</g>
			<g>
				<path class="st5" d="M1611.3,741.3c-6.2,3.1-16.3,3.1-22.6,0c-3.1-1.6-4.7-3.6-4.7-5.6l0,0v3.2c0,2,1.6,4.1,4.7,5.6
					c6.2,3.1,16.3,3.1,22.6,0c3.1-1.6,4.7-3.6,4.7-5.6v-3.2C1615.9,737.7,1614.4,739.8,1611.3,741.3z"/>
			</g>
		</g>
		<g class="st3">
			<g>
				<polygon class="st4" points="181.7,707.8 260.1,746.8 304.2,724.7 225.8,685.7 				"/>
			</g>
			<g>
				<polygon class="st5" points="181.7,707.8 260.1,746.9 260.1,765.5 181.7,726.5 				"/>
			</g>
			<g>
				<polygon class="st5" points="260.1,765.5 260.1,746.9 304.2,724.8 304.2,743.4 				"/>
			</g>
			<g>
				<g>
					<polygon class="st17" points="266.7,747.2 300.3,763.9 329.1,749.5 295.4,732.8 					"/>
				</g>
				<g>
					<polygon class="st6" points="266.7,747.2 300.3,764 300.3,776.1 266.7,759.4 					"/>
				</g>
				<g>
					<g>
						<polygon class="st17" points="300.3,776.1 300.3,764 329.1,749.6 329.1,761.7 						"/>
					</g>
					<g>
						<polygon class="st18" points="302.4,767.3 302.4,763 327.1,750.6 327.1,754.9 						"/>
					</g>
				</g>
				<g>
					<polygon class="st5" points="297.7,745.3 303.9,748.3 310,745.3 303.9,742.2 					"/>
				</g>
				<g>
					<polygon class="st5" points="285.7,751.3 291.8,754.4 298,751.3 291.8,748.2 					"/>
				</g>
			</g>
		</g>
		<g class="st3">
			<g>
				<g>
					<path class="st19" d="M943.6,1032.3c-2.8-1.5-5.4-1.5-7-0.2l0,0l-0.5,0.5l-1.6,1.4c1.2-0.8,2.8-1,4.7-0.6
						c0.7,0.2,1.4,0.4,2.2,0.8c4.9,2.5,8.9,8.4,8.9,13.3c0,0.8-0.1,1.5-0.3,2.2c-0.2,0.7-0.5,1.2-0.9,1.7l1.2-1.1l0.6-0.6h0
						c0.8-0.9,1.4-2.2,1.4-3.9C952.3,1040.9,948.4,1034.8,943.6,1032.3z"/>
					<path class="st19" d="M944.7,979.5c-16.8-8.9-32.2-10-43.5-4.7l-3.5,2.9c2-1,4.1-1.8,6.4-2.4c10.3-2.7,23.2-0.9,37.2,6.1
						c17,8.5,32.4,23.1,43.6,39.8l2.4-1.2C976.5,1003.1,961.5,988.4,944.7,979.5z"/>
					<path class="st19" d="M944.3,995.8c-12.4-6.5-23.7-7.4-32-3.4l-3.2,2.6c3.3-1.6,7.1-2.5,11.3-2.6c6.2-0.1,13.3,1.6,20.8,5.3
						c12.5,6.3,23.9,17,32.1,29.3l2.5-1.3C967.8,1013.3,956.7,1002.3,944.3,995.8z"/>
					<path class="st19" d="M943.9,1014.3c-7.3-3.9-14-4.4-19-2l-2.7,2.4c2.4-1.2,5.2-1.7,8.2-1.5c3.3,0.2,6.9,1.2,10.7,3.1
						c7.4,3.7,14.1,10.1,19,17.3l2.4-1.2C957.9,1025,951.3,1018.2,943.9,1014.3z"/>
					<path class="st19" d="M948,1052.3L948,1052.3C948,1052.3,948,1052.3,948,1052.3L948,1052.3z"/>
				</g>
			</g>
			<path class="st20" d="M949.8,1049.7c0.2-0.6,0.3-1.4,0.3-2.2c0-4.9-4-10.9-8.9-13.3c-0.7-0.4-1.5-0.6-2.2-0.8
				c-1.8-0.5-3.5-0.2-4.7,0.6c-0.3,0.2-0.6,0.5-0.8,0.7l0,0c-0.8,0.9-1.3,2.3-1.3,3.9c0,4.9,4,10.9,8.9,13.3
				c2.7,1.3,5.1,1.4,6.7,0.3c0,0,0,0,0,0c0.3-0.2,0.6-0.5,0.9-0.8C949.3,1051,949.6,1050.4,949.8,1049.7z"/>
			<path class="st20" d="M941.2,981.5c-14-7-26.9-8.8-37.2-6.1c-2.3,0.6-4.4,1.4-6.4,2.4l6.1,9.1c9.6-4.8,22.9-4.1,37.5,3.2
				c14.7,7.3,27.9,19.9,37.5,34.3l6.1-3c0,0,0,0,0,0C973.6,1004.6,958.2,990,941.2,981.5z"/>
			<path class="st20" d="M941.2,997.8c-7.5-3.7-14.6-5.5-20.8-5.3c-4.2,0.1-8,0.9-11.3,2.6l6.7,10c6.5-3.2,15.5-2.8,25.4,2.2
				c9.9,5,18.9,13.5,25.4,23.2l6.7-3.3c0,0,0,0,0,0C965.1,1014.8,953.7,1004,941.2,997.8z"/>
			<path class="st20" d="M941.2,1016.3c-3.8-1.9-7.5-2.9-10.7-3.1c-3.1-0.2-5.9,0.3-8.2,1.5l6.5,9.8c3.2-1.6,7.6-1.4,12.5,1.1
				c4.9,2.4,9.3,6.6,12.5,11.4l6.5-3.3c0,0,0,0,0,0C955.3,1026.3,948.6,1020,941.2,1016.3z"/>
		</g>
		<g class="st3">
			<path class="st21" d="M1328.4,147.5c-4.1,2.1-7.8,2-10.2,0.4c-0.2-0.8-0.3-1.6-0.3-2.5c0-7.4,6-16.3,13.4-20
				c4.1-2.1,7.8-2,10.2-0.4c0.2,0.8,0.3,1.6,0.3,2.5C1341.8,134.9,1335.8,143.9,1328.4,147.5z"/>
			<g>
				<path class="st16" d="M1328.4,147.5c7.4-3.7,13.4-12.7,13.4-20c0-0.9-0.1-1.7-0.3-2.5c2,1.3,3.1,3.8,3.1,7c0,7.4-6,16.3-13.4,20
					c-6.5,3.2-11.9,1.3-13.1-4.2C1320.6,149.6,1324.3,149.6,1328.4,147.5z"/>
				<path class="st15" d="M1355,139l2.9,4.5l-6.6-3.3l-0.2-0.1c0.4-0.9,0.7-1.7,1-2.6L1355,139z"/>
				<path class="st15" d="M1325.3,165.6v7.8l-2.9-4.5v-4.6c0.9-0.1,1.9-0.2,2.9-0.4V165.6z"/>
				<path class="st15" d="M1296.8,144l9.6-4.8c0.3-1.3,0.7-2.6,1.2-3.9l3.9,2c-1,2.2-1.7,4.3-2.2,6.5l-9.6,4.8
					c-0.3,1.7-0.5,3.3-0.5,4.9c0,0.5,0,0.9,0,1.4c0,2,0.2,4,0.6,5.7l-2.9-4.5c-0.4-1.8-0.6-3.7-0.6-5.7
					C1296.2,148.3,1296.4,146.2,1296.8,144z"/>
				<path class="st15" d="M1309.2,155.8c0.5,1.6,1.3,3.1,2.2,4.3l-3.8,5.7l-3,4.4l-2.9-4.5l6.2-9.3L1309.2,155.8z"/>
				<path class="st15" d="M1337.3,113.7v-5c0.9-0.1,1.7-0.1,2.5,0l6.8-10.2c3.3,0.6,6.2,2,8.5,4.2l2.9,4.5c-1.6-1.6-3.5-2.7-5.7-3.5
					c-0.9-0.3-1.8-0.6-2.8-0.7l-6.8,10.2C1341,113.1,1339.2,113.2,1337.3,113.7z"/>
				<path class="st15" d="M1360.1,112.4l2.9,4.5l-3.1,1.6l-6.5,3.2c-0.5-1.6-1.3-3.1-2.2-4.3l0.6-0.9L1360.1,112.4z"/>
				<path class="st15" d="M1304.7,133.9l-2.9-4.5c2.3-4.5,5.1-8.8,8.5-12.7l6.8,3.4c1.7-1.8,3.5-3.5,5.4-4.9v-9.6
					c1.9-1.3,3.9-2.5,6-3.6c2-1,4-1.8,6-2.4l2.9,4.5c-1.6,0.5-3.2,1.1-4.9,1.9c-0.4,0.2-0.7,0.3-1.1,0.5c-2,1-4,2.2-6,3.6v9.6
					c-1.9,1.5-3.7,3.1-5.4,4.9l-6.8-3.4c-1.9,2.2-3.6,4.5-5.1,7C1306.8,130,1305.7,131.9,1304.7,133.9z"/>
			</g>
			<path class="st14" d="M1299.6,160.6l8.3-4.2l1.2-0.6c0.5,1.6,1.3,3.1,2.2,4.3l-3.8,5.7l-3,4.4c2.3,2.2,5.1,3.6,8.5,4.2l6.8-10.2
				c0.8,0.1,1.6,0.1,2.5,0c0.9-0.1,1.9-0.2,2.9-0.4v1.8v7.8c1.9-0.6,3.9-1.4,6-2.4c2-1,4-2.2,6-3.6v-9.6c1.9-1.5,3.7-3.1,5.4-4.9
				l6.8,3.4c3.3-3.9,6.2-8.2,8.5-12.7l-6.6-3.3l-0.2-0.1c0.4-0.9,0.7-1.7,1-2.6c0.5-1.3,0.9-2.6,1.2-3.9l9.6-4.8
				c0.4-2.1,0.6-4.2,0.6-6.3c0-2-0.2-4-0.6-5.7l-3.1,1.6l-6.5,3.2c-0.5-1.6-1.3-3.1-2.2-4.3l0.6-0.9l6.2-9.3
				c-1.6-1.6-3.5-2.7-5.7-3.5c-0.9-0.3-1.8-0.6-2.8-0.7l-6.8,10.2c-1.7-0.1-3.5,0-5.4,0.5v-5v-4.6c-1.6,0.5-3.2,1.1-4.9,1.9
				c-0.4,0.2-0.7,0.3-1.1,0.5c-2,1-4,2.2-6,3.6v9.6c-1.9,1.5-3.7,3.1-5.4,4.9l-6.8-3.4c-1.9,2.2-3.6,4.5-5.1,7
				c-1.2,1.9-2.3,3.8-3.3,5.8l2.8,1.4l3.9,2c-1,2.2-1.7,4.3-2.2,6.5l-9.6,4.8c-0.3,1.7-0.5,3.3-0.5,4.9c0,0.5,0,0.9,0,1.4
				C1299.1,156.9,1299.3,158.8,1299.6,160.6z M1318.2,147.9c-0.2-0.8-0.3-1.6-0.3-2.5c0-7.4,6-16.3,13.4-20c4.1-2.1,7.8-2,10.2-0.4
				c2,1.3,3.1,3.8,3.1,7c0,7.4-6,16.3-13.4,20C1324.8,155.3,1319.4,153.4,1318.2,147.9z"/>
		</g>
		<g class="st3">
			<polygon class="st22" points="125.7,636.7 129.5,638.6 129.5,597.7 125.7,595.8 			"/>
			<polygon class="st20" points="129.5,638.6 133.3,636.7 133.3,595.8 129.5,597.7 			"/>
			<polygon class="st22" points="112.9,629.5 116.7,631.4 116.7,590.5 112.9,588.6 			"/>
			<polygon class="st20" points="116.7,631.4 120.4,629.5 120.4,588.6 116.7,590.5 			"/>
			<polygon class="st22" points="100,623.2 103.8,625.1 103.8,584.2 100,582.3 			"/>
			<polygon class="st20" points="103.8,625.1 107.6,623.2 107.6,582.3 103.8,584.2 			"/>
			<path class="st19" d="M101.8,507.4v26.4l40.3,20.2v-26.4L101.8,507.4z M122,537.7c-3.4-1.7-6.2-5.9-6.2-9.3
				c0-3.4,2.8-4.8,6.2-3.1c3.4,1.7,6.2,5.9,6.2,9.3C128.1,538,125.4,539.4,122,537.7z"/>
			<polygon class="st20" points="129.3,603.1 89,582.9 89,539.9 129.3,560 			"/>
			<path class="st20" d="M98.1,509v26.4l40.3,20.2v-26.4L98.1,509z M118.2,539.2c-3.4-1.7-6.2-5.9-6.2-9.3c0-3.4,2.8-4.8,6.2-3.1
				c3.4,1.7,6.2,5.9,6.2,9.3C124.4,539.6,121.6,541,118.2,539.2z"/>
			<polygon class="st22" points="98.1,535.4 138.4,555.5 129.3,560 89,539.9 			"/>
			<polygon class="st22" points="102.6,506.5 142.9,526.7 138.4,529.2 98.1,509 			"/>
			<polygon class="st19" points="138.4,529.2 138.4,555.5 129.4,560 129.4,603.1 138.4,598.6 141.4,597.1 142.9,596.1 142.9,526.7 
							"/>
		</g>
		<g class="st3">
			<path class="st14" d="M498.7,148c16.8-8.4,43.8-9,63.6,0.5l-2.5,8.7c-17.3-8-44.3-7.8-61.1,0.6c-6.1,3.1-10,6.8-11.8,10.7
				c0,0,0,0,0,0c-0.7-1.6-1.1-3.2-1.1-4.9C485.8,157.9,490.1,152.3,498.7,148z"/>
			<g>
				<path class="st14" d="M514.9,170c-1.4,1.9-0.5,4.1,2.5,5.6l11.4,5.7c1,0.5,2.1,0.9,3.3,1.1c3.9,0.9,8.7,0.5,11.9-1.1l44.1-22.2
					c3.5-1.7,4-4.4,1.7-6.5l6.8,3.4c4.2,2.1,7.6,7.2,7.6,11.4v5.3v0v-4.3c0-6.8-5.6-9.6-12.4-6.2l-36,17.8
					c-6.8,3.4-12.4,11.8-12.4,18.7v8.4c0,6.8,5.5,9.6,12.2,6.3c-2.3,1.3-7.1,2.2-12.7,2.2c-3.9,0-7.5-0.5-10.1-1.2
					c3.3,0.9,5.8-0.9,5.8-4.5v-13.1c0-4.2-3.4-9.3-7.6-11.4L518,179c-4.2-2.1-7.6-0.4-7.6,3.8v-3.6
					C510.4,176.1,512.3,172.5,514.9,170z"/>
				<path class="st14" d="M532.1,214.2c-0.9-0.3-1.7-0.7-2.3-1.1l1.2,0.6C531.4,214,531.7,214.1,532.1,214.2z"/>
				<path class="st15" d="M555.5,213.4c0.1,0,0.2-0.1,0.3-0.1l36-17.8c6.8-3.4,12.4-11.8,12.4-18.7v-4.1v-4.3
					c0-6.8-5.6-9.6-12.4-6.2l-36,17.8c-6.8,3.4-12.4,11.8-12.4,18.7v8.4C543.4,213.8,548.8,216.6,555.5,213.4z M590.9,189.7
					l-34.3,17c-4.2,2.1-7.6,0.4-7.6-3.8v-5.8c0-4.2,3.4-9.3,7.6-11.4l34.3-17c4.2-2.1,7.6-0.4,7.6,3.8v5.8
					C598.5,182.5,595.1,187.6,590.9,189.7z"/>
				<path class="st16" d="M556.6,206.7l34.3-17c4.2-2.1,7.6-7.2,7.6-11.4v-5.8c0-4.2-3.4-5.9-7.6-3.8l-34.3,17
					c-4.2,2.1-7.6,7.2-7.6,11.4v5.8C549.1,207.1,552.5,208.8,556.6,206.7z M584.8,182.4l-25.6,12.8v-3.5l25.6-12.8V182.4z
					 M592.5,178.5l-3.5,1.8v-3.5l3.5-1.8V178.5z"/>
				<path class="st15" d="M518,179l13.1,6.5c4.2,2.1,7.6,7.2,7.6,11.4V210c0,3.6-2.5,5.3-5.8,4.5c-0.2-0.1-0.5-0.1-0.7-0.2
					c-0.3-0.1-0.7-0.3-1.1-0.4l-1.2-0.6l-11.8-5.9c-4.2-2.1-7.6-7.2-7.6-11.4v-11.4v-1.7C510.4,178.6,513.8,176.9,518,179z"/>
				<path class="st15" d="M584.1,152.1c-19.5,0.2-37.1,9.1-48.7,24.8c-1.4,1.9-2.5,3.7-3.3,5.4c-1.2-0.3-2.3-0.6-3.3-1.1l-11.4-5.7
					c-3-1.5-3.8-3.7-2.5-5.6c0.5-0.7,1.3-1.4,2.5-2l44.1-22.2c4.2-2.1,11-2.1,15.2,0l11.4,5.7c0.6,0.3,1.1,0.6,1.6,1
					C588,152.2,586.1,152.1,584.1,152.1z"/>
				<path class="st16" d="M588.1,159.1L544,181.3c-3.2,1.6-8,2-11.9,1.1c0.9-1.8,2-3.6,3.3-5.4c11.5-15.7,29.2-24.6,48.7-24.8
					c2,0,3.9,0.1,5.6,0.3c0,0,0.1,0.1,0.1,0.1C592.2,154.6,591.6,157.3,588.1,159.1z"/>
				<polygon class="st15" points="589,176.8 592.5,175 592.5,178.5 589,180.3 				"/>
				<polygon class="st15" points="559.2,191.7 584.8,178.9 584.8,182.4 559.2,195.2 				"/>
			</g>
			<path class="st21" d="M486.9,168.5L486.9,168.5C486.9,168.4,486.9,168.4,486.9,168.5C486.9,168.4,486.9,168.5,486.9,168.5z"/>
			<path class="st16" d="M486.9,168.4L486.9,168.4C486.9,168.5,486.9,168.5,486.9,168.4c1.8,3.9,5.7,7.7,11.8,10.7
				c0.4,0.2,0.9,0.4,1.4,0.6v0l26.4,13.2v9.9l-26.4-13.3c-0.5-0.2-0.9-0.4-1.4-0.6c-8.6-4.3-12.9-9.9-12.9-15.6v0v-9.8
				C485.8,165.2,486.2,166.8,486.9,168.4z"/>
			<path class="st16" d="M509.3,114.6c0.3-0.2,0.7-0.3,1-0.5l0,0l0,0c4.5-1.9,10.6-1.5,17.2,1.9c14,7,25.4,24.1,25.4,38.1
				c0,0.5,0,1.1-0.1,1.6v2.3l-7.4,3.6v-2.3c0-0.5,0.1-1.1,0.1-1.6c0-14-11.4-31.1-25.4-38.1c-5.1-2.5-9.8-3.4-13.7-2.8l-3.8,2.6
				l-0.4-1.3L509.3,114.6z"/>
			<path class="st14" d="M502.2,154.3l-7.4,3.2v-25.3c0-9,4.6-14.5,11.6-15.5c-2.7,2.7-4.3,6.7-4.3,12V154.3z"/>
		</g>
		<g class="st3">
			<path class="st21" d="M100.4,970c1.5,0.7,2.9,1.2,4.2,1.3c0.5-1,0.7-2.2,0.7-3.6c0-6.4-5.2-14.2-11.6-17.4
				c-1.5-0.7-2.9-1.2-4.2-1.3c-0.5,1-0.7,2.2-0.7,3.6C88.8,959,94,966.8,100.4,970z"/>
			<path class="st16" d="M100.4,925.5c-18.2-9.1-39.5,0-39.5,18.2l0,0c0.9-16.9,15.3-23.5,32.8-14.7c18.2,9.1,32.9,31.2,32.9,49.3
				c0,17.8-16.7,30.4-26.3,36.1c0,0,0.1,0.1,0.1,0.1s32.9-14.7,32.9-39.7C133.3,956.7,118.6,934.6,100.4,925.5z"/>
			<path class="st15" d="M100.4,970c-6.4-3.2-11.6-11-11.6-17.4c0-1.4,0.3-2.6,0.7-3.6c-4.3-0.5-7.4,2.2-7.4,7.1
				c0,6.4,5.2,14.2,11.6,17.4c5,2.5,9.3,1.5,10.9-2.2C103.3,971.2,101.9,970.8,100.4,970z"/>
			<path class="st14" d="M126.6,978.3c0-18.2-14.7-40.2-32.9-49.3c-17.6-8.8-31.9-2.2-32.8,14.7c0,0.6,0,1.1,0,1.7
				c0,27.7,32.9,72.5,32.9,72.5s2.7-1.2,6.6-3.6C110,1008.7,126.6,996.1,126.6,978.3z M93.7,973.5c-6.4-3.2-11.6-11-11.6-17.4
				c0-4.9,3.1-7.6,7.4-7.1c1.3,0.1,2.7,0.6,4.2,1.3c6.4,3.2,11.6,11,11.6,17.4c0,1.4-0.3,2.6-0.7,3.6C103,975,98.8,976,93.7,973.5z"
				/>
		</g>
	</g>
</g>
</svg>
