<?xml version="1.0" encoding="utf-8"?>
<!-- Generator: Adobe Illustrator 19.2.0, SVG Export Plug-In . SVG Version: 6.00 Build 0)  -->
<svg version="1.1" xmlns="http://www.w3.org/2000/svg" xmlns:xlink="http://www.w3.org/1999/xlink" x="0px" y="0px"
	 viewBox="0 0 1080 1440" style="enable-background:new 0 0 1080 1440;" xml:space="preserve">
<style type="text/css">
	.st0{clip-path:url(#SVGID_2_);}
	.st1{fill:#4D98D7;}
	.st2{clip-path:url(#SVGID_4_);}
	.st3{fill:#0050BB;}
	.st4{fill:#D6F2FF;}
	.st5{fill:#00CFFF;}
	.st6{fill:#D5EBF7;}
	.st7{fill:#00205B;}
	.st8{fill:#BFA400;}
	.st9{fill:#FEDB00;}
	.st10{fill:none;}
	.st11{fill:#960C23;}
	.st12{fill:#E58D9B;}
	.st13{fill:#C8102E;}
	.st14{fill:#FFF199;}
</style>
<g id="line">
	<g>
		<defs>
			<rect id="SVGID_1_" width="1080" height="1440.7"/>
		</defs>
		<clipPath id="SVGID_2_">
			<use xlink:href="#SVGID_1_"  style="overflow:visible;"/>
		</clipPath>
		<g class="st0">
			<g>
				<path class="st1" d="M1180.7,1166.8c-0.5,0-1.1-0.3-1.3-0.8c-0.4-0.7-0.1-1.6,0.7-2l0.7-0.3c0.7-0.4,1.6-0.1,2,0.7
					c0.4,0.7,0.1,1.6-0.7,2l-0.7,0.3C1181.1,1166.8,1180.9,1166.8,1180.7,1166.8z"/>
			</g>
			<g>
				<path class="st1" d="M272.1,1626.2c-0.5,0-1.1-0.3-1.3-0.8c-0.4-0.7-0.1-1.6,0.7-2l1.3-0.7c0.7-0.4,1.6-0.1,2,0.7
					c0.4,0.7,0.1,1.6-0.7,2l-1.3,0.7C272.6,1626.1,272.4,1626.2,272.1,1626.2z M289.6,1617.3c-0.5,0-1.1-0.3-1.3-0.8
					c-0.4-0.7-0.1-1.6,0.7-2l1.3-0.7c0.7-0.4,1.6-0.1,2,0.7c0.4,0.7,0.1,1.6-0.7,2l-1.3,0.7C290.1,1617.3,289.8,1617.3,289.6,1617.3
					z M307.1,1608.5c-0.5,0-1.1-0.3-1.3-0.8c-0.4-0.7-0.1-1.6,0.7-2l1.3-0.7c0.7-0.4,1.6-0.1,2,0.7c0.4,0.7,0.1,1.6-0.7,2l-1.3,0.7
					C307.5,1608.4,307.3,1608.5,307.1,1608.5z M324.5,1599.7c-0.5,0-1.1-0.3-1.3-0.8c-0.4-0.7-0.1-1.6,0.7-2l1.3-0.7
					c0.7-0.4,1.6-0.1,2,0.7c0.4,0.7,0.1,1.6-0.7,2l-1.3,0.7C325,1599.6,324.8,1599.7,324.5,1599.7z M342,1590.8
					c-0.5,0-1.1-0.3-1.3-0.8c-0.4-0.7-0.1-1.6,0.7-2l1.3-0.7c0.7-0.4,1.6-0.1,2,0.7c0.4,0.7,0.1,1.6-0.7,2l-1.3,0.7
					C342.5,1590.8,342.2,1590.8,342,1590.8z M359.5,1582c-0.5,0-1.1-0.3-1.3-0.8c-0.4-0.7-0.1-1.6,0.7-2l1.3-0.7
					c0.7-0.4,1.6-0.1,2,0.7c0.4,0.7,0.1,1.6-0.7,2l-1.3,0.7C359.9,1581.9,359.7,1582,359.5,1582z M377,1573.2
					c-0.5,0-1.1-0.3-1.3-0.8c-0.4-0.7-0.1-1.6,0.7-2l1.3-0.7c0.7-0.4,1.6-0.1,2,0.7c0.4,0.7,0.1,1.6-0.7,2l-1.3,0.7
					C377.4,1573.1,377.2,1573.2,377,1573.2z M394.4,1564.3c-0.5,0-1.1-0.3-1.3-0.8c-0.4-0.7-0.1-1.6,0.7-2l1.3-0.7
					c0.7-0.4,1.6-0.1,2,0.7c0.4,0.7,0.1,1.6-0.7,2l-1.3,0.7C394.9,1564.3,394.7,1564.3,394.4,1564.3z M411.9,1555.5
					c-0.5,0-1.1-0.3-1.3-0.8c-0.4-0.7-0.1-1.6,0.7-2l1.3-0.7c0.7-0.4,1.6-0.1,2,0.7c0.4,0.7,0.1,1.6-0.7,2l-1.3,0.7
					C412.4,1555.4,412.1,1555.5,411.9,1555.5z M429.4,1546.7c-0.5,0-1.1-0.3-1.3-0.8c-0.4-0.7-0.1-1.6,0.7-2l1.3-0.7
					c0.7-0.4,1.6-0.1,2,0.7c0.4,0.7,0.1,1.6-0.7,2l-1.3,0.7C429.8,1546.6,429.6,1546.7,429.4,1546.7z M446.8,1537.8
					c-0.5,0-1.1-0.3-1.3-0.8c-0.4-0.7-0.1-1.6,0.7-2l1.3-0.7c0.7-0.4,1.6-0.1,2,0.7c0.4,0.7,0.1,1.6-0.7,2l-1.3,0.7
					C447.3,1537.8,447.1,1537.8,446.8,1537.8z M464.3,1529c-0.5,0-1.1-0.3-1.3-0.8c-0.4-0.7-0.1-1.6,0.7-2l1.3-0.7
					c0.7-0.4,1.6-0.1,2,0.7c0.4,0.7,0.1,1.6-0.7,2l-1.3,0.7C464.8,1528.9,464.5,1529,464.3,1529z M481.8,1520.2
					c-0.5,0-1.1-0.3-1.3-0.8c-0.4-0.7-0.1-1.6,0.7-2l1.3-0.7c0.7-0.4,1.6-0.1,2,0.7c0.4,0.7,0.1,1.6-0.7,2l-1.3,0.7
					C482.2,1520.1,482,1520.2,481.8,1520.2z M499.3,1511.3c-0.5,0-1.1-0.3-1.3-0.8c-0.4-0.7-0.1-1.6,0.7-2l1.3-0.7
					c0.7-0.4,1.6-0.1,2,0.7c0.4,0.7,0.1,1.6-0.7,2l-1.3,0.7C499.7,1511.3,499.5,1511.3,499.3,1511.3z M516.7,1502.5
					c-0.5,0-1.1-0.3-1.3-0.8c-0.4-0.7-0.1-1.6,0.7-2l1.3-0.7c0.7-0.4,1.6-0.1,2,0.7c0.4,0.7,0.1,1.6-0.7,2l-1.3,0.7
					C517.2,1502.4,517,1502.5,516.7,1502.5z M534.2,1493.7c-0.5,0-1.1-0.3-1.3-0.8c-0.4-0.7-0.1-1.6,0.7-2l1.3-0.7
					c0.7-0.4,1.6-0.1,2,0.7c0.4,0.7,0.1,1.6-0.7,2l-1.3,0.7C534.7,1493.6,534.4,1493.7,534.2,1493.7z M551.7,1484.8
					c-0.5,0-1.1-0.3-1.3-0.8c-0.4-0.7-0.1-1.6,0.7-2l1.3-0.7c0.7-0.4,1.6-0.1,2,0.7c0.4,0.7,0.1,1.6-0.7,2l-1.3,0.7
					C552.1,1484.8,551.9,1484.8,551.7,1484.8z M569.1,1476c-0.5,0-1.1-0.3-1.3-0.8c-0.4-0.7-0.1-1.6,0.7-2l1.3-0.7
					c0.7-0.4,1.6-0.1,2,0.7c0.4,0.7,0.1,1.6-0.7,2l-1.3,0.7C569.6,1475.9,569.4,1476,569.1,1476z M586.6,1467.2
					c-0.5,0-1.1-0.3-1.3-0.8c-0.4-0.7-0.1-1.6,0.7-2l1.3-0.7c0.7-0.4,1.6-0.1,2,0.7c0.4,0.7,0.1,1.6-0.7,2l-1.3,0.7
					C587.1,1467.1,586.8,1467.2,586.6,1467.2z M604.1,1458.3c-0.5,0-1.1-0.3-1.3-0.8c-0.4-0.7-0.1-1.6,0.7-2l1.3-0.7
					c0.7-0.4,1.6-0.1,2,0.7c0.4,0.7,0.1,1.6-0.7,2l-1.3,0.7C604.5,1458.3,604.3,1458.3,604.1,1458.3z M621.6,1449.5
					c-0.5,0-1.1-0.3-1.3-0.8c-0.4-0.7-0.1-1.6,0.7-2l1.3-0.7c0.7-0.4,1.6-0.1,2,0.7c0.4,0.7,0.1,1.6-0.7,2l-1.3,0.7
					C622,1449.4,621.8,1449.5,621.6,1449.5z M639,1440.7c-0.5,0-1.1-0.3-1.3-0.8c-0.4-0.7-0.1-1.6,0.7-2l1.3-0.7
					c0.7-0.4,1.6-0.1,2,0.7c0.4,0.7,0.1,1.6-0.7,2l-1.3,0.7C639.5,1440.6,639.3,1440.7,639,1440.7z M656.5,1431.8
					c-0.5,0-1.1-0.3-1.3-0.8c-0.4-0.7-0.1-1.6,0.7-2l1.3-0.7c0.7-0.4,1.6-0.1,2,0.7c0.4,0.7,0.1,1.6-0.7,2l-1.3,0.7
					C657,1431.8,656.7,1431.8,656.5,1431.8z M674,1423c-0.5,0-1.1-0.3-1.3-0.8c-0.4-0.7-0.1-1.6,0.7-2l1.3-0.7
					c0.7-0.4,1.6-0.1,2,0.7c0.4,0.7,0.1,1.6-0.7,2l-1.3,0.7C674.4,1422.9,674.2,1423,674,1423z M691.4,1414.2
					c-0.5,0-1.1-0.3-1.3-0.8c-0.4-0.7-0.1-1.6,0.7-2l1.3-0.7c0.7-0.4,1.6-0.1,2,0.7c0.4,0.7,0.1,1.6-0.7,2l-1.3,0.7
					C691.9,1414.1,691.7,1414.2,691.4,1414.2z M708.9,1405.3c-0.5,0-1.1-0.3-1.3-0.8c-0.4-0.7-0.1-1.6,0.7-2l1.3-0.7
					c0.7-0.4,1.6-0.1,2,0.7c0.4,0.7,0.1,1.6-0.7,2l-1.3,0.7C709.4,1405.3,709.1,1405.3,708.9,1405.3z M726.4,1396.5
					c-0.5,0-1.1-0.3-1.3-0.8c-0.4-0.7-0.1-1.6,0.7-2l1.3-0.7c0.7-0.4,1.6-0.1,2,0.7c0.4,0.7,0.1,1.6-0.7,2l-1.3,0.7
					C726.9,1396.4,726.6,1396.5,726.4,1396.5z M743.9,1387.7c-0.5,0-1.1-0.3-1.3-0.8c-0.4-0.7-0.1-1.6,0.7-2l1.3-0.7
					c0.7-0.4,1.6-0.1,2,0.7c0.4,0.7,0.1,1.6-0.7,2l-1.3,0.7C744.3,1387.6,744.1,1387.7,743.9,1387.7z M761.3,1378.8
					c-0.5,0-1.1-0.3-1.3-0.8c-0.4-0.7-0.1-1.6,0.7-2l1.3-0.7c0.7-0.4,1.6-0.1,2,0.7c0.4,0.7,0.1,1.6-0.7,2l-1.3,0.7
					C761.8,1378.8,761.6,1378.8,761.3,1378.8z M778.8,1370c-0.5,0-1.1-0.3-1.3-0.8c-0.4-0.7-0.1-1.6,0.7-2l1.3-0.7
					c0.7-0.4,1.6-0.1,2,0.7c0.4,0.7,0.1,1.6-0.7,2l-1.3,0.7C779.3,1369.9,779,1370,778.8,1370z M796.3,1361.2
					c-0.5,0-1.1-0.3-1.3-0.8c-0.4-0.7-0.1-1.6,0.7-2l1.3-0.7c0.7-0.4,1.6-0.1,2,0.7c0.4,0.7,0.1,1.6-0.7,2l-1.3,0.7
					C796.7,1361.1,796.5,1361.2,796.3,1361.2z M813.8,1352.3c-0.5,0-1.1-0.3-1.3-0.8c-0.4-0.7-0.1-1.6,0.7-2l1.3-0.7
					c0.7-0.4,1.6-0.1,2,0.7c0.4,0.7,0.1,1.6-0.7,2l-1.3,0.7C814.2,1352.3,814,1352.3,813.8,1352.3z M831.2,1343.5
					c-0.5,0-1.1-0.3-1.3-0.8c-0.4-0.7-0.1-1.6,0.7-2l1.3-0.7c0.7-0.4,1.6-0.1,2,0.7c0.4,0.7,0.1,1.6-0.7,2l-1.3,0.7
					C831.7,1343.4,831.5,1343.5,831.2,1343.5z M848.7,1334.7c-0.5,0-1.1-0.3-1.3-0.8c-0.4-0.7-0.1-1.6,0.7-2l1.3-0.7
					c0.7-0.4,1.6-0.1,2,0.7c0.4,0.7,0.1,1.6-0.7,2l-1.3,0.7C849.2,1334.6,848.9,1334.7,848.7,1334.7z M866.2,1325.8
					c-0.5,0-1.1-0.3-1.3-0.8c-0.4-0.7-0.1-1.6,0.7-2l1.3-0.7c0.7-0.4,1.6-0.1,2,0.7c0.4,0.7,0.1,1.6-0.7,2l-1.3,0.7
					C866.6,1325.8,866.4,1325.8,866.2,1325.8z M883.6,1317c-0.5,0-1.1-0.3-1.3-0.8c-0.4-0.7-0.1-1.6,0.7-2l1.3-0.7
					c0.7-0.4,1.6-0.1,2,0.7c0.4,0.7,0.1,1.6-0.7,2l-1.3,0.7C884.1,1316.9,883.9,1317,883.6,1317z M901.1,1308.2
					c-0.5,0-1.1-0.3-1.3-0.8c-0.4-0.7-0.1-1.6,0.7-2l1.3-0.7c0.7-0.4,1.6-0.1,2,0.7c0.4,0.7,0.1,1.6-0.7,2l-1.3,0.7
					C901.6,1308.1,901.3,1308.2,901.1,1308.2z M918.6,1299.3c-0.5,0-1.1-0.3-1.3-0.8c-0.4-0.7-0.1-1.6,0.7-2l1.3-0.7
					c0.7-0.4,1.6-0.1,2,0.7c0.4,0.7,0.1,1.6-0.7,2l-1.3,0.7C919,1299.3,918.8,1299.3,918.6,1299.3z M936.1,1290.5
					c-0.5,0-1.1-0.3-1.3-0.8c-0.4-0.7-0.1-1.6,0.7-2l1.3-0.7c0.7-0.4,1.6-0.1,2,0.7c0.4,0.7,0.1,1.6-0.7,2l-1.3,0.7
					C936.5,1290.4,936.3,1290.5,936.1,1290.5z M953.5,1281.7c-0.5,0-1.1-0.3-1.3-0.8c-0.4-0.7-0.1-1.6,0.7-2l1.3-0.7
					c0.7-0.4,1.6-0.1,2,0.7c0.4,0.7,0.1,1.6-0.7,2l-1.3,0.7C954,1281.6,953.8,1281.7,953.5,1281.7z M971,1272.8
					c-0.5,0-1.1-0.3-1.3-0.8c-0.4-0.7-0.1-1.6,0.7-2l1.3-0.7c0.7-0.4,1.6-0.1,2,0.7c0.4,0.7,0.1,1.6-0.7,2l-1.3,0.7
					C971.5,1272.8,971.2,1272.8,971,1272.8z M988.5,1264c-0.5,0-1.1-0.3-1.3-0.8c-0.4-0.7-0.1-1.6,0.7-2l1.3-0.7
					c0.7-0.4,1.6-0.1,2,0.7c0.4,0.7,0.1,1.6-0.7,2l-1.3,0.7C988.9,1263.9,988.7,1264,988.5,1264z M1005.9,1255.2
					c-0.5,0-1.1-0.3-1.3-0.8c-0.4-0.7-0.1-1.6,0.7-2l1.3-0.7c0.7-0.4,1.6-0.1,2,0.7c0.4,0.7,0.1,1.6-0.7,2l-1.3,0.7
					C1006.4,1255.1,1006.2,1255.2,1005.9,1255.2z M1023.4,1246.3c-0.5,0-1.1-0.3-1.3-0.8c-0.4-0.7-0.1-1.6,0.7-2l1.3-0.7
					c0.7-0.4,1.6-0.1,2,0.7c0.4,0.7,0.1,1.6-0.7,2l-1.3,0.7C1023.9,1246.3,1023.6,1246.3,1023.4,1246.3z M1040.9,1237.5
					c-0.5,0-1.1-0.3-1.3-0.8c-0.4-0.7-0.1-1.6,0.7-2l1.3-0.7c0.7-0.4,1.6-0.1,2,0.7c0.4,0.7,0.1,1.6-0.7,2l-1.3,0.7
					C1041.3,1237.4,1041.1,1237.5,1040.9,1237.5z M1058.4,1228.7c-0.5,0-1.1-0.3-1.3-0.8c-0.4-0.7-0.1-1.6,0.7-2l1.3-0.7
					c0.7-0.4,1.6-0.1,2,0.7c0.4,0.7,0.1,1.6-0.7,2l-1.3,0.7C1058.8,1228.6,1058.6,1228.7,1058.4,1228.7z M1075.8,1219.8
					c-0.5,0-1.1-0.3-1.3-0.8c-0.4-0.7-0.1-1.6,0.7-2l1.3-0.7c0.7-0.4,1.6-0.1,2,0.7c0.4,0.7,0.1,1.6-0.7,2l-1.3,0.7
					C1076.3,1219.8,1076.1,1219.8,1075.8,1219.8z M1093.3,1211c-0.5,0-1.1-0.3-1.3-0.8c-0.4-0.7-0.1-1.6,0.7-2l1.3-0.7
					c0.7-0.4,1.6-0.1,2,0.7c0.4,0.7,0.1,1.6-0.7,2l-1.3,0.7C1093.8,1210.9,1093.5,1211,1093.3,1211z M1110.8,1202.2
					c-0.5,0-1.1-0.3-1.3-0.8c-0.4-0.7-0.1-1.6,0.7-2l1.3-0.7c0.7-0.4,1.6-0.1,2,0.7c0.4,0.7,0.1,1.6-0.7,2l-1.3,0.7
					C1111.2,1202.1,1111,1202.2,1110.8,1202.2z M1128.2,1193.3c-0.5,0-1.1-0.3-1.3-0.8c-0.4-0.7-0.1-1.6,0.7-2l1.3-0.7
					c0.7-0.4,1.6-0.1,2,0.7c0.4,0.7,0.1,1.6-0.7,2l-1.3,0.7C1128.7,1193.3,1128.5,1193.3,1128.2,1193.3z M1145.7,1184.5
					c-0.5,0-1.1-0.3-1.3-0.8c-0.4-0.7-0.1-1.6,0.7-2l1.3-0.7c0.7-0.4,1.6-0.1,2,0.7c0.4,0.7,0.1,1.6-0.7,2l-1.3,0.7
					C1146.2,1184.4,1145.9,1184.5,1145.7,1184.5z M1163.2,1175.7c-0.5,0-1.1-0.3-1.3-0.8c-0.4-0.7-0.1-1.6,0.7-2l1.3-0.7
					c0.7-0.4,1.6-0.1,2,0.7c0.4,0.7,0.1,1.6-0.7,2l-1.3,0.7C1163.7,1175.6,1163.4,1175.7,1163.2,1175.7z"/>
			</g>
			<g>
				<path class="st1" d="M255.3,1634.7c-0.5,0-1.1-0.3-1.3-0.8c-0.4-0.7-0.1-1.6,0.7-2l0.7-0.3c0.7-0.4,1.6-0.1,2,0.7
					c0.4,0.7,0.1,1.6-0.7,2l-0.7,0.3C255.8,1634.6,255.6,1634.7,255.3,1634.7z"/>
			</g>
		</g>
		<g class="st0">
			<path class="st1" d="M1181.3,1135.4c-0.8,0-1.5-0.7-1.5-1.5v-39.3c0-0.8,0.7-1.5,1.5-1.5c0.8,0,1.5,0.7,1.5,1.5v39.3
				C1182.8,1134.7,1182.1,1135.4,1181.3,1135.4z"/>
		</g>
		<g class="st0">
			<path class="st1" d="M66.2,344.1c-0.8,0-1.5-0.7-1.5-1.5v-1.5c0-0.8,0.7-1.5,1.5-1.5c0.8,0,1.5,0.7,1.5,1.5v1.5
				C67.7,343.4,67,344.1,66.2,344.1z M66.2,324.6c-0.8,0-1.5-0.7-1.5-1.5v-1.5c0-0.8,0.7-1.5,1.5-1.5c0.8,0,1.5,0.7,1.5,1.5v1.5
				C67.7,324,67,324.6,66.2,324.6z M66.2,305.2c-0.8,0-1.5-0.7-1.5-1.5v-1.5c0-0.8,0.7-1.5,1.5-1.5c0.8,0,1.5,0.7,1.5,1.5v1.5
				C67.7,304.5,67,305.2,66.2,305.2z M66.2,285.7c-0.8,0-1.5-0.7-1.5-1.5v-1.5c0-0.8,0.7-1.5,1.5-1.5c0.8,0,1.5,0.7,1.5,1.5v1.5
				C67.7,285,67,285.7,66.2,285.7z"/>
		</g>
		<g class="st0">
			<path class="st1" d="M670.5,1263.9c-0.8,0-1.5-0.7-1.5-1.5v-1.5c0-0.8,0.7-1.5,1.5-1.5c0.8,0,1.5,0.7,1.5,1.5v1.5
				C672,1263.3,671.3,1263.9,670.5,1263.9z M670.5,1244.5c-0.8,0-1.5-0.7-1.5-1.5v-1.5c0-0.8,0.7-1.5,1.5-1.5c0.8,0,1.5,0.7,1.5,1.5
				v1.5C672,1243.8,671.3,1244.5,670.5,1244.5z"/>
		</g>
		<g class="st0">
			<g>
				<path class="st1" d="M1171.5,549.6c-0.5,0-1.1-0.3-1.3-0.8c-0.4-0.7-0.1-1.6,0.7-2l0.7-0.3c0.7-0.4,1.6-0.1,2,0.7
					c0.4,0.7,0.1,1.6-0.7,2l-0.7,0.3C1171.9,549.6,1171.7,549.6,1171.5,549.6z"/>
			</g>
			<g>
				<path class="st1" d="M985,645.3c-0.5,0-1.1-0.3-1.3-0.8c-0.4-0.7-0.1-1.6,0.6-2l1.3-0.7c0.7-0.4,1.6-0.1,2,0.6
					c0.4,0.7,0.1,1.6-0.6,2l-1.3,0.7C985.5,645.2,985.3,645.3,985,645.3z M1002,636.6c-0.5,0-1.1-0.3-1.3-0.8
					c-0.4-0.7-0.1-1.6,0.6-2l1.3-0.7c0.7-0.4,1.6-0.1,2,0.6c0.4,0.7,0.1,1.6-0.6,2l-1.3,0.7C1002.5,636.5,1002.2,636.6,1002,636.6z
					 M1018.9,627.9c-0.5,0-1.1-0.3-1.3-0.8c-0.4-0.7-0.1-1.6,0.6-2l1.3-0.7c0.7-0.4,1.6-0.1,2,0.6c0.4,0.7,0.1,1.6-0.6,2l-1.3,0.7
					C1019.4,627.8,1019.2,627.9,1018.9,627.9z M1035.9,619.2c-0.5,0-1.1-0.3-1.3-0.8c-0.4-0.7-0.1-1.6,0.6-2l1.3-0.7
					c0.7-0.4,1.6-0.1,2,0.6c0.4,0.7,0.1,1.6-0.6,2l-1.3,0.7C1036.4,619.1,1036.1,619.2,1035.9,619.2z M1052.8,610.5
					c-0.5,0-1.1-0.3-1.3-0.8c-0.4-0.7-0.1-1.6,0.6-2l1.3-0.7c0.7-0.4,1.6-0.1,2,0.6c0.4,0.7,0.1,1.6-0.6,2l-1.3,0.7
					C1053.3,610.4,1053.1,610.5,1052.8,610.5z M1069.8,601.8c-0.5,0-1.1-0.3-1.3-0.8c-0.4-0.7-0.1-1.6,0.6-2l1.3-0.7
					c0.7-0.4,1.6-0.1,2,0.6c0.4,0.7,0.1,1.6-0.6,2l-1.3,0.7C1070.2,601.7,1070,601.8,1069.8,601.8z M1086.7,593.1
					c-0.5,0-1.1-0.3-1.3-0.8c-0.4-0.7-0.1-1.6,0.6-2l1.3-0.7c0.7-0.4,1.6-0.1,2,0.6c0.4,0.7,0.1,1.6-0.6,2l-1.3,0.7
					C1087.2,593.1,1087,593.1,1086.7,593.1z M1103.7,584.4c-0.5,0-1.1-0.3-1.3-0.8c-0.4-0.7-0.1-1.6,0.6-2l1.3-0.7
					c0.7-0.4,1.6-0.1,2,0.6c0.4,0.7,0.1,1.6-0.6,2l-1.3,0.7C1104.1,584.4,1103.9,584.4,1103.7,584.4z M1120.6,575.7
					c-0.5,0-1.1-0.3-1.3-0.8c-0.4-0.7-0.1-1.6,0.6-2l1.3-0.7c0.7-0.4,1.6-0.1,2,0.6c0.4,0.7,0.1,1.6-0.6,2l-1.3,0.7
					C1121.1,575.7,1120.9,575.7,1120.6,575.7z M1137.6,567c-0.5,0-1.1-0.3-1.3-0.8c-0.4-0.7-0.1-1.6,0.6-2l1.3-0.7
					c0.7-0.4,1.6-0.1,2,0.6c0.4,0.7,0.1,1.6-0.6,2l-1.3,0.7C1138,567,1137.8,567,1137.6,567z M1154.5,558.3c-0.5,0-1.1-0.3-1.3-0.8
					c-0.4-0.7-0.1-1.6,0.6-2l1.3-0.7c0.7-0.4,1.6-0.1,2,0.6c0.4,0.7,0.1,1.6-0.6,2l-1.3,0.7C1155,558.3,1154.7,558.3,1154.5,558.3z"
					/>
			</g>
			<g>
				<path class="st1" d="M968.7,654.4c-0.8,0-1.5-0.7-1.5-1.5v-0.7c0-0.6,0.3-1.1,0.8-1.3l0.7-0.3c0.7-0.4,1.6-0.1,2,0.6
					c0.4,0.7,0.1,1.5-0.5,1.9C970.1,653.8,969.5,654.4,968.7,654.4z"/>
			</g>
			<g>
				<path class="st1" d="M968.7,692.5c-0.8,0-1.5-0.7-1.5-1.5v-1.5c0-0.8,0.7-1.5,1.5-1.5s1.5,0.7,1.5,1.5v1.5
					C970.2,691.9,969.6,692.5,968.7,692.5z M968.7,673.5c-0.8,0-1.5-0.7-1.5-1.5v-1.5c0-0.8,0.7-1.5,1.5-1.5s1.5,0.7,1.5,1.5v1.5
					C970.2,672.8,969.6,673.5,968.7,673.5z"/>
			</g>
			<g>
				<path class="st1" d="M968.7,710.9c-0.8,0-1.5-0.7-1.5-1.5v-0.7c0-0.8,0.7-1.5,1.5-1.5s1.5,0.7,1.5,1.5v0.7
					C970.2,710.2,969.6,710.9,968.7,710.9z"/>
			</g>
		</g>
		<g class="st0">
			<g>
				<path class="st1" d="M186.7,207.2c-0.5,0-1.1-0.3-1.3-0.8c-0.4-0.7-0.1-1.6,0.7-2l0.7-0.3c0.7-0.4,1.6-0.1,2,0.7
					c0.4,0.7,0.1,1.6-0.7,2l-0.7,0.3C187.1,207.2,186.9,207.2,186.7,207.2z"/>
			</g>
			<g>
				<path class="st1" d="M-109.7,357c-0.5,0-1.1-0.3-1.3-0.8c-0.4-0.7-0.1-1.6,0.7-2l1.3-0.7c0.7-0.4,1.6-0.1,2,0.7
					c0.4,0.7,0.1,1.6-0.7,2l-1.3,0.7C-109.2,357-109.5,357-109.7,357z M-92.3,348.2c-0.5,0-1.1-0.3-1.3-0.8c-0.4-0.7-0.1-1.6,0.7-2
					l1.3-0.7c0.7-0.4,1.6-0.1,2,0.7c0.4,0.7,0.1,1.6-0.7,2l-1.3,0.7C-91.8,348.2-92,348.2-92.3,348.2z M-74.8,339.4
					c-0.5,0-1.1-0.3-1.3-0.8c-0.4-0.7-0.1-1.6,0.7-2l1.3-0.7c0.7-0.4,1.6-0.1,2,0.7c0.4,0.7,0.1,1.6-0.7,2l-1.3,0.7
					C-74.4,339.4-74.6,339.4-74.8,339.4z M-57.4,330.6c-0.5,0-1.1-0.3-1.3-0.8c-0.4-0.7-0.1-1.6,0.7-2l1.3-0.7
					c0.7-0.4,1.6-0.1,2,0.7c0.4,0.7,0.1,1.6-0.7,2l-1.3,0.7C-56.9,330.5-57.2,330.6-57.4,330.6z M-40,321.8c-0.5,0-1.1-0.3-1.3-0.8
					c-0.4-0.7-0.1-1.6,0.7-2l1.3-0.7c0.7-0.4,1.6-0.1,2,0.7c0.4,0.7,0.1,1.6-0.7,2l-1.3,0.7C-39.5,321.7-39.7,321.8-40,321.8z
					 M-22.5,313c-0.5,0-1.1-0.3-1.3-0.8c-0.4-0.7-0.1-1.6,0.7-2l1.3-0.7c0.7-0.4,1.6-0.1,2,0.7c0.4,0.7,0.1,1.6-0.7,2l-1.3,0.7
					C-22.1,312.9-22.3,313-22.5,313z M-5.1,304.2c-0.5,0-1.1-0.3-1.3-0.8c-0.4-0.7-0.1-1.6,0.7-2l1.3-0.7c0.7-0.4,1.6-0.1,2,0.7
					c0.4,0.7,0.1,1.6-0.7,2l-1.3,0.7C-4.6,304.1-4.9,304.2-5.1,304.2z M12.3,295.3c-0.5,0-1.1-0.3-1.3-0.8c-0.4-0.7-0.1-1.6,0.7-2
					l1.3-0.7c0.7-0.4,1.6-0.1,2,0.7c0.4,0.7,0.1,1.6-0.7,2l-1.3,0.7C12.8,295.3,12.6,295.3,12.3,295.3z M29.8,286.5
					c-0.5,0-1.1-0.3-1.3-0.8c-0.4-0.7-0.1-1.6,0.7-2l1.3-0.7c0.7-0.4,1.6-0.1,2,0.7c0.4,0.7,0.1,1.6-0.7,2l-1.3,0.7
					C30.2,286.5,30,286.5,29.8,286.5z M47.2,277.7c-0.5,0-1.1-0.3-1.3-0.8c-0.4-0.7-0.1-1.6,0.7-2l1.3-0.7c0.7-0.4,1.6-0.1,2,0.7
					c0.4,0.7,0.1,1.6-0.7,2l-1.3,0.7C47.7,277.7,47.4,277.7,47.2,277.7z M64.6,268.9c-0.5,0-1.1-0.3-1.3-0.8c-0.4-0.7-0.1-1.6,0.7-2
					l1.3-0.7c0.7-0.4,1.6-0.1,2,0.7c0.4,0.7,0.1,1.6-0.7,2l-1.3,0.7C65.1,268.8,64.9,268.9,64.6,268.9z M82.1,260.1
					c-0.5,0-1.1-0.3-1.3-0.8c-0.4-0.7-0.1-1.6,0.7-2l1.3-0.7c0.7-0.4,1.6-0.1,2,0.7c0.4,0.7,0.1,1.6-0.7,2l-1.3,0.7
					C82.5,260,82.3,260.1,82.1,260.1z M99.5,251.3c-0.5,0-1.1-0.3-1.3-0.8c-0.4-0.7-0.1-1.6,0.7-2l1.3-0.7c0.7-0.4,1.6-0.1,2,0.7
					c0.4,0.7,0.1,1.6-0.7,2l-1.3,0.7C100,251.2,99.7,251.3,99.5,251.3z M116.9,242.5c-0.5,0-1.1-0.3-1.3-0.8c-0.4-0.7-0.1-1.6,0.7-2
					l1.3-0.7c0.7-0.4,1.6-0.1,2,0.7c0.4,0.7,0.1,1.6-0.7,2l-1.3,0.7C117.4,242.4,117.2,242.5,116.9,242.5z M134.4,233.6
					c-0.5,0-1.1-0.3-1.3-0.8c-0.4-0.7-0.1-1.6,0.7-2l1.3-0.7c0.7-0.4,1.6-0.1,2,0.7c0.4,0.7,0.1,1.6-0.7,2l-1.3,0.7
					C134.8,233.6,134.6,233.6,134.4,233.6z M151.8,224.8c-0.5,0-1.1-0.3-1.3-0.8c-0.4-0.7-0.1-1.6,0.7-2l1.3-0.7
					c0.7-0.4,1.6-0.1,2,0.7c0.4,0.7,0.1,1.6-0.7,2l-1.3,0.7C152.2,224.8,152,224.8,151.8,224.8z M169.2,216c-0.5,0-1.1-0.3-1.3-0.8
					c-0.4-0.7-0.1-1.6,0.7-2l1.3-0.7c0.7-0.4,1.6-0.1,2,0.7c0.4,0.7,0.1,1.6-0.7,2l-1.3,0.7C169.7,216,169.4,216,169.2,216z"/>
			</g>
			<g>
				<path class="st1" d="M-126.5,365.5c-0.5,0-1.1-0.3-1.3-0.8c-0.4-0.7-0.1-1.6,0.7-2l0.7-0.3c0.7-0.4,1.6-0.1,2,0.7
					c0.4,0.7,0.1,1.6-0.7,2l-0.7,0.3C-126,365.5-126.2,365.5-126.5,365.5z"/>
			</g>
		</g>
		<g class="st0">
			<path class="st1" d="M618.4,1479c-0.5,0-1.1-0.3-1.3-0.8c-0.4-0.7-0.1-1.6,0.7-2l309.1-157.7c0.7-0.4,1.6-0.1,2,0.7
				c0.4,0.7,0.1,1.6-0.7,2l-309.1,157.7C618.8,1478.9,618.6,1479,618.4,1479z"/>
		</g>
		<g class="st0">
			<g>
				<path class="st1" d="M1024.6,1348.8c-0.2,0-0.5-0.1-0.7-0.2l-0.6-0.3c-0.1,0-0.1-0.1-0.1-0.1l-0.4-0.2c0,0,0,0-0.1,0l-0.3-0.2
					c-0.1,0-0.2-0.1-0.2-0.1l-0.7-0.3c-0.8-0.3-1.1-1.2-0.7-2c0.3-0.8,1.2-1.1,2-0.7l0.5,0.2c0.1,0,0.2,0.1,0.3,0.1l1.2,0.6
					c0.1,0,0.1,0.1,0.2,0.1l0.5,0.3c0.7,0.4,1,1.3,0.6,2C1025.6,1348.5,1025.1,1348.8,1024.6,1348.8z"/>
			</g>
			<g>
				<path class="st1" d="M959,1410.2c-0.8,0-1.4-0.6-1.5-1.4c-0.1-0.8,0.5-1.5,1.4-1.6c0.5,0,1-0.1,1.4-0.1c0.8-0.1,1.6,0.5,1.6,1.3
					c0.1,0.8-0.5,1.6-1.3,1.6c-0.5,0-1,0.1-1.5,0.1C959.1,1410.2,959.1,1410.2,959,1410.2z M941.5,1409.8c-0.1,0-0.1,0-0.2,0
					c-0.5-0.1-1-0.1-1.5-0.2c-0.8-0.1-1.4-0.9-1.3-1.7c0.1-0.8,0.9-1.4,1.7-1.3c0.5,0.1,0.9,0.1,1.4,0.2c0.8,0.1,1.4,0.9,1.3,1.7
					C942.8,1409.2,942.2,1409.8,941.5,1409.8z M977.6,1406.2c-0.6,0-1.2-0.4-1.4-1c-0.3-0.8,0.1-1.6,0.9-1.9
					c0.4-0.2,0.9-0.3,1.3-0.5c0.8-0.3,1.6,0,2,0.8c0.3,0.8,0,1.6-0.8,2c-0.5,0.2-0.9,0.4-1.4,0.6
					C978,1406.1,977.8,1406.2,977.6,1406.2z M923.2,1404.7c-0.2,0-0.4,0-0.7-0.2l-0.6-0.3c-0.3-0.1-0.5-0.3-0.7-0.4
					c-0.7-0.4-1-1.3-0.6-2c0.4-0.7,1.3-1,2-0.6c0.2,0.1,0.4,0.2,0.7,0.3l0.6,0.3c0.7,0.4,1.1,1.3,0.7,2
					C924.3,1404.3,923.7,1404.7,923.2,1404.7z M994.8,1397.8c-0.6,0-1.1-0.3-1.3-0.8c-0.4-0.7-0.1-1.6,0.7-2l1.3-0.7
					c0.7-0.4,1.6-0.1,2,0.7c0.4,0.7,0.1,1.6-0.7,2l-1.3,0.7C995.2,1397.8,995,1397.8,994.8,1397.8z M910.8,1391
					c-0.7,0-1.3-0.5-1.5-1.1c-0.1-0.5-0.2-1-0.3-1.6c-0.1-0.8,0.4-1.6,1.3-1.7c0.8-0.1,1.6,0.4,1.7,1.3c0.1,0.4,0.2,0.9,0.3,1.3
					c0.2,0.8-0.3,1.6-1.1,1.8C911,1391,910.9,1391,910.8,1391z M1011.8,1389.3c-0.6,0-1.1-0.3-1.3-0.8c-0.4-0.7-0.1-1.6,0.7-2
					l1.3-0.7c0.7-0.4,1.6-0.1,2,0.7c0.4,0.7,0.1,1.6-0.7,2l-1.3,0.7C1012.3,1389.3,1012,1389.3,1011.8,1389.3z M1028.5,1380.2
					c-0.4,0-0.9-0.2-1.2-0.5c-0.5-0.6-0.4-1.6,0.2-2.1c0.4-0.3,0.7-0.6,1-0.9c0.6-0.6,1.5-0.5,2.1,0.1c0.6,0.6,0.5,1.5-0.1,2.1
					c-0.4,0.4-0.8,0.7-1.2,1C1029.2,1380.1,1028.9,1380.2,1028.5,1380.2z M915.6,1373.6c-0.4,0-0.8-0.2-1.1-0.5
					c-0.6-0.6-0.5-1.6,0.1-2.1c0.4-0.3,0.8-0.7,1.2-1c0.6-0.5,1.6-0.4,2.1,0.2c0.5,0.6,0.4,1.6-0.2,2.1c-0.4,0.3-0.7,0.6-1.1,0.9
					C916.3,1373.4,915.9,1373.6,915.6,1373.6z M932.1,1364.2c-0.5,0-1.1-0.3-1.3-0.8c-0.4-0.7-0.1-1.6,0.7-2l1.3-0.7
					c0.7-0.4,1.6-0.1,2,0.7c0.4,0.7,0.1,1.6-0.7,2l-1.3,0.7C932.5,1364.1,932.3,1364.2,932.1,1364.2z M1035.6,1363.3
					C1035.6,1363.3,1035.5,1363.3,1035.6,1363.3c-0.9,0-1.5-0.7-1.5-1.6c0-0.1,0-0.2,0-0.4c0-0.3,0-0.6,0-0.9
					c-0.1-0.8,0.5-1.6,1.3-1.6c0.8-0.1,1.6,0.5,1.6,1.3c0,0.4,0.1,0.8,0.1,1.2c0,0.2,0,0.3,0,0.5
					C1037,1362.7,1036.4,1363.3,1035.6,1363.3z M949.1,1355.6c-0.6,0-1.1-0.3-1.3-0.8c-0.4-0.7-0.1-1.6,0.7-2l1.3-0.7
					c0.7-0.4,1.6-0.1,2,0.7c0.4,0.7,0.1,1.6-0.7,2l-1.3,0.7C949.6,1355.6,949.4,1355.6,949.1,1355.6z M966.2,1347.2
					c-0.6,0-1.1-0.3-1.4-0.9c-0.3-0.8,0-1.6,0.8-2c0.5-0.2,0.9-0.4,1.4-0.6c0.8-0.3,1.6,0.1,1.9,0.8c0.3,0.8-0.1,1.6-0.8,1.9
					c-0.4,0.2-0.9,0.4-1.3,0.6C966.6,1347.1,966.4,1347.2,966.2,1347.2z M1005.1,1342.8c-0.1,0-0.1,0-0.2,0
					c-0.5-0.1-0.9-0.1-1.4-0.2c-0.8-0.1-1.4-0.8-1.3-1.7c0.1-0.8,0.8-1.4,1.7-1.3c0.5,0.1,1,0.1,1.5,0.2c0.8,0.1,1.4,0.9,1.3,1.7
					C1006.5,1342.3,1005.9,1342.8,1005.1,1342.8z M984.6,1342.5c-0.8,0-1.4-0.6-1.5-1.3c-0.1-0.8,0.5-1.6,1.3-1.7
					c0.5-0.1,1-0.1,1.5-0.2c0.9-0.1,1.6,0.5,1.6,1.4c0.1,0.8-0.5,1.6-1.4,1.6c-0.5,0-1,0.1-1.4,0.1
					C984.8,1342.5,984.7,1342.5,984.6,1342.5z"/>
			</g>
		</g>
		<g class="st0">
			<path class="st1" d="M910.8,1329.8c-0.5,0-1.1-0.3-1.3-0.8c-0.4-0.7-0.1-1.6,0.7-2l270.2-137.9c0.7-0.4,1.6-0.1,2,0.7
				c0.4,0.7,0.1,1.6-0.7,2l-270.2,137.9C911.2,1329.7,911,1329.8,910.8,1329.8z"/>
		</g>
		<g class="st0">
			<path class="st1" d="M144.7,1491.8c-0.5,0-1.1-0.3-1.3-0.8c-0.4-0.7-0.1-1.6,0.7-2l525.8-268.4c0.7-0.4,1.6-0.1,2,0.7
				c0.4,0.7,0.1,1.6-0.7,2l-525.8,268.4C145.1,1491.8,144.9,1491.8,144.7,1491.8z"/>
		</g>
		<g class="st0">
			<path class="st1" d="M144.7,1467.4c-0.5,0-1.1-0.3-1.3-0.8c-0.4-0.7-0.1-1.6,0.7-2l525.8-268.4c0.7-0.4,1.6-0.1,2,0.7
				c0.4,0.7,0.1,1.6-0.7,2l-525.8,268.4C145.1,1467.4,144.9,1467.4,144.7,1467.4z"/>
		</g>
		<g class="st0">
			<path class="st1" d="M670.5,1223.5c-0.8,0-1.5-0.7-1.5-1.5v-24.4c0-0.8,0.7-1.5,1.5-1.5c0.8,0,1.5,0.7,1.5,1.5v24.4
				C672,1222.8,671.3,1223.5,670.5,1223.5z"/>
		</g>
		<g class="st0">
			<g>
				<path class="st1" d="M1127.7,1056.1c0.5,0,1.1-0.3,1.3-0.8c0.4-0.7,0.1-1.6-0.7-2L924.2,948.9c-0.7-0.4-1.6-0.1-2,0.7
					c-0.4,0.7-0.1,1.6,0.7,2L1127,1056C1127.3,1056.1,1127.5,1056.1,1127.7,1056.1z"/>
			</g>
			<g>
				<path class="st1" d="M1125.5,1030.4c0.5,0,1.1-0.3,1.3-0.8c0.4-0.7,0.1-1.6-0.7-2l-202-103.1c-0.7-0.4-1.6-0.1-2,0.7
					c-0.4,0.7-0.1,1.6,0.7,2l202,103.1C1125.1,1030.4,1125.3,1030.4,1125.5,1030.4z"/>
			</g>
			<g>
				<path class="st1" d="M923.5,951.7c0.8,0,1.5-0.7,1.5-1.5v-24.4c0-0.8-0.7-1.5-1.5-1.5c-0.8,0-1.5,0.7-1.5,1.5v24.4
					C922,951.1,922.7,951.7,923.5,951.7z"/>
			</g>
		</g>
		<g class="st0">
			<path class="st1" d="M1503.3,1328.7c-0.2,0-0.5-0.1-0.7-0.2l-322-166.6c-0.7-0.4-1-1.3-0.6-2c0.4-0.7,1.3-1,2-0.6l322,166.6
				c0.7,0.4,1,1.3,0.6,2C1504.4,1328.4,1503.9,1328.7,1503.3,1328.7z"/>
		</g>
		<g class="st0">
			<path class="st1" d="M1503.3,1299.6c-0.2,0-0.5-0.1-0.7-0.2l-322-164.3c-0.7-0.4-1-1.3-0.7-2c0.4-0.7,1.3-1,2-0.7l322,164.3
				c0.7,0.4,1,1.3,0.7,2C1504.4,1299.3,1503.9,1299.6,1503.3,1299.6z"/>
		</g>
		<g class="st0">
			<g>
				<path class="st1" d="M277.4,1395.7c-0.8,0-1.5-0.7-1.5-1.5v-0.7c0-0.8,0.7-1.5,1.5-1.5c0.8,0,1.5,0.7,1.5,1.5v0.7
					C278.9,1395.1,278.3,1395.7,277.4,1395.7z"/>
			</g>
			<g>
				<path class="st1" d="M277.4,1376.5c-0.8,0-1.5-0.7-1.5-1.5v-1.5c0-0.8,0.7-1.5,1.5-1.5c0.8,0,1.5,0.7,1.5,1.5v1.5
					C278.9,1375.8,278.3,1376.5,277.4,1376.5z M277.4,1356.5c-0.8,0-1.5-0.7-1.5-1.5v-1.5c0-0.8,0.7-1.5,1.5-1.5
					c0.8,0,1.5,0.7,1.5,1.5v1.5C278.9,1355.8,278.3,1356.5,277.4,1356.5z M277.4,1336.4c-0.8,0-1.5-0.7-1.5-1.5v-1.5
					c0-0.8,0.7-1.5,1.5-1.5c0.8,0,1.5,0.7,1.5,1.5v1.5C278.9,1335.8,278.3,1336.4,277.4,1336.4z M277.4,1316.4
					c-0.8,0-1.5-0.7-1.5-1.5v-1.5c0-0.8,0.7-1.5,1.5-1.5c0.8,0,1.5,0.7,1.5,1.5v1.5C278.9,1315.7,278.3,1316.4,277.4,1316.4z
					 M277.4,1296.4c-0.8,0-1.5-0.7-1.5-1.5v-1.5c0-0.8,0.7-1.5,1.5-1.5c0.8,0,1.5,0.7,1.5,1.5v1.5
					C278.9,1295.7,278.3,1296.4,277.4,1296.4z M277.4,1276.4c-0.8,0-1.5-0.7-1.5-1.5v-1.5c0-0.8,0.7-1.5,1.5-1.5
					c0.8,0,1.5,0.7,1.5,1.5v1.5C278.9,1275.7,278.3,1276.4,277.4,1276.4z"/>
			</g>
			<g>
				<path class="st1" d="M277.4,1256.3c-0.8,0-1.5-0.7-1.5-1.5v-0.7c0-0.8,0.7-1.5,1.5-1.5c0.8,0,1.5,0.7,1.5,1.5v0.7
					C278.9,1255.7,278.3,1256.3,277.4,1256.3z"/>
			</g>
		</g>
		<g class="st0">
			<g>
				<path class="st1" d="M987.6-32.2c-0.5,0-1.1-0.3-1.3-0.8c-0.4-0.7-0.1-1.6,0.7-2l0.7-0.3c0.7-0.4,1.6-0.1,2,0.7
					c0.4,0.7,0.1,1.6-0.7,2l-0.7,0.3C988.1-32.3,987.9-32.2,987.6-32.2z"/>
			</g>
			<g>
				<path class="st1" d="M715.6,105.3c-0.5,0-1.1-0.3-1.3-0.8c-0.4-0.7-0.1-1.6,0.7-2l1.3-0.7c0.7-0.4,1.6-0.1,2,0.7
					c0.4,0.7,0.1,1.6-0.7,2l-1.3,0.7C716.1,105.3,715.8,105.3,715.6,105.3z M732.6,96.7c-0.5,0-1.1-0.3-1.3-0.8
					c-0.4-0.7-0.1-1.6,0.7-2l1.3-0.7c0.7-0.4,1.6-0.1,2,0.7c0.4,0.7,0.1,1.6-0.7,2l-1.3,0.7C733.1,96.7,732.8,96.7,732.6,96.7z
					 M749.6,88.1c-0.5,0-1.1-0.3-1.3-0.8c-0.4-0.7-0.1-1.6,0.7-2l1.3-0.7c0.7-0.4,1.6-0.1,2,0.7c0.4,0.7,0.1,1.6-0.7,2l-1.3,0.7
					C750.1,88.1,749.8,88.1,749.6,88.1z M766.6,79.5c-0.5,0-1.1-0.3-1.3-0.8c-0.4-0.7-0.1-1.6,0.7-2l1.3-0.7c0.7-0.4,1.6-0.1,2,0.7
					c0.4,0.7,0.1,1.6-0.7,2l-1.3,0.7C767.1,79.5,766.8,79.5,766.6,79.5z M783.6,70.9c-0.5,0-1.1-0.3-1.3-0.8c-0.4-0.7-0.1-1.6,0.7-2
					l1.3-0.7c0.7-0.4,1.6-0.1,2,0.7c0.4,0.7,0.1,1.6-0.7,2l-1.3,0.7C784.1,70.9,783.8,70.9,783.6,70.9z M800.6,62.3
					c-0.5,0-1.1-0.3-1.3-0.8c-0.4-0.7-0.1-1.6,0.7-2l1.3-0.7c0.7-0.4,1.6-0.1,2,0.7c0.4,0.7,0.1,1.6-0.7,2l-1.3,0.7
					C801.1,62.3,800.8,62.3,800.6,62.3z M817.6,53.7c-0.5,0-1.1-0.3-1.3-0.8c-0.4-0.7-0.1-1.6,0.7-2l1.3-0.7c0.7-0.4,1.6-0.1,2,0.7
					c0.4,0.7,0.1,1.6-0.7,2l-1.3,0.7C818.1,53.7,817.8,53.7,817.6,53.7z M834.6,45.1c-0.5,0-1.1-0.3-1.3-0.8c-0.4-0.7-0.1-1.6,0.7-2
					l1.3-0.7c0.7-0.4,1.6-0.1,2,0.7c0.4,0.7,0.1,1.6-0.7,2l-1.3,0.7C835.1,45.1,834.8,45.1,834.6,45.1z M851.6,36.5
					c-0.5,0-1.1-0.3-1.3-0.8c-0.4-0.7-0.1-1.6,0.7-2l1.3-0.7c0.7-0.4,1.6-0.1,2,0.7c0.4,0.7,0.1,1.6-0.7,2l-1.3,0.7
					C852.1,36.5,851.8,36.5,851.6,36.5z M868.6,27.9c-0.5,0-1.1-0.3-1.3-0.8c-0.4-0.7-0.1-1.6,0.7-2l1.3-0.7c0.7-0.4,1.6-0.1,2,0.7
					c0.4,0.7,0.1,1.6-0.7,2l-1.3,0.7C869.1,27.9,868.9,27.9,868.6,27.9z M885.6,19.3c-0.5,0-1.1-0.3-1.3-0.8c-0.4-0.7-0.1-1.6,0.7-2
					l1.3-0.7c0.7-0.4,1.6-0.1,2,0.7c0.4,0.7,0.1,1.6-0.7,2l-1.3,0.7C886.1,19.3,885.9,19.3,885.6,19.3z M902.6,10.7
					c-0.5,0-1.1-0.3-1.3-0.8c-0.4-0.7-0.1-1.6,0.7-2l1.3-0.7c0.7-0.4,1.6-0.1,2,0.7c0.4,0.7,0.1,1.6-0.7,2l-1.3,0.7
					C903.1,10.7,902.9,10.7,902.6,10.7z M919.6,2.2c-0.5,0-1.1-0.3-1.3-0.8c-0.4-0.7-0.1-1.6,0.7-2l1.3-0.7c0.7-0.4,1.6-0.1,2,0.7
					c0.4,0.7,0.1,1.6-0.7,2L920.3,2C920.1,2.1,919.9,2.2,919.6,2.2z M936.6-6.4c-0.5,0-1.1-0.3-1.3-0.8c-0.4-0.7-0.1-1.6,0.7-2
					l1.3-0.7c0.7-0.4,1.6-0.1,2,0.7c0.4,0.7,0.1,1.6-0.7,2l-1.3,0.7C937.1-6.5,936.9-6.4,936.6-6.4z M953.6-15
					c-0.5,0-1.1-0.3-1.3-0.8c-0.4-0.7-0.1-1.6,0.7-2l1.3-0.7c0.7-0.4,1.6-0.1,2,0.7c0.4,0.7,0.1,1.6-0.7,2l-1.3,0.7
					C954.1-15.1,953.9-15,953.6-15z M970.6-23.6c-0.5,0-1.1-0.3-1.3-0.8c-0.4-0.7-0.1-1.6,0.7-2l1.3-0.7c0.7-0.4,1.6-0.1,2,0.7
					c0.4,0.7,0.1,1.6-0.7,2l-1.3,0.7C971.1-23.7,970.9-23.6,970.6-23.6z"/>
			</g>
			<g>
				<path class="st1" d="M699.2,113.6c-0.5,0-1.1-0.3-1.3-0.8c-0.4-0.7-0.1-1.6,0.7-2l0.7-0.3c0.7-0.4,1.6-0.1,2,0.7
					c0.4,0.7,0.1,1.6-0.7,2l-0.7,0.3C699.7,113.5,699.5,113.6,699.2,113.6z"/>
			</g>
			<g>
				<path class="st1" d="M1055.2-66.6c-0.5,0-1.1-0.3-1.3-0.8c-0.4-0.7-0.1-1.6,0.7-2l0.7-0.3c0.7-0.4,1.6-0.1,2,0.7
					c0.4,0.7,0.1,1.6-0.7,2l-0.7,0.3C1055.7-66.7,1055.5-66.6,1055.2-66.6z"/>
			</g>
			<path class="st1" d="M987.2-32.2c-0.5,0-1.1-0.3-1.3-0.8c-0.4-0.7-0.1-1.6,0.7-2l1.3-0.7c0.7-0.4,1.6-0.1,2,0.7
				c0.4,0.7,0.1,1.6-0.7,2l-1.3,0.7C987.7-32.3,987.4-32.2,987.2-32.2z"/>
			<path class="st1" d="M1004.2-40.8c-0.5,0-1.1-0.3-1.3-0.8c-0.4-0.7-0.1-1.6,0.7-2l1.3-0.7c0.7-0.4,1.6-0.1,2,0.7
				c0.4,0.7,0.1,1.6-0.7,2l-1.3,0.7C1004.7-40.9,1004.4-40.8,1004.2-40.8z"/>
			<path class="st1" d="M1021.2-49.4c-0.5,0-1.1-0.3-1.3-0.8c-0.4-0.7-0.1-1.6,0.7-2l1.3-0.7c0.7-0.4,1.6-0.1,2,0.7
				c0.4,0.7,0.1,1.6-0.7,2l-1.3,0.7C1021.7-49.5,1021.4-49.4,1021.2-49.4z"/>
			<path class="st1" d="M1038.2-58c-0.5,0-1.1-0.3-1.3-0.8c-0.4-0.7-0.1-1.6,0.7-2l1.3-0.7c0.7-0.4,1.6-0.1,2,0.7
				c0.4,0.7,0.1,1.6-0.7,2l-1.3,0.7C1038.7-58.1,1038.5-58,1038.2-58z"/>
		</g>
		<g class="st0">
			
				<rect x="743.3" y="25.4" transform="matrix(0.8924 -0.4512 0.4512 0.8924 90.5218 433.4446)" class="st1" width="422.1" height="3"/>
		</g>
		<g class="st0">
			<path class="st1" d="M1181.3,1162.2c-0.8,0-1.5-0.7-1.5-1.5v-26.8c0-0.8,0.7-1.5,1.5-1.5c0.8,0,1.5,0.7,1.5,1.5v26.8
				C1182.8,1161.5,1182.1,1162.2,1181.3,1162.2z"/>
		</g>
		<g class="st0">
			<g>
				<path class="st1" d="M52.8,1117.7c-0.2,0-0.3,0-0.5-0.1l-0.4-0.2c-0.3-0.2-0.5-0.5-0.5-0.9c0-0.4,0.2-0.7,0.6-0.9l0.5-0.2
					c0.5-0.2,1.1,0,1.3,0.5c0.1,0.2,0.1,0.5,0.1,0.7c0,0.2,0,0.5-0.1,0.7C53.5,1117.5,53.2,1117.7,52.8,1117.7z"/>
			</g>
			<g>
				<path class="st1" d="M65,1111.4c-0.4,0-0.7-0.2-0.9-0.6c-0.2-0.5,0-1.1,0.5-1.3l1-0.5c0.5-0.2,1.1,0,1.3,0.5
					c0.2,0.5,0,1.1-0.5,1.3l-1,0.5C65.3,1111.4,65.1,1111.4,65,1111.4z M78.1,1105.1c-0.4,0-0.7-0.2-0.9-0.6c-0.2-0.5,0-1.1,0.5-1.3
					l1-0.5c0.5-0.2,1.1,0,1.3,0.5c0.2,0.5,0,1.1-0.5,1.3l-1,0.5C78.4,1105.1,78.2,1105.1,78.1,1105.1z M91.2,1098.8
					c-0.4,0-0.7-0.2-0.9-0.6c-0.2-0.5,0-1.1,0.5-1.3l1-0.5c0.5-0.2,1.1,0,1.3,0.5c0.2,0.5,0,1.1-0.5,1.3l-1,0.5
					C91.5,1098.7,91.4,1098.8,91.2,1098.8z"/>
			</g>
			<g>
				<path class="st1" d="M105.3,1092.5c-0.2,0-0.3,0-0.5-0.1l0,0l0,0c-0.5,0.2-1.1,0-1.3-0.5c-0.2-0.5,0-1.1,0.5-1.3l0.5-0.2
					c0.3-0.1,0.6-0.1,0.9,0l0.5,0.2c0.5,0.2,0.7,0.9,0.4,1.4C106,1092.3,105.6,1092.5,105.3,1092.5z"/>
			</g>
			<g>
				<path class="st1" d="M164.8,1122.4c-0.2,0-0.3,0-0.5-0.1l-0.9-0.5c-0.5-0.2-0.7-0.9-0.4-1.4c0.2-0.5,0.9-0.7,1.4-0.4l0.9,0.5
					c0.5,0.2,0.7,0.9,0.4,1.4C165.5,1122.2,165.1,1122.4,164.8,1122.4z M152.9,1116.4c-0.2,0-0.3,0-0.5-0.1l-0.9-0.5
					c-0.5-0.3-0.7-0.9-0.4-1.4c0.2-0.5,0.9-0.7,1.4-0.4l0.9,0.5c0.5,0.3,0.7,0.9,0.4,1.4C153.6,1116.2,153.2,1116.4,152.9,1116.4z
					 M141,1110.4c-0.2,0-0.3,0-0.5-0.1l-0.9-0.5c-0.5-0.2-0.7-0.9-0.4-1.4c0.2-0.5,0.9-0.7,1.4-0.4l0.9,0.5c0.5,0.2,0.7,0.9,0.4,1.4
					C141.7,1110.2,141.3,1110.4,141,1110.4z M129.1,1104.4c-0.2,0-0.3,0-0.5-0.1l-0.9-0.5c-0.5-0.3-0.7-0.9-0.4-1.4
					c0.2-0.5,0.9-0.7,1.4-0.4l0.9,0.5c0.5,0.3,0.7,0.9,0.4,1.4C129.8,1104.2,129.4,1104.4,129.1,1104.4z M117.2,1098.4
					c-0.2,0-0.3,0-0.5-0.1l-0.9-0.5c-0.5-0.2-0.7-0.9-0.4-1.4c0.2-0.5,0.9-0.7,1.4-0.4l0.9,0.5c0.5,0.2,0.7,0.9,0.4,1.4
					C117.9,1098.2,117.5,1098.4,117.2,1098.4z"/>
			</g>
			<g>
				<path class="st1" d="M175.8,1128.4c-0.4,0-0.7-0.2-0.9-0.5c-0.1-0.2-0.1-0.5-0.1-0.7c-0.1-0.2,0-0.5,0.1-0.7
					c0.2-0.5,0.9-0.7,1.4-0.4l0.5,0.2c0.3,0.2,0.5,0.5,0.6,0.9c0,0.4-0.2,0.7-0.5,0.9l-0.4,0.2
					C176.1,1128.3,175.9,1128.4,175.8,1128.4z"/>
			</g>
			<g>
				<path class="st1" d="M134.3,1150.6c-0.4,0-0.7-0.2-0.9-0.5c-0.3-0.5-0.1-1.1,0.4-1.4l0.8-0.4c0.5-0.3,1.1-0.1,1.4,0.4
					c0.3,0.5,0.1,1.1-0.4,1.4l-0.8,0.4C134.6,1150.6,134.4,1150.6,134.3,1150.6z M144.6,1145c-0.4,0-0.7-0.2-0.9-0.5
					c-0.3-0.5-0.1-1.1,0.4-1.4l0.8-0.4c0.5-0.3,1.1-0.1,1.4,0.4c0.3,0.5,0.1,1.1-0.4,1.4l-0.8,0.4C145,1145,144.8,1145,144.6,1145z
					 M155,1139.5c-0.4,0-0.7-0.2-0.9-0.5c-0.3-0.5-0.1-1.1,0.4-1.4l0.8-0.4c0.5-0.3,1.1-0.1,1.4,0.4c0.3,0.5,0.1,1.1-0.4,1.4
					l-0.8,0.4C155.3,1139.4,155.2,1139.5,155,1139.5z M165.4,1133.9c-0.4,0-0.7-0.2-0.9-0.5c-0.3-0.5-0.1-1.1,0.4-1.4l0.8-0.4
					c0.5-0.3,1.1-0.1,1.4,0.4c0.3,0.5,0.1,1.1-0.4,1.4l-0.8,0.4C165.7,1133.9,165.5,1133.9,165.4,1133.9z"/>
			</g>
			<g>
				<path class="st1" d="M124.2,1156c-0.2,0-0.3,0-0.5-0.1l-0.4-0.2c-0.5-0.3-0.7-0.9-0.4-1.4c0.3-0.5,0.8-0.7,1.3-0.4
					c0.5-0.2,1.1-0.1,1.3,0.4c0.3,0.5,0.1,1.1-0.4,1.4l-0.4,0.2C124.6,1155.9,124.4,1156,124.2,1156z"/>
			</g>
			<g>
				<path class="st1" d="M112.7,1149.8c-0.2,0-0.3,0-0.5-0.1l-0.9-0.5c-0.5-0.3-0.7-0.9-0.4-1.4c0.3-0.5,0.9-0.7,1.4-0.4l0.9,0.5
					c0.5,0.3,0.7,0.9,0.4,1.4C113.4,1149.6,113.1,1149.8,112.7,1149.8z M100.8,1143.4c-0.2,0-0.3,0-0.5-0.1l-0.9-0.5
					c-0.5-0.3-0.7-0.9-0.4-1.4c0.3-0.5,0.9-0.7,1.4-0.4l0.9,0.5c0.5,0.3,0.7,0.9,0.4,1.4C101.5,1143.2,101.1,1143.4,100.8,1143.4z
					 M88.8,1137c-0.2,0-0.3,0-0.5-0.1l-0.9-0.5c-0.5-0.3-0.7-0.9-0.4-1.4c0.3-0.5,0.9-0.7,1.4-0.4l0.9,0.5c0.5,0.3,0.7,0.9,0.4,1.4
					C89.5,1136.8,89.1,1137,88.8,1137z M76.8,1130.5c-0.2,0-0.3,0-0.5-0.1l-0.9-0.5c-0.5-0.3-0.7-0.9-0.4-1.4
					c0.3-0.5,0.9-0.7,1.4-0.4l0.9,0.5c0.5,0.3,0.7,0.9,0.4,1.4C77.5,1130.3,77.2,1130.5,76.8,1130.5z M64.8,1124.1
					c-0.2,0-0.3,0-0.5-0.1l-0.9-0.5c-0.5-0.3-0.7-0.9-0.4-1.4c0.3-0.5,0.9-0.7,1.4-0.4l0.9,0.5c0.5,0.3,0.7,0.9,0.4,1.4
					C65.5,1123.9,65.2,1124.1,64.8,1124.1z"/>
			</g>
		</g>
		<g class="st0">
			<path class="st1" d="M-40.3,1418.8c-0.5,0-1.1-0.3-1.3-0.8c-0.4-0.7-0.1-1.6,0.6-2l317.8-163.2c0.7-0.4,1.6-0.1,2,0.6
				c0.4,0.7,0.1,1.6-0.6,2l-317.8,163.2C-39.9,1418.7-40.1,1418.8-40.3,1418.8z"/>
		</g>
		<g class="st0">
			<g>
				<path class="st1" d="M1296.1,1062.9c0.6,0,1.1-0.3,1.3-0.8c0.4-0.7,0.1-1.6-0.7-2l-0.7-0.3c-0.7-0.4-1.6-0.1-2,0.7
					c-0.4,0.7-0.1,1.6,0.7,2l0.7,0.3C1295.7,1062.9,1295.9,1062.9,1296.1,1062.9z"/>
			</g>
			<g>
				<path class="st1" d="M1279,1054.5l-1.3-0.7c-0.7-0.4-1-1.3-0.7-2c0.4-0.7,1.3-1,2-0.7l1.3,0.7c0.7,0.4,1,1.3,0.7,2
					c-0.3,0.5-0.8,0.8-1.3,0.8C1279.5,1054.7,1279.2,1054.7,1279,1054.5z M1261.9,1046l-1.3-0.7c-0.7-0.4-1-1.3-0.7-2
					c0.4-0.7,1.3-1,2-0.7l1.3,0.7c0.7,0.4,1,1.3,0.7,2c-0.3,0.5-0.8,0.8-1.3,0.8C1262.4,1046.2,1262.1,1046.1,1261.9,1046z
					 M1244.8,1037.4l-1.3-0.7c-0.7-0.4-1-1.3-0.7-2c0.4-0.7,1.3-1,2-0.7l1.3,0.7c0.7,0.4,1,1.3,0.7,2c-0.3,0.5-0.8,0.8-1.3,0.8
					C1245.3,1037.6,1245,1037.6,1244.8,1037.4z M1227.7,1028.9l-1.3-0.7c-0.7-0.4-1-1.3-0.7-2c0.4-0.7,1.3-1,2-0.7l1.3,0.7
					c0.7,0.4,1,1.3,0.7,2c-0.3,0.5-0.8,0.8-1.3,0.8C1228.2,1029.1,1227.9,1029,1227.7,1028.9z M1210.6,1020.4l-1.3-0.7
					c-0.7-0.4-1-1.3-0.7-2c0.4-0.7,1.3-1,2-0.7l1.3,0.7c0.7,0.4,1,1.3,0.7,2c-0.3,0.5-0.8,0.8-1.3,0.8
					C1211.1,1020.5,1210.8,1020.5,1210.6,1020.4z M1193.5,1011.8l-1.3-0.7c-0.7-0.4-1-1.3-0.7-2c0.4-0.7,1.3-1,2-0.7l1.3,0.7
					c0.7,0.4,1,1.3,0.7,2c-0.3,0.5-0.8,0.8-1.3,0.8C1194,1012,1193.8,1011.9,1193.5,1011.8z M1176.4,1003.3l-1.3-0.7
					c-0.7-0.4-1-1.3-0.7-2c0.4-0.7,1.3-1,2-0.7l1.3,0.7c0.7,0.4,1,1.3,0.7,2c-0.3,0.5-0.8,0.8-1.3,0.8
					C1176.9,1003.4,1176.7,1003.4,1176.4,1003.3z M1159.3,994.7l-1.3-0.7c-0.7-0.4-1-1.3-0.7-2c0.4-0.7,1.3-1,2-0.7l1.3,0.7
					c0.7,0.4,1,1.3,0.7,2c-0.3,0.5-0.8,0.8-1.3,0.8C1159.8,994.9,1159.6,994.8,1159.3,994.7z M1142.2,986.2l-1.3-0.7
					c-0.7-0.4-1-1.3-0.7-2c0.4-0.7,1.3-1,2-0.7l1.3,0.7c0.7,0.4,1,1.3,0.7,2c-0.3,0.5-0.8,0.8-1.3,0.8
					C1142.7,986.3,1142.5,986.3,1142.2,986.2z M1125.2,977.6l-1.3-0.7c-0.7-0.4-1-1.3-0.7-2c0.4-0.7,1.3-1,2-0.7l1.3,0.7
					c0.7,0.4,1,1.3,0.7,2c-0.3,0.5-0.8,0.8-1.3,0.8C1125.6,977.8,1125.4,977.7,1125.2,977.6z M1108.1,969.1l-1.3-0.7
					c-0.7-0.4-1-1.3-0.7-2c0.4-0.7,1.3-1,2-0.7l1.3,0.7c0.7,0.4,1,1.3,0.7,2c-0.3,0.5-0.8,0.8-1.3,0.8
					C1108.5,969.2,1108.3,969.2,1108.1,969.1z M1091,960.5l-1.3-0.7c-0.7-0.4-1-1.3-0.7-2c0.4-0.7,1.3-1,2-0.7l1.3,0.7
					c0.7,0.4,1,1.3,0.7,2c-0.3,0.5-0.8,0.8-1.3,0.8C1091.4,960.7,1091.2,960.6,1091,960.5z M1073.9,952l-1.3-0.7
					c-0.7-0.4-1-1.3-0.7-2c0.4-0.7,1.3-1,2-0.7l1.3,0.7c0.7,0.4,1,1.3,0.7,2c-0.3,0.5-0.8,0.8-1.3,0.8
					C1074.3,952.1,1074.1,952.1,1073.9,952z M1056.8,943.4l-1.3-0.7c-0.7-0.4-1-1.3-0.7-2c0.4-0.7,1.3-1,2-0.7l1.3,0.7
					c0.7,0.4,1,1.3,0.7,2c-0.3,0.5-0.8,0.8-1.3,0.8C1057.2,943.6,1057,943.5,1056.8,943.4z M1039.7,934.9l-1.3-0.7
					c-0.7-0.4-1-1.3-0.7-2c0.4-0.7,1.3-1,2-0.7l1.3,0.7c0.7,0.4,1,1.3,0.7,2c-0.3,0.5-0.8,0.8-1.3,0.8
					C1040.1,935,1039.9,935,1039.7,934.9z M1022.6,926.3l-1.3-0.7c-0.7-0.4-1-1.3-0.7-2s1.3-1,2-0.7l1.3,0.7c0.7,0.4,1,1.3,0.7,2
					c-0.3,0.5-0.8,0.8-1.3,0.8C1023,926.5,1022.8,926.4,1022.6,926.3z M1005.5,917.8l-1.3-0.7c-0.7-0.4-1-1.3-0.7-2
					c0.4-0.7,1.3-1,2-0.7l1.3,0.7c0.7,0.4,1,1.3,0.7,2c-0.3,0.5-0.8,0.8-1.3,0.8C1005.9,917.9,1005.7,917.9,1005.5,917.8z
					 M988.4,909.2l-1.3-0.7c-0.7-0.4-1-1.3-0.7-2c0.4-0.7,1.3-1,2-0.7l1.3,0.7c0.7,0.4,1,1.3,0.7,2c-0.3,0.5-0.8,0.8-1.3,0.8
					C988.8,909.4,988.6,909.3,988.4,909.2z"/>
			</g>
			<g>
				<path class="st1" d="M972,900.8c0.6,0,1.1-0.3,1.3-0.8c0.4-0.7,0.1-1.6-0.7-2l-0.7-0.3c-0.7-0.4-1.6-0.1-2,0.7
					c-0.4,0.7-0.1,1.6,0.7,2l0.7,0.3C971.5,900.8,971.7,900.8,972,900.8z"/>
			</g>
		</g>
		<g class="st0">
			<g>
				<path class="st1" d="M-44.6,883.2c-0.6,0-1.1-0.3-1.3-0.8c-0.4-0.7-0.1-1.6,0.7-2l0.7-0.3c0.7-0.4,1.6-0.1,2,0.7
					c0.4,0.7,0.1,1.6-0.7,2l-0.7,0.3C-44.1,883.2-44.4,883.2-44.6,883.2z"/>
			</g>
			<g>
				<path class="st1" d="M-28.2,875c-0.6,0-1.1-0.3-1.3-0.8c-0.4-0.7-0.1-1.6,0.7-2l1.3-0.7c0.7-0.4,1.6-0.1,2,0.7
					c0.4,0.7,0.1,1.6-0.7,2l-1.3,0.7C-27.7,875-27.9,875-28.2,875z M-11.1,866.5c-0.6,0-1.1-0.3-1.3-0.8c-0.4-0.7-0.1-1.6,0.7-2
					l1.3-0.7c0.7-0.4,1.6-0.1,2,0.7c0.4,0.7,0.1,1.6-0.7,2l-1.3,0.7C-10.7,866.4-10.9,866.5-11.1,866.5z M6,858
					c-0.6,0-1.1-0.3-1.3-0.8c-0.4-0.7-0.1-1.6,0.7-2l1.3-0.7c0.7-0.4,1.6-0.1,2,0.7c0.4,0.7,0.1,1.6-0.7,2l-1.3,0.7
					C6.4,857.9,6.2,858,6,858z M23,849.4c-0.6,0-1.1-0.3-1.3-0.8c-0.4-0.7-0.1-1.6,0.7-2l1.3-0.7c0.7-0.4,1.6-0.1,2,0.7
					c0.4,0.7,0.1,1.6-0.7,2l-1.3,0.7C23.5,849.4,23.2,849.4,23,849.4z M40.1,840.9c-0.6,0-1.1-0.3-1.3-0.8c-0.4-0.7-0.1-1.6,0.7-2
					l1.3-0.7c0.7-0.4,1.6-0.1,2,0.7c0.4,0.7,0.1,1.6-0.7,2l-1.3,0.7C40.5,840.8,40.3,840.9,40.1,840.9z M57.1,832.4
					c-0.6,0-1.1-0.3-1.3-0.8c-0.4-0.7-0.1-1.6,0.7-2l1.3-0.7c0.7-0.4,1.6-0.1,2,0.7c0.4,0.7,0.1,1.6-0.7,2l-1.3,0.7
					C57.6,832.3,57.4,832.4,57.1,832.4z M74.2,823.8c-0.6,0-1.1-0.3-1.3-0.8c-0.4-0.7-0.1-1.6,0.7-2l1.3-0.7c0.7-0.4,1.6-0.1,2,0.7
					c0.4,0.7,0.1,1.6-0.7,2l-1.3,0.7C74.7,823.8,74.4,823.8,74.2,823.8z M91.3,815.3c-0.6,0-1.1-0.3-1.3-0.8c-0.4-0.7-0.1-1.6,0.7-2
					l1.3-0.7c0.7-0.4,1.6-0.1,2,0.7c0.4,0.7,0.1,1.6-0.7,2l-1.3,0.7C91.7,815.2,91.5,815.3,91.3,815.3z M108.3,806.8
					c-0.6,0-1.1-0.3-1.3-0.8c-0.4-0.7-0.1-1.6,0.7-2l1.3-0.7c0.7-0.4,1.6-0.1,2,0.7c0.4,0.7,0.1,1.6-0.7,2l-1.3,0.7
					C108.8,806.7,108.6,806.8,108.3,806.8z"/>
			</g>
			<g>
				<path class="st1" d="M125.4,798.2c-0.6,0-1.1-0.3-1.3-0.8c-0.4-0.7-0.1-1.6,0.7-2l0.7-0.3c0.7-0.4,1.6-0.1,2,0.7
					c0.4,0.7,0.1,1.6-0.7,2l-0.7,0.3C125.8,798.2,125.6,798.2,125.4,798.2z"/>
			</g>
		</g>
		<g class="st0">
			<path class="st1" d="M698.8,113.3c-0.2,0-0.5-0.1-0.7-0.2l-1.3-0.7c-0.7-0.4-1-1.3-0.7-2c0.4-0.7,1.3-1,2-0.7l1.3,0.7
				c0.7,0.4,1,1.3,0.7,2C699.8,113,699.3,113.3,698.8,113.3z M681.4,104.6c-0.2,0-0.5-0.1-0.7-0.2l-1.3-0.7c-0.7-0.4-1-1.3-0.7-2
				c0.4-0.7,1.3-1,2-0.7l1.3,0.7c0.7,0.4,1,1.3,0.7,2C682.4,104.3,681.9,104.6,681.4,104.6z M664,95.8c-0.2,0-0.5-0.1-0.7-0.2
				L662,95c-0.7-0.4-1-1.3-0.7-2c0.4-0.7,1.3-1,2-0.7l1.3,0.7c0.7,0.4,1,1.3,0.7,2C665,95.5,664.5,95.8,664,95.8z M646.6,87.1
				c-0.2,0-0.5-0.1-0.7-0.2l-1.3-0.7c-0.7-0.4-1-1.3-0.7-2c0.4-0.7,1.3-1,2-0.7l1.3,0.7c0.7,0.4,1,1.3,0.7,2
				C647.7,86.8,647.1,87.1,646.6,87.1z M629.2,78.3c-0.2,0-0.5-0.1-0.7-0.2l-1.3-0.7c-0.7-0.4-1-1.3-0.7-2c0.4-0.7,1.3-1,2-0.7
				l1.3,0.7c0.7,0.4,1,1.3,0.7,2C630.3,78,629.7,78.3,629.2,78.3z M611.8,69.6c-0.2,0-0.5-0.1-0.7-0.2l-1.3-0.7
				c-0.7-0.4-1-1.3-0.7-2c0.4-0.7,1.3-1,2-0.7l1.3,0.7c0.7,0.4,1,1.3,0.7,2C612.9,69.3,612.3,69.6,611.8,69.6z M594.4,60.8
				c-0.2,0-0.5-0.1-0.7-0.2l-1.3-0.7c-0.7-0.4-1-1.3-0.7-2c0.4-0.7,1.3-1,2-0.7l1.3,0.7c0.7,0.4,1,1.3,0.7,2
				C595.5,60.5,594.9,60.8,594.4,60.8z M577,52c-0.2,0-0.5-0.1-0.7-0.2l-1.3-0.7c-0.7-0.4-1-1.3-0.7-2c0.4-0.7,1.3-1,2-0.7l1.3,0.7
				c0.7,0.4,1,1.3,0.7,2C578.1,51.7,577.5,52,577,52z M559.6,43.3c-0.2,0-0.5-0.1-0.7-0.2l-1.3-0.7c-0.7-0.4-1-1.3-0.7-2
				c0.4-0.7,1.3-1,2-0.7l1.3,0.7c0.7,0.4,1,1.3,0.7,2C560.7,43,560.1,43.3,559.6,43.3z M542.2,34.5c-0.2,0-0.5-0.1-0.7-0.2l-1.3-0.7
				c-0.7-0.4-1-1.3-0.7-2c0.4-0.7,1.3-1,2-0.7l1.3,0.7c0.7,0.4,1,1.3,0.7,2C543.3,34.2,542.7,34.5,542.2,34.5z M524.8,25.8
				c-0.2,0-0.5-0.1-0.7-0.2l-1.3-0.7c-0.7-0.4-1-1.3-0.7-2c0.4-0.7,1.3-1,2-0.7l1.3,0.7c0.7,0.4,1,1.3,0.7,2
				C525.9,25.5,525.3,25.8,524.8,25.8z M507.4,17c-0.2,0-0.5-0.1-0.7-0.2l-1.3-0.7c-0.7-0.4-1-1.3-0.7-2c0.4-0.7,1.3-1,2-0.7
				l1.3,0.7c0.7,0.4,1,1.3,0.7,2C508.5,16.7,507.9,17,507.4,17z M490,8.3c-0.2,0-0.5-0.1-0.7-0.2L488,7.4c-0.7-0.4-1-1.3-0.7-2
				c0.4-0.7,1.3-1,2-0.7l1.3,0.7c0.7,0.4,1,1.3,0.7,2C491.1,8,490.5,8.3,490,8.3z M472.6-0.5c-0.2,0-0.5-0.1-0.7-0.2l-1.3-0.7
				c-0.7-0.4-1-1.3-0.7-2c0.4-0.7,1.3-1,2-0.7l1.3,0.7c0.7,0.4,1,1.3,0.7,2C473.7-0.8,473.2-0.5,472.6-0.5z M455.2-9.3
				c-0.2,0-0.5-0.1-0.7-0.2l-1.3-0.7c-0.7-0.4-1-1.3-0.7-2c0.4-0.7,1.3-1,2-0.7l1.3,0.7c0.7,0.4,1,1.3,0.7,2
				C456.3-9.6,455.8-9.3,455.2-9.3z M437.8-18c-0.2,0-0.5-0.1-0.7-0.2l-1.3-0.7c-0.7-0.4-1-1.3-0.7-2c0.4-0.7,1.3-1,2-0.7l1.3,0.7
				c0.7,0.4,1,1.3,0.7,2C438.9-18.3,438.4-18,437.8-18z M420.4-26.8c-0.2,0-0.5-0.1-0.7-0.2l-1.3-0.7c-0.7-0.4-1-1.3-0.7-2
				c0.4-0.7,1.3-1,2-0.7l1.3,0.7c0.7,0.4,1,1.3,0.7,2C421.5-27.1,421-26.8,420.4-26.8z M403-35.5c-0.2,0-0.5-0.1-0.7-0.2l-1.3-0.7
				c-0.7-0.4-1-1.3-0.7-2c0.4-0.7,1.3-1,2-0.7l1.3,0.7c0.7,0.4,1,1.3,0.7,2C404.1-35.8,403.6-35.5,403-35.5z M385.6-44.3
				c-0.2,0-0.5-0.1-0.7-0.2l-1.3-0.7c-0.7-0.4-1-1.3-0.7-2c0.4-0.7,1.3-1,2-0.7l1.3,0.7c0.7,0.4,1,1.3,0.7,2
				C386.7-44.6,386.2-44.3,385.6-44.3z M368.2-53.1c-0.2,0-0.5-0.1-0.7-0.2l-1.3-0.7c-0.7-0.4-1-1.3-0.7-2c0.4-0.7,1.3-1,2-0.7
				l1.3,0.7c0.7,0.4,1,1.3,0.7,2C369.3-53.4,368.8-53.1,368.2-53.1z M350.8-61.8c-0.2,0-0.5-0.1-0.7-0.2l-1.3-0.7
				c-0.7-0.4-1-1.3-0.7-2c0.4-0.7,1.3-1,2-0.7l1.3,0.7c0.7,0.4,1,1.3,0.7,2C351.9-62.1,351.4-61.8,350.8-61.8z M333.4-70.6
				c-0.2,0-0.5-0.1-0.7-0.2l-1.3-0.7c-0.7-0.4-1-1.3-0.7-2c0.4-0.7,1.3-1,2-0.7l1.3,0.7c0.7,0.4,1,1.3,0.7,2
				C334.5-70.9,334-70.6,333.4-70.6z M316-79.3c-0.2,0-0.5-0.1-0.7-0.2l-1.3-0.7c-0.7-0.4-1-1.3-0.7-2c0.4-0.7,1.3-1,2-0.7l1.3,0.7
				c0.7,0.4,1,1.3,0.7,2C317.1-79.6,316.6-79.3,316-79.3z M298.6-88.1c-0.2,0-0.5-0.1-0.7-0.2l-1.3-0.7c-0.7-0.4-1-1.3-0.7-2
				c0.4-0.7,1.3-1,2-0.7l1.3,0.7c0.7,0.4,1,1.3,0.7,2C299.7-88.4,299.2-88.1,298.6-88.1z"/>
		</g>
		<g class="st0">
			<g>
				<path class="st1" d="M970.3,900.8c0.2,0,0.5-0.1,0.7-0.2l0.7-0.4c0.7-0.4,1-1.3,0.6-2c-0.4-0.7-1.3-1-2-0.6l-0.7,0.4
					c-0.7,0.4-1,1.3-0.6,2C969.3,900.5,969.8,900.8,970.3,900.8z"/>
			</g>
			<g>
				<path class="st1" d="M937.4,916.8c-0.4-0.7-0.1-1.6,0.6-2l1.2-0.6c0.7-0.4,1.6-0.1,2,0.6c0.4,0.7,0.1,1.6-0.6,2l-1.2,0.6
					c-0.2,0.1-0.5,0.2-0.7,0.2C938.2,917.6,937.7,917.3,937.4,916.8z M953.2,908.4c-0.4-0.7-0.1-1.6,0.6-2l1.2-0.6
					c0.7-0.4,1.6-0.1,2,0.6c0.4,0.7,0.1,1.6-0.6,2l-1.2,0.6c-0.2,0.1-0.5,0.2-0.7,0.2C954,909.2,953.5,908.9,953.2,908.4z"/>
			</g>
			<g>
				<path class="st1" d="M923.5,925.7c0.2,0,0.5-0.1,0.7-0.2l0.7-0.4c0.7-0.4,1-1.3,0.6-2c-0.4-0.7-1.3-1-2-0.6l-0.7,0.4
					c-0.7,0.4-1,1.3-0.6,2C922.5,925.4,923,925.7,923.5,925.7z"/>
			</g>
		</g>
		<g class="st0">
			<path class="st1" d="M128.1,1331.3c-0.8,0-1.5-0.7-1.5-1.5v-262.1c0-0.8,0.7-1.5,1.5-1.5c0.8,0,1.5,0.7,1.5,1.5v262.1
				C129.6,1330.7,129,1331.3,128.1,1331.3z"/>
		</g>
		<g class="st0">
			<path class="st1" d="M104.7,1343.9c-0.8,0-1.5-0.7-1.5-1.5v-260.6c0-0.8,0.7-1.5,1.5-1.5c0.8,0,1.5,0.7,1.5,1.5v260.6
				C106.2,1343.2,105.6,1343.9,104.7,1343.9z"/>
		</g>
		<g class="st0">
			<path class="st1" d="M976.4,771.1c-0.7,0-1.4-0.5-1.5-1.3c-0.1-0.8,0.5-1.6,1.3-1.7c0.5-0.1,0.9-0.1,1.4-0.2
				c0.8-0.1,1.6,0.4,1.7,1.2c0.1,0.8-0.4,1.6-1.2,1.7c-0.5,0.1-1,0.2-1.5,0.2C976.6,771.1,976.5,771.1,976.4,771.1z M959.2,770.9
				c-0.1,0-0.2,0-0.3,0c-0.5-0.1-1-0.2-1.5-0.3c-0.8-0.2-1.3-0.9-1.2-1.8c0.2-0.8,0.9-1.3,1.8-1.2c0.5,0.1,0.9,0.2,1.4,0.3
				c0.8,0.1,1.4,0.9,1.2,1.7C960.6,770.4,960,770.9,959.2,770.9z M993.9,765c-0.5,0-1-0.2-1.3-0.7c-0.4-0.7-0.2-1.6,0.5-2.1
				c0.4-0.2,0.8-0.5,1.1-0.8c0.7-0.5,1.6-0.3,2.1,0.4c0.5,0.7,0.3,1.6-0.4,2.1c-0.4,0.3-0.8,0.6-1.3,0.8
				C994.5,764.9,994.2,765,993.9,765z M941.9,764.2c-0.3,0-0.6-0.1-0.9-0.3c-0.4-0.3-0.8-0.6-1.2-0.9c-0.7-0.5-0.8-1.4-0.3-2.1
				c0.5-0.7,1.4-0.8,2.1-0.3c0.4,0.3,0.7,0.5,1.1,0.8c0.7,0.5,0.8,1.4,0.4,2.1C942.9,764,942.4,764.2,941.9,764.2z M1004.4,750.2
				c0,0-0.1,0-0.1,0c-0.8-0.1-1.4-0.8-1.3-1.6c0-0.4,0.1-0.9,0.1-1.3c0-0.8,0.7-1.6,1.5-1.6c0.8,0,1.5,0.6,1.5,1.4v0.1
				c0,0.5,0,1.1-0.1,1.6C1005.8,749.7,1005.2,750.2,1004.4,750.2z M932.6,748.8c-0.8,0-1.5-0.6-1.5-1.5v-0.1c0-0.5,0-1,0.1-1.5
				c0.1-0.8,0.8-1.4,1.6-1.4c0.8,0.1,1.4,0.8,1.4,1.6c0,0.4-0.1,0.8-0.1,1.2C934.1,748.1,933.4,748.8,932.6,748.8z M996.2,734.2
				c-0.3,0-0.6-0.1-0.9-0.3c-0.4-0.3-0.7-0.5-1.1-0.8c-0.7-0.5-0.8-1.4-0.4-2.1c0.5-0.7,1.4-0.8,2.1-0.4c0.4,0.3,0.8,0.6,1.2,0.9
				c0.7,0.5,0.8,1.4,0.3,2.1C997.1,734,996.7,734.2,996.2,734.2z M941.8,733.5c-0.5,0-0.9-0.2-1.2-0.6c-0.5-0.7-0.3-1.6,0.4-2.1
				c0.4-0.3,0.8-0.6,1.2-0.8c0.7-0.4,1.6-0.2,2.1,0.5c0.4,0.7,0.2,1.6-0.5,2.1c-0.4,0.3-0.8,0.5-1.1,0.8
				C942.4,733.4,942.1,733.5,941.8,733.5z M979.1,727c-0.1,0-0.2,0-0.3,0c-0.5-0.1-0.9-0.2-1.4-0.3c-0.8-0.1-1.4-0.9-1.2-1.7
				c0.1-0.8,0.9-1.4,1.7-1.2c0.5,0.1,1,0.2,1.5,0.3c0.8,0.2,1.3,0.9,1.2,1.8C980.5,726.5,979.8,727,979.1,727z M959.1,726.8
				c-0.7,0-1.4-0.5-1.5-1.2c-0.1-0.8,0.4-1.6,1.2-1.7c0.5-0.1,1-0.2,1.5-0.2c0.8-0.1,1.6,0.5,1.7,1.3c0.1,0.8-0.5,1.6-1.3,1.7
				c-0.5,0.1-0.9,0.1-1.4,0.2C959.3,726.8,959.2,726.8,959.1,726.8z"/>
		</g>
	</g>
</g>
<g id="Icons">
	<g>
		<defs>
			<rect id="SVGID_3_" width="1080" height="1440.7"/>
		</defs>
		<clipPath id="SVGID_4_">
			<use xlink:href="#SVGID_3_"  style="overflow:visible;"/>
		</clipPath>
		<g class="st2">
			<g>
				<path class="st3" d="M922.5,1328.6L922.5,1328.6c16.3,8.2,42.8,8.2,59.2,0l41.6-20.8c16.3-8.2,16.3-26.4,0-34.6l0,0
					c-16.3-8.2-42.8-8.2-59.2,0l-41.6,20.8C906.2,1302.2,906.2,1320.4,922.5,1328.6z"/>
			</g>
			<g>
				<g>
					<path class="st4" d="M922.5,1322.8L922.5,1322.8c16.3,8.2,42.8,8.2,59.2,0l41.6-20.8c16.3-8.2,16.3-21.4,0-29.6l0,0
						c-16.3-8.2-42.8-8.2-59.2,0l-41.6,20.8C906.2,1301.4,906.2,1314.6,922.5,1322.8z"/>
				</g>
				<g>
					<path class="st5" d="M980.5,1293.8L980.5,1293.8c2.2,1.1,5.7,1.1,7.8,0l19.3-9.7c2.2-1.1,2.2-2.8,0-3.9l0,0
						c-2.2-1.1-5.7-1.1-7.8,0l-19.3,9.7C978.3,1290.9,978.3,1292.7,980.5,1293.8z"/>
				</g>
				<g>
					<g>
						<polygon class="st5" points="1007.1,1279.9 1008.3,1280.5 1024,1272.7 1022.7,1272.1 						"/>
					</g>
				</g>
			</g>
		</g>
		<g class="st2">
			<g>
				<g>
					<path class="st1" d="M989,430.5c-0.8,0-1.5-0.7-1.5-1.5v-0.7c0-0.8,0.7-1.5,1.5-1.5s1.5,0.7,1.5,1.5v0.7
						C990.5,429.8,989.8,430.5,989,430.5z"/>
				</g>
				<g>
					<path class="st1" d="M989,412.5c-0.8,0-1.5-0.7-1.5-1.5v-1.4c0-0.8,0.7-1.5,1.5-1.5s1.5,0.7,1.5,1.5v1.4
						C990.5,411.8,989.8,412.5,989,412.5z M989,393.9c-0.8,0-1.5-0.7-1.5-1.5v-1.4c0-0.8,0.7-1.5,1.5-1.5s1.5,0.7,1.5,1.5v1.4
						C990.5,393.2,989.8,393.9,989,393.9z M989,375.2c-0.8,0-1.5-0.7-1.5-1.5v-1.4c0-0.8,0.7-1.5,1.5-1.5s1.5,0.7,1.5,1.5v1.4
						C990.5,374.6,989.8,375.2,989,375.2z M989,356.6c-0.8,0-1.5-0.7-1.5-1.5v-1.4c0-0.8,0.7-1.5,1.5-1.5s1.5,0.7,1.5,1.5v1.4
						C990.5,355.9,989.8,356.6,989,356.6z M989,337.9c-0.8,0-1.5-0.7-1.5-1.5V335c0-0.8,0.7-1.5,1.5-1.5s1.5,0.7,1.5,1.5v1.4
						C990.5,337.3,989.8,337.9,989,337.9z M989,319.3c-0.8,0-1.5-0.7-1.5-1.5v-1.4c0-0.8,0.7-1.5,1.5-1.5s1.5,0.7,1.5,1.5v1.4
						C990.5,318.6,989.8,319.3,989,319.3z M989,300.7c-0.8,0-1.5-0.7-1.5-1.5v-1.4c0-0.8,0.7-1.5,1.5-1.5s1.5,0.7,1.5,1.5v1.4
						C990.5,300,989.8,300.7,989,300.7z M989,282c-0.8,0-1.5-0.7-1.5-1.5v-1.4c0-0.8,0.7-1.5,1.5-1.5s1.5,0.7,1.5,1.5v1.4
						C990.5,281.3,989.8,282,989,282z M989,263.4c-0.8,0-1.5-0.7-1.5-1.5v-1.4c0-0.8,0.7-1.5,1.5-1.5s1.5,0.7,1.5,1.5v1.4
						C990.5,262.7,989.8,263.4,989,263.4z M989,244.7c-0.8,0-1.5-0.7-1.5-1.5v-1.4c0-0.8,0.7-1.5,1.5-1.5s1.5,0.7,1.5,1.5v1.4
						C990.5,244,989.8,244.7,989,244.7z M989,226.1c-0.8,0-1.5-0.7-1.5-1.5v-1.4c0-0.8,0.7-1.5,1.5-1.5s1.5,0.7,1.5,1.5v1.4
						C990.5,225.4,989.8,226.1,989,226.1z"/>
				</g>
				<g>
					<path class="st1" d="M989,207.4c-0.8,0-1.5-0.7-1.5-1.5v-0.7c0-0.8,0.7-1.5,1.5-1.5s1.5,0.7,1.5,1.5v0.7
						C990.5,206.8,989.8,207.4,989,207.4z"/>
				</g>
			</g>
			<g>
				<g>
					<path class="st1" d="M989,188.5c-0.8,0-1.5-0.7-1.5-1.5v-0.7c0-0.8,0.7-1.5,1.5-1.5s1.5,0.7,1.5,1.5v0.7
						C990.5,187.8,989.8,188.5,989,188.5z"/>
				</g>
				<g>
					<path class="st1" d="M989,170.5c-0.8,0-1.5-0.7-1.5-1.5v-1.4c0-0.8,0.7-1.5,1.5-1.5s1.5,0.7,1.5,1.5v1.4
						C990.5,169.9,989.8,170.5,989,170.5z M989,151.9c-0.8,0-1.5-0.7-1.5-1.5V149c0-0.8,0.7-1.5,1.5-1.5s1.5,0.7,1.5,1.5v1.4
						C990.5,151.2,989.8,151.9,989,151.9z M989,133.2c-0.8,0-1.5-0.7-1.5-1.5v-1.4c0-0.8,0.7-1.5,1.5-1.5s1.5,0.7,1.5,1.5v1.4
						C990.5,132.6,989.8,133.2,989,133.2z M989,114.6c-0.8,0-1.5-0.7-1.5-1.5v-1.4c0-0.8,0.7-1.5,1.5-1.5s1.5,0.7,1.5,1.5v1.4
						C990.5,113.9,989.8,114.6,989,114.6z M989,96c-0.8,0-1.5-0.7-1.5-1.5V93c0-0.8,0.7-1.5,1.5-1.5s1.5,0.7,1.5,1.5v1.4
						C990.5,95.3,989.8,96,989,96z M989,77.3c-0.8,0-1.5-0.7-1.5-1.5v-1.4c0-0.8,0.7-1.5,1.5-1.5s1.5,0.7,1.5,1.5v1.4
						C990.5,76.6,989.8,77.3,989,77.3z M989,58.7c-0.8,0-1.5-0.7-1.5-1.5v-1.4c0-0.8,0.7-1.5,1.5-1.5s1.5,0.7,1.5,1.5v1.4
						C990.5,58,989.8,58.7,989,58.7z M989,40c-0.8,0-1.5-0.7-1.5-1.5v-1.4c0-0.8,0.7-1.5,1.5-1.5s1.5,0.7,1.5,1.5v1.4
						C990.5,39.4,989.8,40,989,40z M989,21.4c-0.8,0-1.5-0.7-1.5-1.5v-1.4c0-0.8,0.7-1.5,1.5-1.5s1.5,0.7,1.5,1.5v1.4
						C990.5,20.7,989.8,21.4,989,21.4z M989,2.7c-0.8,0-1.5-0.7-1.5-1.5v-1.4c0-0.8,0.7-1.5,1.5-1.5s1.5,0.7,1.5,1.5v1.4
						C990.5,2.1,989.8,2.7,989,2.7z M989-15.9c-0.8,0-1.5-0.7-1.5-1.5v-1.4c0-0.8,0.7-1.5,1.5-1.5s1.5,0.7,1.5,1.5v1.4
						C990.5-16.6,989.8-15.9,989-15.9z"/>
				</g>
				<g>
					<path class="st1" d="M989-34.6c-0.8,0-1.5-0.7-1.5-1.5v-0.7c0-0.8,0.7-1.5,1.5-1.5s1.5,0.7,1.5,1.5v0.7
						C990.5-35.2,989.8-34.6,989-34.6z"/>
				</g>
			</g>
			<g>
				<g>
					<g>
						<polygon class="st5" points="995.4,461 1013.6,406.8 1004.2,411.9 1004.2,411.9 984.8,466.1 1017.3,468.5 971.6,527.3 
							983.4,523.5 1029.1,464.6 						"/>
					</g>
					<g>
						<polygon class="st4" points="984.8,466.1 1004.2,411.9 1004.2,411.9 951.8,476.2 982.8,481.9 971.6,527.3 1017.3,468.5 						
							"/>
					</g>
				</g>
				<g>
					<polygon class="st3" points="984.8,466.1 995.4,461 1029.1,464.6 1017.3,468.5 					"/>
				</g>
			</g>
		</g>
		<g class="st2">
			<g>
				<polygon class="st4" points="968.1,893.5 961.7,895.4 953,882 962,878.5 983,883 975,895.5 				"/>
			</g>
			<g>
				<path class="st4" d="M973.4,891.7c2.8,1.4,2.8,3.6,0,5c-2.8,1.4-7.2,1.4-10,0c-2.8-1.4-2.8-3.6,0-5
					C966.2,890.3,970.6,890.3,973.4,891.7z"/>
			</g>
			<g>
				<path class="st5" d="M979.7,874.2c6.2,3.1,6.2,8.2,0,11.3c-6.2,3.1-16.3,3.1-22.6,0c-6.2-3.1-6.2-8.2,0-11.3
					C963.3,871.1,973.4,871.1,979.7,874.2z"/>
			</g>
			<g>
				<g>
					<rect x="952.4" y="846.7" class="st5" width="31.9" height="33.1"/>
				</g>
			</g>
			<g>
				<path class="st4" d="M980.3,849.8c6.6,3.3,7,8.8,0.5,12.1c-6.6,3.3-17.7,3.1-24.3-0.2c-6.6-3.3-6.6-8.6,0-11.9
					S973.7,846.5,980.3,849.8z"/>
			</g>
			<g>
				<path class="st4" d="M997.2,837.2L997.2,837.2c3-5.2,4.7-11.3,4.7-17.8c0-19.3-15.1-34.9-33.8-34.9c-18.7,0-33.8,15.6-33.8,34.9
					c0,7.6,2.4,14.6,6.4,20.4l11.2,17.6l33,1l12.1-20.8c0,0,0,0,0-0.1L997.2,837.2z"/>
			</g>
			<g>
				<ellipse class="st5" cx="957.7" cy="813.7" rx="10.8" ry="11.1"/>
			</g>
			<g>
				<path class="st3" d="M979.6,877.3c-6.2,3.1-16.3,3.1-22.6,0c-3.1-1.6-4.7-3.6-4.7-5.6l0,0v3.2c0,2,1.6,4.1,4.7,5.6
					c6.2,3.1,16.3,3.1,22.6,0c3.1-1.6,4.7-3.6,4.7-5.6v-3.2C984.3,873.7,982.7,875.7,979.6,877.3z"/>
			</g>
			<g>
				<path class="st3" d="M979.6,868.4c-6.2,3.1-16.3,3.1-22.6,0c-3.1-1.6-4.7-3.6-4.7-5.6l0,0v3.2c0,2,1.6,4.1,4.7,5.6
					c6.2,3.1,16.3,3.1,22.6,0c3.1-1.6,4.7-3.6,4.7-5.6v-3.2C984.3,864.8,982.7,866.8,979.6,868.4z"/>
			</g>
		</g>
		<g class="st2">
			<g>
				<polygon class="st4" points="47.1,1048.9 125.5,1088 169.6,1065.9 91.2,1026.9 				"/>
			</g>
			<g>
				<polygon class="st3" points="47.1,1049 125.5,1088.1 125.5,1106.7 47.1,1067.6 				"/>
			</g>
			<g>
				<polygon class="st3" points="125.5,1106.7 125.5,1088.1 169.6,1066 169.6,1084.6 				"/>
			</g>
			<g>
				<g>
					<polygon class="st6" points="132.1,1088.4 165.7,1105.1 194.5,1090.7 160.8,1074 					"/>
				</g>
				<g>
					<polygon class="st5" points="132.1,1088.4 165.7,1105.2 165.7,1117.3 132.1,1100.6 					"/>
				</g>
				<g>
					<g>
						<polygon class="st6" points="165.7,1117.3 165.7,1105.2 194.5,1090.8 194.5,1102.9 						"/>
					</g>
					<g>
						<polygon class="st7" points="167.8,1108.5 167.8,1104.2 192.5,1091.8 192.5,1096.1 						"/>
					</g>
				</g>
				<g>
					<polygon class="st3" points="163.1,1086.4 169.3,1089.5 175.4,1086.4 169.3,1083.4 					"/>
				</g>
				<g>
					<polygon class="st3" points="151.1,1092.5 157.2,1095.5 163.4,1092.5 157.2,1089.4 					"/>
				</g>
			</g>
		</g>
		<g class="st2">
			<g>
				<g>
					<path class="st8" d="M675.3,1331.9c-2.8-1.5-5.4-1.5-7-0.2l0,0l-0.5,0.5l-1.6,1.4c1.2-0.8,2.8-1,4.7-0.6
						c0.7,0.2,1.4,0.4,2.2,0.8c4.9,2.5,8.9,8.4,8.9,13.3c0,0.8-0.1,1.5-0.3,2.2c-0.2,0.7-0.5,1.2-0.9,1.7l1.2-1.1l0.6-0.6h0
						c0.8-0.9,1.4-2.2,1.4-3.9C684.1,1340.5,680.2,1334.5,675.3,1331.9z"/>
					<path class="st8" d="M676.5,1279.1c-16.8-8.9-32.2-10-43.5-4.7l-3.5,2.9c2-1,4.1-1.8,6.4-2.4c10.3-2.7,23.2-0.9,37.2,6.1
						c17,8.5,32.4,23.1,43.6,39.8l2.4-1.2C708.2,1302.7,693.3,1288,676.5,1279.1z"/>
					<path class="st8" d="M676.1,1295.4c-12.4-6.5-23.7-7.4-32-3.4l-3.2,2.6c3.3-1.6,7.1-2.5,11.3-2.6c6.2-0.1,13.3,1.6,20.8,5.3
						c12.5,6.3,23.9,17,32.1,29.3l2.5-1.3C699.6,1313,688.5,1302,676.1,1295.4z"/>
					<path class="st8" d="M675.7,1313.9c-7.3-3.9-14-4.4-19-2l-2.7,2.4c2.4-1.2,5.2-1.7,8.2-1.5c3.3,0.2,6.9,1.2,10.7,3.1
						c7.4,3.7,14.1,10.1,19,17.3l2.4-1.2C689.6,1324.6,683.1,1317.8,675.7,1313.9z"/>
					<path class="st8" d="M679.8,1351.9L679.8,1351.9C679.8,1351.9,679.8,1351.9,679.8,1351.9L679.8,1351.9z"/>
				</g>
			</g>
			<path class="st9" d="M681.6,1349.4c0.2-0.6,0.3-1.4,0.3-2.2c0-4.9-4-10.9-8.9-13.3c-0.7-0.4-1.5-0.6-2.2-0.8
				c-1.8-0.5-3.5-0.2-4.7,0.6c-0.3,0.2-0.6,0.5-0.8,0.7l0,0c-0.8,0.9-1.3,2.3-1.3,3.9c0,4.9,4,10.9,8.9,13.3
				c2.7,1.3,5.1,1.4,6.7,0.3c0,0,0,0,0,0c0.3-0.2,0.6-0.5,0.9-0.8C681.1,1350.6,681.4,1350,681.6,1349.4z"/>
			<path class="st9" d="M673,1281.1c-14-7-26.9-8.8-37.2-6.1c-2.3,0.6-4.4,1.4-6.4,2.4l6.1,9.1c9.6-4.8,22.9-4.1,37.5,3.2
				c14.7,7.3,27.9,19.9,37.5,34.3l6.1-3c0,0,0,0,0,0C705.4,1304.2,690,1289.6,673,1281.1z"/>
			<path class="st9" d="M673,1297.4c-7.5-3.7-14.6-5.5-20.8-5.3c-4.2,0.1-8,0.9-11.3,2.6l6.7,10c6.5-3.2,15.5-2.8,25.4,2.2
				c9.9,5,18.9,13.5,25.4,23.2l6.7-3.3c0,0,0,0,0,0C696.9,1314.4,685.5,1303.7,673,1297.4z"/>
			<path class="st9" d="M673,1315.9c-3.8-1.9-7.5-2.9-10.7-3.1c-3.1-0.2-5.9,0.3-8.2,1.5l6.5,9.8c3.2-1.6,7.6-1.4,12.5,1.1
				c4.9,2.4,9.3,6.6,12.5,11.4l6.5-3.3c0,0,0,0,0,0C687.1,1325.9,680.4,1319.6,673,1315.9z"/>
		</g>
		<g class="st2">
			<path class="st10" d="M752.9,160.3c-4.1,2.1-7.8,2-10.2,0.4c-0.2-0.8-0.3-1.6-0.3-2.5c0-7.4,6-16.3,13.4-20
				c4.1-2.1,7.8-2,10.2-0.4c0.2,0.8,0.3,1.6,0.3,2.5C766.2,147.6,760.2,156.6,752.9,160.3z"/>
			<g>
				<path class="st11" d="M752.9,160.3c7.4-3.7,13.4-12.7,13.4-20c0-0.9-0.1-1.7-0.3-2.5c2,1.3,3.1,3.8,3.1,7c0,7.4-6,16.3-13.4,20
					c-6.5,3.2-11.9,1.3-13.1-4.2C745.1,162.3,748.8,162.4,752.9,160.3z"/>
				<path class="st12" d="M779.5,151.8l2.9,4.5l-6.6-3.3l-0.2-0.1c0.4-0.9,0.7-1.7,1-2.6L779.5,151.8z"/>
				<path class="st12" d="M749.8,178.3v7.8l-2.9-4.5V177c0.9-0.1,1.9-0.2,2.9-0.4V178.3z"/>
				<path class="st12" d="M721.2,156.8l9.6-4.8c0.3-1.3,0.7-2.6,1.2-3.9l3.9,2c-1,2.2-1.7,4.3-2.2,6.5l-9.6,4.8
					c-0.3,1.7-0.5,3.3-0.5,4.9c0,0.5,0,0.9,0,1.4c0,2,0.2,4,0.6,5.7l-2.9-4.5c-0.4-1.8-0.6-3.7-0.6-5.7
					C720.7,161,720.9,158.9,721.2,156.8z"/>
				<path class="st12" d="M733.7,168.5c0.5,1.6,1.3,3.1,2.2,4.3l-3.8,5.7l-3,4.4l-2.9-4.5l6.2-9.3L733.7,168.5z"/>
				<path class="st12" d="M761.7,126.4v-5c0.9-0.1,1.7-0.1,2.5,0l6.8-10.2c3.3,0.6,6.2,2,8.5,4.2l2.9,4.5c-1.6-1.6-3.5-2.7-5.7-3.5
					c-0.9-0.3-1.8-0.6-2.8-0.7l-6.8,10.2C765.5,125.8,763.6,126,761.7,126.4z"/>
				<path class="st12" d="M784.5,125.1l2.9,4.5l-3.1,1.6l-6.5,3.2c-0.5-1.6-1.3-3.1-2.2-4.3l0.6-0.9L784.5,125.1z"/>
				<path class="st12" d="M729.1,146.7l-2.9-4.5c2.3-4.5,5.1-8.8,8.5-12.7l6.8,3.4c1.7-1.8,3.5-3.5,5.4-4.9v-9.6
					c1.9-1.3,3.9-2.5,6-3.6s4-1.8,6-2.4l2.9,4.5c-1.6,0.5-3.2,1.1-4.9,1.9c-0.4,0.2-0.7,0.3-1.1,0.5c-2,1-4,2.2-6,3.6v9.6
					c-1.9,1.5-3.7,3.1-5.4,4.9l-6.8-3.4c-1.9,2.2-3.6,4.5-5.1,7C731.2,142.8,730.1,144.7,729.1,146.7z"/>
			</g>
			<path class="st13" d="M724.1,173.3l8.3-4.2l1.2-0.6c0.5,1.6,1.3,3.1,2.2,4.3l-3.8,5.7l-3,4.4c2.3,2.2,5.1,3.6,8.5,4.2l6.8-10.2
				c0.8,0.1,1.6,0.1,2.5,0c0.9-0.1,1.9-0.2,2.9-0.4v1.8v7.8c1.9-0.6,3.9-1.4,6-2.4c2-1,4-2.2,6-3.6v-9.6c1.9-1.5,3.7-3.1,5.4-4.9
				l6.8,3.4c3.3-3.9,6.2-8.2,8.5-12.7l-6.6-3.3l-0.2-0.1c0.4-0.9,0.7-1.7,1-2.6c0.5-1.3,0.9-2.6,1.2-3.9l9.6-4.8
				c0.4-2.1,0.6-4.2,0.6-6.3c0-2-0.2-4-0.6-5.7l-3.1,1.6l-6.5,3.2c-0.5-1.6-1.3-3.1-2.2-4.3l0.6-0.9l6.2-9.3
				c-1.6-1.6-3.5-2.7-5.7-3.5c-0.9-0.3-1.8-0.6-2.8-0.7l-6.8,10.2c-1.7-0.1-3.5,0-5.4,0.5v-5v-4.6c-1.6,0.5-3.2,1.1-4.9,1.9
				c-0.4,0.2-0.7,0.3-1.1,0.5c-2,1-4,2.2-6,3.6v9.6c-1.9,1.5-3.7,3.1-5.4,4.9l-6.8-3.4c-1.9,2.2-3.6,4.5-5.1,7
				c-1.2,1.9-2.3,3.8-3.3,5.8l2.8,1.4l3.9,2c-1,2.2-1.7,4.3-2.2,6.5l-9.6,4.8c-0.3,1.7-0.5,3.3-0.5,4.9c0,0.5,0,0.9,0,1.4
				C723.5,169.6,723.7,171.6,724.1,173.3z M742.7,160.7c-0.2-0.8-0.3-1.6-0.3-2.5c0-7.4,6-16.3,13.4-20c4.1-2.1,7.8-2,10.2-0.4
				c2,1.3,3.1,3.8,3.1,7c0,7.4-6,16.3-13.4,20C749.3,168.1,743.9,166.2,742.7,160.7z"/>
		</g>
		<g class="st2">
			<polygon class="st14" points="74.2,498.6 78,500.5 78,459.6 74.2,457.7 			"/>
			<polygon class="st9" points="78,500.5 81.8,498.6 81.8,457.7 78,459.6 			"/>
			<polygon class="st14" points="61.4,491.4 65.1,493.3 65.1,452.4 61.4,450.5 			"/>
			<polygon class="st9" points="65.1,493.3 68.9,491.4 68.9,450.5 65.1,452.4 			"/>
			<polygon class="st14" points="48.5,485.1 52.2,487 52.2,446.1 48.5,444.2 			"/>
			<polygon class="st9" points="52.2,487 56,485.1 56,444.2 52.2,446.1 			"/>
			<path class="st8" d="M50.3,369.4v26.4l40.3,20.2v-26.4L50.3,369.4z M70.4,399.6c-3.4-1.7-6.2-5.9-6.2-9.3c0-3.4,2.8-4.8,6.2-3.1
				c3.4,1.7,6.2,5.9,6.2,9.3C76.6,400,73.8,401.3,70.4,399.6z"/>
			<polygon class="st9" points="77.8,465 37.5,444.9 37.5,401.8 77.8,422 			"/>
			<path class="st9" d="M46.5,370.9v26.4l40.3,20.2V391L46.5,370.9z M66.7,401.2c-3.4-1.7-6.2-5.9-6.2-9.3s2.8-4.8,6.2-3.1
				c3.4,1.7,6.2,5.9,6.2,9.3C72.9,401.5,70.1,402.9,66.7,401.2z"/>
			<polygon class="st14" points="46.5,397.3 86.8,417.4 77.8,422 37.5,401.8 			"/>
			<polygon class="st14" points="51,368.4 91.3,388.6 86.8,391.1 46.5,371 			"/>
			<polygon class="st8" points="86.8,391.1 86.8,417.4 77.8,421.9 77.8,465 86.8,460.5 89.9,459 91.4,458 91.4,388.6 			"/>
		</g>
		<g class="st2">
			<g>
				<path class="st1" d="M393.9,181.1c-0.2,0-0.5-0.1-0.7-0.2L-35.5-40.8c-0.7-0.4-1-1.3-0.6-2c0.4-0.7,1.3-1,2-0.6l428.7,221.7
					c0.7,0.4,1,1.3,0.6,2C394.9,180.8,394.4,181.1,393.9,181.1z"/>
			</g>
			<g>
				<path class="st1" d="M393.9,206.1c-0.2,0-0.5-0.1-0.7-0.2L-35.5-15.8c-0.7-0.4-1-1.3-0.6-2c0.4-0.7,1.3-1,2-0.6l428.7,221.7
					c0.7,0.4,1,1.3,0.6,2C394.9,205.8,394.4,206.1,393.9,206.1z"/>
			</g>
			<g>
				<path class="st1" d="M241.8,103c-0.5,0-1.1-0.3-1.3-0.8c-0.4-0.7-0.1-1.6,0.7-2L530.2-46c0.7-0.4,1.6-0.1,2,0.7
					c0.4,0.7,0.1,1.6-0.7,2L242.5,102.8C242.3,102.9,242,103,241.8,103z"/>
			</g>
			<g>
				<path class="st13" d="M349.5,161.2c16.8-8.4,43.8-9,63.6,0.5l-2.5,8.7c-17.3-8-44.3-7.8-61.1,0.6c-6.1,3.1-10,6.8-11.8,10.7
					c0,0,0,0,0,0c-0.7-1.6-1.1-3.2-1.1-4.9C336.6,171.1,340.9,165.5,349.5,161.2z"/>
				<g>
					<path class="st13" d="M365.7,183.2c-1.4,1.9-0.5,4.1,2.5,5.6l11.4,5.7c1,0.5,2.1,0.9,3.3,1.1c3.9,0.9,8.7,0.5,11.9-1.1
						l44.1-22.2c3.5-1.7,4-4.4,1.7-6.5l6.8,3.4c4.2,2.1,7.6,7.2,7.6,11.4v5.3v0v-4.3c0-6.8-5.6-9.6-12.4-6.2l-36,17.8
						c-6.8,3.4-12.4,11.8-12.4,18.7v8.4c0,6.8,5.5,9.6,12.2,6.3c-2.3,1.3-7.1,2.2-12.7,2.2c-3.9,0-7.5-0.5-10.1-1.2
						c3.3,0.9,5.8-0.9,5.8-4.5v-13.1c0-4.2-3.4-9.3-7.6-11.4l-13.1-6.5c-4.2-2.1-7.6-0.4-7.6,3.8v-3.6
						C361.1,189.3,363,185.7,365.7,183.2z"/>
					<path class="st13" d="M382.9,227.4c-0.9-0.3-1.7-0.7-2.3-1.1l1.2,0.6C382.2,227.2,382.5,227.3,382.9,227.4z"/>
					<path class="st12" d="M406.3,226.6c0.1,0,0.2-0.1,0.3-0.1l36-17.8c6.8-3.4,12.4-11.8,12.4-18.7v-4.1v-4.3
						c0-6.8-5.6-9.6-12.4-6.2l-36,17.8c-6.8,3.4-12.4,11.8-12.4,18.7v8.4C394.1,227,399.6,229.8,406.3,226.6z M441.7,202.9l-34.3,17
						c-4.2,2.1-7.6,0.4-7.6-3.8v-5.8c0-4.2,3.4-9.3,7.6-11.4l34.3-17c4.2-2.1,7.6-0.4,7.6,3.8v5.8
						C449.3,195.7,445.9,200.8,441.7,202.9z"/>
					<path class="st11" d="M407.4,219.9l34.3-17c4.2-2.1,7.6-7.2,7.6-11.4v-5.8c0-4.2-3.4-5.9-7.6-3.8l-34.3,17
						c-4.2,2.1-7.6,7.2-7.6,11.4v5.8C399.8,220.3,403.2,222,407.4,219.9z M435.6,195.6L410,208.4v-3.5l25.6-12.8V195.6z
						 M443.3,191.7l-3.5,1.8V190l3.5-1.8V191.7z"/>
					<path class="st12" d="M368.7,192.2l13.1,6.5c4.2,2.1,7.6,7.2,7.6,11.4v13.1c0,3.6-2.5,5.3-5.8,4.5c-0.2-0.1-0.5-0.1-0.7-0.2
						c-0.3-0.1-0.7-0.3-1.1-0.4l-1.2-0.6l-11.8-5.9c-4.2-2.1-7.6-7.2-7.6-11.4v-11.4V196C361.1,191.8,364.6,190.1,368.7,192.2z"/>
					<path class="st12" d="M434.9,165.3c-19.5,0.2-37.1,9.1-48.7,24.8c-1.4,1.9-2.5,3.7-3.3,5.4c-1.2-0.3-2.3-0.6-3.3-1.1l-11.4-5.7
						c-3-1.5-3.8-3.7-2.5-5.6c0.5-0.7,1.3-1.4,2.5-2l44.1-22.2c4.2-2.1,11-2.1,15.2,0l11.4,5.7c0.6,0.3,1.1,0.6,1.6,1
						C438.7,165.4,436.9,165.3,434.9,165.3z"/>
					<path class="st11" d="M438.9,172.3l-44.1,22.2c-3.2,1.6-8,2-11.9,1.1c0.9-1.8,2-3.6,3.3-5.4c11.5-15.7,29.2-24.6,48.7-24.8
						c2,0,3.9,0.1,5.6,0.3c0,0,0.1,0.1,0.1,0.1C442.9,167.9,442.4,170.5,438.9,172.3z"/>
					<polygon class="st12" points="439.7,190 443.3,188.2 443.3,191.7 439.7,193.5 					"/>
					<polygon class="st12" points="410,204.9 435.6,192.1 435.6,195.6 410,208.4 					"/>
				</g>
				<path class="st10" d="M337.7,181.7L337.7,181.7C337.7,181.6,337.7,181.6,337.7,181.7C337.7,181.6,337.7,181.7,337.7,181.7z"/>
				<path class="st11" d="M337.7,181.6L337.7,181.6C337.7,181.7,337.7,181.7,337.7,181.6c1.8,3.9,5.7,7.7,11.8,10.7
					c0.4,0.2,0.9,0.4,1.4,0.6v0l26.4,13.2v9.9l-26.4-13.3c-0.5-0.2-0.9-0.4-1.4-0.6c-8.6-4.3-12.9-9.9-12.9-15.6v0v-9.8
					C336.6,178.4,337,180,337.7,181.6z"/>
				<path class="st11" d="M360,127.8c0.3-0.2,0.7-0.3,1-0.5l0,0l0,0c4.5-1.9,10.6-1.5,17.2,1.9c14,7,25.4,24.1,25.4,38.1
					c0,0.5,0,1.1-0.1,1.6v2.3l-7.4,3.6v-2.3c0-0.5,0.1-1.1,0.1-1.6c0-14-11.4-31.1-25.4-38.1c-5.1-2.5-9.8-3.4-13.7-2.8l-3.8,2.6
					l-0.4-1.3L360,127.8z"/>
				<path class="st13" d="M352.9,167.5l-7.4,3.2v-25.3c0-9,4.6-14.5,11.6-15.5c-2.7,2.7-4.3,6.7-4.3,12V167.5z"/>
			</g>
		</g>
		<g class="st2">
			<path class="st10" d="M130.1,752.1c1.5,0.7,2.9,1.2,4.2,1.3c0.5-1,0.7-2.2,0.7-3.6c0-6.4-5.2-14.2-11.6-17.4
				c-1.5-0.7-2.9-1.2-4.2-1.3c-0.5,1-0.7,2.2-0.7,3.6C118.5,741.1,123.7,748.9,130.1,752.1z"/>
			<path class="st11" d="M130.1,707.6c-18.2-9.1-39.5,0-39.5,18.2l0,0c0.9-16.9,15.3-23.5,32.8-14.7c18.2,9.1,32.9,31.2,32.9,49.3
				c0,17.8-16.7,30.4-26.3,36.1c0,0,0.1,0.1,0.1,0.1s32.9-14.7,32.9-39.7C163,738.8,148.3,716.7,130.1,707.6z"/>
			<path class="st12" d="M130.1,752.1c-6.4-3.2-11.6-11-11.6-17.4c0-1.4,0.3-2.6,0.7-3.6c-4.3-0.5-7.4,2.2-7.4,7.1
				c0,6.4,5.2,14.2,11.6,17.4c5,2.5,9.3,1.5,10.9-2.2C133,753.3,131.6,752.9,130.1,752.1z"/>
			<path class="st13" d="M156.3,760.4c0-18.2-14.7-40.2-32.9-49.3c-17.6-8.8-31.9-2.2-32.8,14.7c0,0.6,0,1.1,0,1.7
				c0,27.7,32.9,72.5,32.9,72.5s2.7-1.2,6.6-3.6C139.6,790.8,156.3,778.2,156.3,760.4z M123.4,755.6c-6.4-3.2-11.6-11-11.6-17.4
				c0-4.9,3.1-7.6,7.4-7.1c1.3,0.1,2.7,0.6,4.2,1.3c6.4,3.2,11.6,11,11.6,17.4c0,1.4-0.3,2.6-0.7,3.6
				C132.7,757.1,128.4,758.1,123.4,755.6z"/>
		</g>
	</g>
</g>
</svg>
