<svg xmlns="http://www.w3.org/2000/svg" width="24" height="24" viewBox="0 0 24 24">
    <path fill="#FF8408" fill-rule="nonzero" d="M12 0C5.383 0 0 5.383 0 12s5.383 12 12 12 12-5.384 12-12S18.617 0 12 0zm0 22.141C6.409 22.141 1.859 17.592 1.859 12S6.409 1.859 12 1.859c5.592 0 10.141 4.549 10.141 10.141S17.591 22.141 12 22.141zM10.95 7.108v6.334c0 .612.47 1.108 1.05 1.108.58 0 1.05-.496 1.05-1.108V7.108C13.05 6.496 12.58 6 12 6c-.58 0-1.05.496-1.05 1.108zM13.05 17a1.05 1.05 0 1 0-2.1 0 1.05 1.05 0 0 0 2.1 0z"/>
</svg>
