<svg xmlns="http://www.w3.org/2000/svg" width="16" height="16" viewBox="0 0 16 16">
    <path fill="#C81C2E" fill-rule="nonzero" d="M13.66 2.34c3.12 3.121 3.12 8.2 0 11.32A7.976 7.976 0 0 1 8.002 16c-2.05 0-4.098-.78-5.658-2.34A7.953 7.953 0 0 1 0 8c0-2.137.832-4.148 2.344-5.66 3.12-3.12 8.197-3.12 11.316 0zm-2.987 7.374L8.918 7.96l1.755-1.753a.621.621 0 0 0-.877-.877L8.04 7.085 6.284 5.331a.62.62 0 1 0-.876.877l1.755 1.753-1.755 1.753a.62.62 0 1 0 .876.877L8.04 8.837l1.756 1.754a.617.617 0 0 0 .877 0 .62.62 0 0 0 0-.877z"/>
</svg>
